<?xml version="1.0" standalone="no"?>
<!DOCTYPE svg PUBLIC "-//W3C//DTD SVG 1.1//EN" "http://www.w3.org/Graphics/SVG/1.1/DTD/svg11.dtd" >
<svg xmlns="http://www.w3.org/2000/svg" xmlns:xlink="http://www.w3.org/1999/xlink" version="1.1">
<metadata>
Created by FontForge 20170731 at Fri Jan  1 02:30:17 1904
 By Aleksey,,,
Copyright (c) 1991 Digital Typeface Corp.
</metadata>
<defs>
<font id="AlgerianRA" horiz-adv-x="1024" >
  <font-face 
    font-family="Algerian_R"
    font-weight="400"
    font-stretch="normal"
    units-per-em="2048"
    panose-1="2 2 5 0 0 0 0 0 0 0"
    ascent="1638"
    descent="-410"
    x-height="1366"
    cap-height="1366"
    bbox="-1350 -459 2281 1819"
    underline-thickness="57"
    underline-position="-203"
    unicode-range="U+0020-F002"
  />
<missing-glyph horiz-adv-x="1536" 
d="M256 0v1280h1024v-1280h-1024zM1247 33v1214h-958v-1214h958z" />
    <glyph glyph-name=".notdef" horiz-adv-x="1536" 
d="M256 0v1280h1024v-1280h-1024zM1247 33v1214h-958v-1214h958z" />
    <glyph glyph-name=".null" horiz-adv-x="0" 
 />
    <glyph glyph-name="nonmarkingreturn" horiz-adv-x="0" 
 />
    <glyph glyph-name="space" unicode=" " horiz-adv-x="569" 
 />
    <glyph glyph-name="exclam" unicode="!" horiz-adv-x="662" 
d="M279 1337q16 -71 40.5 -120t62.5 -82t97 -60l-10 -18q-42 -64 -73.5 -127t-51 -125t-31.5 -133q-19 -109 -24 -238v-16h-33v20q0 179 -63 377q-55 174 -140 275q65 29 105 59t68.5 75.5t52.5 112.5zM606 1090l-12 -15q-71 -92 -98.5 -138t-51.5 -108q-18 -48 -47 -153
q-15 -70 -20 -98t-10 -77t-7 -98l-2 -10h-28v8q0 119 29 245t80.5 239.5t117.5 195.5q-173 99 -217 215l33 -14q41 -62 91 -103t142 -89zM281 326q54 0 92.5 -37.5t38.5 -91.5t-39.5 -92.5t-91.5 -38.5t-90.5 38.5t-38.5 92.5q0 36 17.5 65.5t46 46.5t65.5 17zM444 285
q34 -31 45 -57.5t11 -71.5q0 -66 -51 -118t-117 -52q-49 0 -74.5 11.5t-56.5 47.5l6 8q42 -25 64.5 -32t52.5 -7q65 0 108 45t43 109q0 31 -8.5 54t-30.5 54z" />
    <glyph glyph-name="quotedbl" unicode="&#x22;" horiz-adv-x="692" 
d="M244 1366l-68 -403h-78l-30 403h176zM162 887l-35 20h96l78 418l25 -12l-78 -426h-86zM543 1366l-68 -403h-80l-28 403h176zM461 887l-35 20h96l78 418l23 -12l-78 -426h-84z" />
    <glyph glyph-name="numbersign" unicode="#" horiz-adv-x="1202" 
d="M647 469h-135l-66 -469h-131l-18 23h125l65 475h164l8 57h-223l-65 -473h-131l55 387h-197l-10 29h211l8 57h-246v82h258l17 127h-197l-10 27h211l8 57h-237v86h249l60 432h131l-59 -432h57l55 389l27 -8l-56 -381h136l61 432h127l-59 -432h57l55 389l27 -8l-53 -381h137
v-86h-236l-28 -211h57l23 154h239l-2 124l21 -22l2 -129h-238l-16 -127h133v-82h-232l-67 -473h-127zM688 764h-135l-18 -127h135zM700 848h-221l-30 -211h59l20 154h164zM795 0h-129l-21 23h125l66 475h241l-2 125l19 -23l2 -131h-236z" />
    <glyph glyph-name="dollar" unicode="$" horiz-adv-x="1202" 
d="M1032 1376q-43 -69 -90 -166q-50 -100 -74 -172l-6 2q-39 223 -235 275v-438l59 -17v391q49 -21 74.5 -44t52.5 -72h-8l-6 6q-24 23 -35 30q-15 16 -41 31q-2 2 -5 3t-5 3v-356l14 -4q81 -24 94 -29q57 -16 117 -57q48 -36 80.5 -80.5t49.5 -99.5t17 -111
q0 -106 -57 -197t-155 -142.5t-216 -51.5h-30v-184h-82v108l-135 29l-95 22q-91 17 -129 17q-54 0 -104 -23l-12 31q55 22 106 22q45 0 98 -9t142 -32q34 -8 48.5 -11.5t20.5 -4.5l60 -12v57q-22 3 -45 6.5t-50 9.5t-68 16.5t-81 20.5q-72 19 -127 19q-61 0 -131 -39l-8 16
q54 85 99.5 177t74.5 176h16q20 -141 103 -226t217 -100v428l-144 37q-102 26 -143 55t-61 86l36 -18q18 -34 55 -53.5t124 -41.5l133 -32v53l-19 4q-186 39 -256 82q-65 41 -104 116.5t-39 161.5q0 112 49.5 193.5t144.5 126t224 45.5v135h82v-141q31 -4 59 -12v118l27 -18
v-100q15 -3 16 -5q37 -7 109 -26q59 -14 88 -14q31 0 51 7.5t47 28.5zM711 162q103 24 156 81.5t53 145.5q0 110 -105 193q-45 34 -88 49q-34 10 -90 24l-12 4v-501l61 4v424q84 -18 131 -49.5t66 -83.5h-9q-55 68 -163 98v-389zM545 895v352q-68 -4 -110 -46t-42 -105
q0 -92 107 -158v-6q-51 23 -79.5 46.5t-43.5 55t-15 72.5q0 69 53 118t130 52v53q-68 -2 -123.5 -30t-88 -75t-32.5 -104q0 -83 54.5 -136t176.5 -87zM1098 1335l-11 -16q-28 -46 -46.5 -79t-34 -67.5t-27.5 -60.5l-45 -96l-23 8l52 113q3 7 65 131q24 45 39 69l4 9z
M1032 737q63 -44 100 -117t37 -149q0 -115 -52.5 -215t-146 -166.5t-206.5 -81.5l-43 -6l-10 -2v-180h-109l-22 26h106v181q124 3 228.5 63.5t165.5 161t61 219.5q0 68 -30.5 140t-78.5 120v6zM322 453q18 -99 59 -152t139 -108v-7q-90 23 -150.5 93t-74.5 165z" />
    <glyph glyph-name="percent" unicode="%" horiz-adv-x="1282" 
d="M1018 1364l-715 -1290h-88l713 1290h90zM1057 1341l16 -28l-721 -1315h-96l-16 29h98zM375 1251q-27 19 -49 19q-55 0 -75 -43t-20 -158q0 -67 7.5 -114.5t22.5 -81.5t38 -58h-12q-30 23 -48 54.5t-25 79.5t-7 124q0 83 9.5 131t32.5 68t64 20q43 0 68 -41h-6zM557 1059
q0 -165 -66 -251.5t-190 -86.5q-83 0 -142.5 42t-91.5 120.5t-32 187.5q0 101 31.5 177t90 117.5t136.5 41.5q114 0 189 -98t75 -250zM432 1057q0 137 -33.5 202.5t-103.5 65.5q-71 0 -102 -61t-31 -201q0 -129 36.5 -200.5t102.5 -71.5q63 0 97 70.5t34 195.5zM475 1358h14
q71 -44 110.5 -128.5t39.5 -189.5q0 -104 -33.5 -186t-94 -129t-134.5 -47q-37 0 -54 4t-38 18h14q31 -8 53 -8q73 0 133 45t94.5 124t34.5 177t-33 174.5t-106 145.5zM991 535q-26 18 -49 18q-45 0 -65.5 -26t-22.5 -83l-4 -92v-24q0 -162 65 -230h-12q-46 40 -63 94
t-17 164q0 128 22.5 173.5t84.5 45.5q43 0 67 -40h-6zM1174 342q0 -164 -66 -251t-190 -87q-81 0 -142 42.5t-93 121t-32 186.5q0 101 31.5 177t90.5 117.5t136 41.5q114 0 189.5 -98t75.5 -250zM1049 340q0 137 -33.5 202.5t-104.5 65.5q-72 0 -102.5 -60t-30.5 -202
q0 -130 37 -201t103 -71q60 0 95.5 70t35.5 196zM1092 641h14q70 -45 109.5 -128.5t39.5 -186.5q0 -105 -34 -188t-94 -130t-134 -47q-37 0 -51.5 3.5t-40.5 21.5h14q28 -11 56 -11q74 0 133.5 45.5t93 124t33.5 177.5q0 97 -33 173t-106 146z" />
    <glyph glyph-name="ampersand" unicode="&#x26;" horiz-adv-x="1642" 
d="M561 928q-15 58 -20.5 96.5t-5.5 87.5q0 85 30.5 152.5t83.5 105t123 37.5q54 0 100.5 -17t80 -47.5t52.5 -73t19 -89.5q0 -194 -272 -279q31 -80 71.5 -167.5t78.5 -155t73 -117.5q14 33 24 76q-11 17 -22 35t-23.5 40t-46.5 88q-47 87 -80 164l15 6q239 96 239 291
q0 68 -49 150l-8 12q38 -32 60 -80t22 -96q0 -189 -242 -301q70 -168 140 -275q4 41 4 95q0 76 -9 122l9 -8q128 -96 254 -145q-34 -34 -76 -87t-79 -107.5t-60 -94.5q60 -86 113.5 -125t113.5 -39q44 0 92 41q10 10 25 10t24.5 -7.5t9.5 -20.5q0 -32 -47 -70
q-77 -55 -149 -55q-105 0 -219 76q-68 -74 -163.5 -115t-201.5 -41q-96 0 -191.5 36t-164.5 99l8 8q84 -60 167 -88t181 -28q206 0 342 145q-8 6 -39 29q-49 -39 -99 -63.5t-105 -36t-111 -11.5q-143 0 -256 50.5t-176.5 141.5t-63.5 205q0 110 41 191t131 140t236 104z
M614 766q-94 -52 -137 -123t-43 -176q0 -94 53.5 -165.5t145.5 -100.5v-15q-67 11 -117.5 50t-79 99t-28.5 132q0 76 20 133.5t63.5 104t112.5 88.5l-6 12q-9 25 -12 35q-75 -31 -129.5 -83.5t-84.5 -121t-30 -141.5q0 -143 78.5 -233.5t204.5 -90.5q140 0 249 117
q-41 58 -83 130t-85.5 157t-91.5 192zM799 1012q108 55 108 172q0 41 -17 75t-46.5 53t-65.5 19q-51 0 -81.5 -35.5t-30.5 -95.5q0 -51 14 -106t43 -115l51 20q-49 112 -49 185q0 45 22.5 72.5t57.5 27.5q31 0 67 -35l-6 -10l-8 6q-31 17 -47 17q-66 0 -66 -84
q0 -68 54 -166zM1315 563q-51 -51 -101 -117t-63 -96l8 -10q86 -98 156 -98q14 0 37 8v-10q-27 -15 -58 -15q-40 0 -85.5 34.5t-80.5 90.5q79 138 166 230zM1493 154q-21 -66 -82 -109t-131 -43q-36 0 -78.5 15.5t-73.5 39.5v9q65 -39 136 -39q127 0 200 129l4 6z" />
    <glyph glyph-name="quotesingle" unicode="'" horiz-adv-x="393" 
d="M244 1366l-68 -403h-78l-30 403h176zM162 887l-35 20h96l78 418l25 -12l-78 -426h-86z" />
    <glyph glyph-name="parenleft" unicode="(" horiz-adv-x="911" 
d="M737 1509l25 -24v-117q-23 2 -45 2q-126 0 -199 -117q-42 -68 -59 -169.5t-17 -295.5q0 -335 31 -526q10 -69 32 -130.5t48 -90.5q34 -35 133 -51v-88q-218 6 -369 159q-100 106 -143 258.5t-43 405.5q0 136 8 223.5t27 155.5t53 137q44 90 111 154q68 68 145.5 101
t210.5 48v-92q-167 -15 -250 -131q-40 -57 -59 -129.5t-25 -202.5q-4 -138 -4 -182q0 -129 9.5 -266.5t27.5 -239.5q26 -137 121 -231q-46 88 -62 190q-28 194 -28 563q0 209 32 327.5t105 182.5q74 62 162 62h22v114zM762 -78v-112q-145 18 -279 84q-51 25 -74 43t-63 61v4
q59 -57 141 -96t170 -53l80 -13v105z" />
    <glyph glyph-name="parenright" unicode=")" horiz-adv-x="911" 
d="M152 1544q79 -4 164 -39t149 -88q108 -89 165.5 -253t57.5 -390q0 -267 -48 -452t-144 -281q-67 -67 -154.5 -108.5t-189.5 -53.5v94q61 24 86.5 37t54.5 39q48 42 84.5 123.5t56.5 192.5q15 74 23 203t8 311q0 175 -17.5 269.5t-62.5 160.5q-78 118 -233 145v90z
M485 1464q67 -40 104 -77t77 -105q42 -68 68 -144.5t37 -167.5t11 -220q0 -518 -202 -748q-42 -50 -96.5 -88.5t-119 -63.5t-147.5 -40l-16 18q129 26 210.5 67.5t149.5 120.5t110 182t63.5 237.5t21.5 301.5q0 148 -14 253t-47 186.5t-89 151t-139 136.5h18z" />
    <glyph glyph-name="asterisk" unicode="*" horiz-adv-x="717" 
d="M362 1034q-33 -41 -45.5 -83t-17.5 -122l-2 -16l-21 27q6 78 21.5 121.5t52.5 89.5q-5 9 -7 12l-4 6t-7 12q-87 -116 -90 -229l-148 106q77 19 160 111q-26 1 -39.5 2.5t-32.5 1.5t-73 -6l-31 23q22 4 49 4q53 0 131 -19q10 12 13 16t7.5 9t8.5 10q-87 27 -154 27
q-48 0 -92 -13l55 172q56 -85 205 -135v15q0 131 -63 223h182q-34 -44 -50 -98.5t-16 -135.5q16 4 52 19q10 55 24.5 93t38.5 73l6 -37q-35 -58 -61 -125q98 48 147 108l55 -172q-41 17 -92 17q-67 0 -151 -27q81 -114 190 -156l-147 -106q2 8 2 18q0 68 -56 164zM487 1065
q81 -77 177 -102l-175 -140l-30 2l164 129q-56 19 -97 45.5t-96 79.5q36 16 63 21.5t70 5.5q48 0 92 -12l-49 166l29 -17l49 -180q-52 16 -100 16q-51 0 -97 -14z" />
    <glyph glyph-name="plus" unicode="+" horiz-adv-x="1202" 
d="M498 1149h125v-354h55v299l27 -19v-280h264v-125h-346v-336h-125v254h-293l-19 26h312v56h-344v125h344v354zM705 588v-357h-130l-22 23h125v360h348v125l23 -22v-129h-344z" />
    <glyph glyph-name="comma" unicode="," horiz-adv-x="537" 
d="M309 305q18 -41 23.5 -69t5.5 -76q0 -115 -76.5 -203t-218.5 -133l-8 12l10 10q56 45 79 92.5t23 114.5q0 86 -53 148l9 3t5 2t5 1q113 43 196 98zM408 274q16 -58 16 -110q0 -69 -23 -134t-65.5 -118t-99.5 -88q-48 -29 -65.5 -38t-76.5 -32l-14 27l18 8
q85 33 134.5 66.5t82.5 76.5q38 49 60 111t22 115q0 48 -18 131z" />
    <glyph glyph-name="hyphen" unicode="-" horiz-adv-x="643" 
d="M500 772l43 -119h-502l-41 119h500zM643 582h-537l-20 26h520l-47 137l33 -22z" />
    <glyph glyph-name="period" unicode="." horiz-adv-x="547" 
d="M229 326q56 0 93.5 -37.5t37.5 -91.5t-38.5 -92.5t-92.5 -38.5q-53 0 -91 39t-38 92t37 91t92 38zM393 285q34 -31 45 -57.5t11 -71.5q0 -67 -50.5 -118.5t-117.5 -51.5q-49 0 -75.5 12t-55.5 47l6 8q42 -25 64 -32t52 -7q65 0 108.5 44.5t43.5 109.5q0 33 -8.5 55.5
t-30.5 52.5z" />
    <glyph glyph-name="slash" unicode="/" horiz-adv-x="985" 
d="M1030 1536l-983 -1634h-94l983 1634h94zM-29 -158h107l999 1665l19 -20l-1004 -1671h-110z" />
    <glyph glyph-name="zero" unicode="0" horiz-adv-x="1202" 
d="M770 1118q-33 45 -85.5 72t-104.5 27q-63 0 -112 -30.5t-73 -86.5q-25 -62 -40 -167.5t-15 -213.5q0 -167 21 -280.5t66 -177.5t118 -91v-10q-52 9 -106.5 58.5t-78.5 111.5q-22 61 -34.5 166.5t-12.5 220.5q0 131 14.5 230t41.5 163q29 64 84.5 99.5t126.5 35.5
q60 0 116 -32t90 -85zM1063 715q0 -154 -33.5 -276.5t-96.5 -205.5t-155.5 -127.5t-208.5 -44.5q-110 0 -205.5 47t-165.5 135.5t-107.5 207t-37.5 260.5q0 156 35 281t100 212t158.5 133.5t208.5 46.5q112 0 205 -48.5t161 -139.5t105 -212.5t37 -268.5zM864 715
q0 100 -5.5 177.5t-19 138.5t-32.5 104q-31 72 -100 114.5t-156 42.5q-83 0 -144.5 -37t-91.5 -104q-65 -148 -65 -434q0 -116 18.5 -229t48.5 -183q33 -69 103.5 -115.5t142.5 -46.5q88 0 145 39t93 125q31 75 47 176.5t16 231.5zM827 1346q45 -19 70.5 -38t60.5 -57
q98 -98 143.5 -228t45.5 -314q0 -225 -66 -390.5t-191 -252t-296 -86.5q-67 0 -122 13t-105 41t-113 83l8 8q84 -68 157.5 -94.5t176.5 -26.5q111 0 214 50.5t169 135.5q74 100 106.5 221t32.5 300q0 115 -18 210.5t-53 171.5t-91 138t-129 104v11z" />
    <glyph glyph-name="one" unicode="1" horiz-adv-x="1229" 
d="M688 1346v-1160l121 -104h-430l127 104v879q-63 -29 -119 -29q-94 0 -141 74h8q60 -49 133 -49q66 0 119 35v61q-31 -21 -78 -35t-82 -14q-47 0 -82 23t-35 53q0 25 13.5 41t33.5 16q19 0 30 -11t11 -28q0 -10 -2 -14v-8q0 -15 27 -15q44 0 87.5 23t80 63.5t59.5 94.5
h119zM737 1327l27 -12v-1129l162 -186h-512l-23 27h475l-129 151v1149z" />
    <glyph glyph-name="two" unicode="2" horiz-adv-x="1229" 
d="M1047 362v-280h-930q14 66 29.5 105.5t56.5 109.5q56 96 122.5 159.5t188.5 139.5q87 54 119 76.5t67 54.5q134 124 134 315q0 71 -32.5 129t-91.5 90.5t-135 32.5q-114 0 -185 -58.5t-71 -154.5q0 -74 45 -124t111 -50q38 0 64.5 13.5t58.5 46.5l16 -9
q-15 -82 -72.5 -127t-148.5 -45q-105 0 -179.5 73.5t-74.5 178.5q0 98 55 175.5t154 120t225 42.5q121 0 225.5 -51t166 -139.5t61.5 -190.5q0 -118 -77 -215.5t-249 -193.5l-153 -84q-168 -95 -266 -269q-6 -6 -7 -8h64q23 43 67.5 91t100.5 89.5t119 75.5l137 76
q112 62 180.5 124t102.5 135t34 157q0 193 -168 319l4 8q61 -30 104 -80t66 -113t23 -134q0 -135 -79.5 -241t-248.5 -197l-137 -76q-216 -115 -268 -234h313q94 0 157.5 6t97.5 20t53 40.5t30 70.5h21zM1124 326v-326h-911l-18 27h901v299h28zM821 1022q-28 92 -88.5 141
t-146.5 49q-78 0 -128 -44.5t-50 -114.5q0 -35 26 -69t66 -52v-12q-49 9 -83 48t-34 87q0 83 55.5 134.5t145.5 51.5q68 0 121.5 -28.5t84 -78t31.5 -112.5zM676 913q-33 -107 -95.5 -157.5t-162.5 -50.5q-133 0 -201 112h8l11 -10q58 -49 92.5 -64.5t85.5 -15.5
q96 0 157.5 51.5t79.5 143.5z" />
    <glyph glyph-name="three" unicode="3" horiz-adv-x="1229" 
d="M324 520q-15 -54 -15 -117q0 -83 28.5 -144t84 -92.5t131.5 -31.5q136 0 208.5 77t72.5 220q0 145 -79.5 239.5t-201.5 94.5q-31 0 -100 -14l-11 -2l39 108h11q26 -2 61 -2q107 0 173.5 62.5t66.5 162.5q0 64 -34 119t-92.5 87t-127.5 32q-99 0 -162.5 -55.5
t-63.5 -141.5q0 -54 27.5 -88.5t69.5 -34.5q28 0 57 25l14 -8q-16 -40 -55.5 -64t-91.5 -24q-76 0 -130 55t-54 133t55.5 140.5t152 98.5t215.5 36q116 0 209.5 -39t145 -108t51.5 -154q0 -65 -27.5 -118.5t-78 -91t-117.5 -55.5q-23 -7 -23 -14q0 -10 21 -18
q288 -91 288 -373q0 -112 -58 -194t-167 -125.5t-260 -43.5q-195 0 -307.5 87.5t-147.5 267.5l11 2q69 23 111 43.5t100 62.5zM412 498v-13q-13 -91 -13 -106q0 -71 32 -127.5t91 -87.5v-10q-67 18 -108 80t-41 147q0 42 14 108v9h25zM770 602q-82 76 -201 76q-61 0 -94 -14
l-8 26q59 15 102 15q150 0 207 -103h-6zM991 696q76 -74 105.5 -137.5t29.5 -152.5q0 -97 -38 -176.5t-107.5 -136.5t-166 -87.5t-212.5 -30.5q-247 0 -379 138v6l13 -8q84 -59 168.5 -85t193.5 -26q142 0 257 51.5t179 145t64 209.5q0 77 -21 130.5t-86 139.5l-8 12z
M911 1313q61 -15 107.5 -90.5t46.5 -159.5q0 -69 -30.5 -130t-83.5 -103.5t-117 -55.5l-21 19q69 20 119 58.5t78 92.5t28 115q0 74 -25 126.5t-93 119.5q-2 2 -3 2.5t-6 5.5zM766 1104l-10 12q-42 59 -91 87t-112 28q-67 0 -107 -37t-40 -96q0 -33 36 -62q1 0 2 -0.5
t2 -1.5l-12 -16q-26 11 -41.5 34.5t-15.5 47.5q0 69 49 112t127 43q82 0 140 -39t81 -112h-8zM555 969q-30 -51 -79 -80t-103 -29q-32 0 -57 8t-50.5 26t-50.5 46l-6 4v6l8 -6l35 -24q40 -35 119 -35q48 0 92.5 27t68.5 71z" />
    <glyph glyph-name="four" unicode="4" horiz-adv-x="1229" 
d="M664 1346q-8 -49 -34.5 -123.5t-66 -159t-84.5 -166.5q-61 -108 -123 -196.5t-145 -184.5l-6 -6v-25h53l4 7q114 129 169.5 206t117.5 193q104 187 176 420l2 8l21 -14l-5 -13q-33 -113 -74.5 -212t-101.5 -210q-75 -136 -153 -241q-56 -74 -125 -144h354v439q4 2 6 4
q68 43 100 72.5t64 78.5h18v-594h50v555l26 -6v-549h11q80 0 123.5 -29t43.5 -81q0 -30 -19 -51t-48 -21q-27 0 -45.5 14.5t-18.5 34.5q0 19 7 25l8 8q1 2 1.5 3.5t0.5 4.5q0 25 -51 25h-89v-232l117 -104h-428l123 98v158h-555l-20 24h575v56h-588v33l6 6q208 247 312 622
q43 170 43 260v7h248zM1081 453q31 -4 54.5 -34.5t23.5 -68.5q0 -29 -12.5 -53t-34 -36.5t-47.5 -12.5q-32 0 -72 24v13q41 -21 66 -21q33 0 56.5 25.5t23.5 58.5q0 39 -15 55q0 1 -37 43q-2 0 -6 7zM1067 0h-504l-22 27h471l-131 153v174h26v-166z" />
    <glyph glyph-name="five" unicode="5" horiz-adv-x="1229" 
d="M195 1348l524 -2q81 0 127 6t63 21.5t17 45.5q0 11 -8 11q-5 0 -11 -9q-13 -10 -28 -10q-19 0 -32 14t-13 31q0 18 13.5 32.5t33.5 14.5q15 0 35.5 -11t29.5 -24q35 -40 35 -88q0 -98 -84 -143t-268 -45h-344v-340l16 14q38 27 41 29v244h377q139 0 223 59.5t84 159.5
q0 51 -27 106h7l6 -12q35 -63 35 -113q0 -100 -93.5 -163.5t-238.5 -63.5h-346v-205q55 30 94.5 39.5t107.5 9.5q107 0 196 -32.5t152.5 -91.5t98.5 -142t35 -182q0 -107 -33.5 -193.5t-99 -149t-155.5 -94.5t-204 -32q-150 0 -245.5 35.5t-163.5 118.5q-41 48 -56 80
t-26 94l14 6q140 68 219 131q-10 -56 -10 -107q0 -87 24 -143q27 -62 93.5 -99.5t148.5 -37.5q128 0 204.5 107.5t76.5 289.5q0 115 -33.5 194.5t-98.5 120.5t-157 41q-181 0 -293 -172l-63 39v611zM944 858q58 -37 100.5 -96t65.5 -133t23 -154q0 -114 -39 -210
t-112.5 -165.5t-174 -107t-221.5 -37.5q-160 0 -301 84v10q87 -37 148 -50t147 -13q120 0 217 35t164.5 99.5t104 156.5t36.5 202q0 120 -36.5 206t-121.5 165v8zM393 473q-10 -61 -10 -96q0 -79 45 -138t125 -85v-13q-89 15 -144 83.5t-55 164.5q0 37 15 90zM793 659
q-53 71 -109 102.5t-125 31.5q-73 0 -125.5 -29.5t-111.5 -104.5l-23 13q46 69 114 106t148 37q167 0 238 -156h-6z" />
    <glyph glyph-name="six" unicode="6" horiz-adv-x="1229" 
d="M803 1049q0 12 -2 14q-9 131 -61 190.5t-156 59.5q-119 0 -197 -108t-96 -302q-12 -114 -12 -233q0 -251 57 -379q34 -76 96.5 -119t140.5 -43q72 0 131.5 53.5t94.5 146t35 199.5q0 103 -27.5 181.5t-79 121.5t-119.5 43q-186 0 -221 -212q-5 -27 -13.5 -38.5
t-23.5 -11.5q-19 0 -31 17t-12 41q0 81 42 148t115 106t163 39q87 0 158 -31.5t123.5 -91.5t79 -141t26.5 -183q0 -136 -54 -241.5t-153 -163.5t-225 -58q-118 0 -216 52t-161 149q-55 91 -88 212.5t-33 235.5q0 195 66.5 353.5t184 249t259.5 90.5q144 0 245.5 -61
t153.5 -179l-63 -31q-66 -31 -127 -75zM778 1128l-8 5l-41 43q-57 55 -129 55q-43 0 -85 -25t-69 -65q-28 -45 -38.5 -81t-30.5 -153l-2 -8l-27 -33q17 189 80.5 289t169.5 100q64 0 114.5 -35.5t65.5 -91.5zM889 1341q40 -18 85 -55.5t81.5 -82.5t62.5 -97l-131 -51
l-135 -64l-12 21q49 30 118 60t125 48q-16 33 -45.5 71t-68.5 75t-80 67v8zM797 614q-48 93 -92.5 132.5t-102.5 39.5q-54 0 -87.5 -37t-53.5 -118q-12 -52 -31 -74t-49 -22h-8q0 -8 -0.5 -11.5t-1.5 -7.5q0 -42 13.5 -103t35.5 -106q29 -54 68 -85.5t108 -57.5l8 -2v-6
q-73 0 -131.5 47.5t-92.5 132.5t-34 190q0 19 2 37q20 -4 25 -4q27 0 37 9t18 40l10 31q29 92 66.5 132t97.5 40q71 0 127 -54.5t74 -142.5h-6zM987 817q46 -32 80.5 -130t34.5 -191q0 -106 -37 -201t-101.5 -168t-151 -115.5t-181.5 -42.5q-82 0 -144.5 22t-130.5 77l-8 6
v6q88 -49 146 -66.5t129 -17.5q89 0 173.5 41t153.5 117q66 72 95.5 151t29.5 184q0 62 -7.5 109.5t-25 96t-51.5 112.5z" />
    <glyph glyph-name="seven" unicode="7" horiz-adv-x="1229" 
d="M1071 1346q-23 -192 -137 -402l-94 -178q-43 -78 -77.5 -179.5t-47.5 -189.5q-19 -95 -19 -243q0 -41 2 -72h-268q3 66 21 156t45 170q61 175 229 401l125 172q41 56 76 133h-549v-43q0 -104 -34.5 -150.5t-109.5 -46.5q-40 0 -86 29h46q30 -6 43 -6q59 0 85 38.5
t29 127.5l2 76h584l6 12q9 17 12 41h-659v-43q0 -209 -102 -209q-28 0 -50 15t-22 36q0 20 12.5 34.5t30.5 14.5t33 -14q11 -8 18 -8q27 0 27 76v252h829zM1149 1307q-18 -193 -135 -402l-99 -178q-87 -160 -112 -346q-12 -79 -12 -199q0 -84 8 -168l2 -14h-316l-16 27h299
q-8 76 -8 137q0 163 36 313.5t101 265.5l92 168q59 108 89.5 194t45.5 189l2 13h23z" />
    <glyph glyph-name="eight" unicode="8" horiz-adv-x="1229" 
d="M399 793q-131 58 -187 121t-56 151q0 178 217 297q28 15 48 26t40 21q109 59 168 100l30 25q23 16 23 27q-2 3 -4.5 6.5t-5.5 3.5l-15 6q-12 12 -14 16q-8 15 -8 29q0 24 15 41.5t36 17.5q30 0 52 -27t22 -63q0 -45 -44.5 -92.5t-135.5 -99.5l-121 -70
q-61 -35 -101.5 -87.5t-40.5 -98.5q0 -71 55 -122.5t193 -107.5q39 -15 88 -28q115 35 173.5 93.5t58.5 139.5q0 44 -23.5 81t-65.5 59t-91 22q-46 0 -83 -22.5t-53 -61.5q-13 -29 -28 -29q-31 0 -31 50q0 58 51.5 98.5t128.5 40.5q79 0 143 -32.5t101 -89.5t37 -128
q0 -78 -52.5 -139t-175.5 -131l70 -31q100 49 155.5 120t55.5 152q0 59 -13.5 91.5t-70.5 107.5q-1 2 -2.5 4t-5.5 6q117 -72 117 -211q0 -84 -59.5 -162.5t-151.5 -119.5q79 -43 135.5 -102.5t86.5 -131t30 -151.5q0 -109 -60.5 -194t-171 -132t-248.5 -47q-151 0 -275 49
t-193.5 136t-69.5 196q0 122 72 208t237 160zM596 705q-262 -101 -262 -279q0 -154 135 -266v-8q-76 44 -118 116.5t-42 159.5q0 61 31 117t88.5 98.5t138.5 71.5l-98 33q-120 -60 -173.5 -137.5t-53.5 -190.5q0 -141 107.5 -228.5t281.5 -87.5q89 0 156.5 30.5t105 87.5
t37.5 130q0 119 -73 199t-241 147zM770 1667q31 -26 42 -48t11 -52q0 -101 -143 -189l-8 -6h-41q90 53 128 97t38 96q0 42 -37 94zM1004 700q68 -33 114.5 -116.5t46.5 -175.5q0 -134 -66.5 -236.5t-190.5 -158.5t-285 -56q-127 0 -215 29t-164 94v6l16 -10
q76 -51 157.5 -71.5t200.5 -20.5q157 0 275 52t182 148.5t64 221.5q0 127 -78 225l-47 57zM856 1143q-58 61 -125 61q-79 0 -121 -61h-14q44 86 135 86t133 -86h-8zM496 1255q-56 -38 -77.5 -68.5t-21.5 -72.5q0 -67 49 -106l-6 -7q-67 55 -67 125q0 31 11.5 55.5t37.5 49
t74 55.5v-31z" />
    <glyph glyph-name="nine" unicode="9" horiz-adv-x="1229" 
d="M825 561q-56 -65 -143 -103t-182 -38q-84 0 -164 37.5t-121 97.5l2 6q37 -54 112.5 -84.5t166.5 -30.5q107 0 194.5 45t145.5 130q6 63 6 149q0 114 -10 190t-33 140q-30 86 -105 142t-159 56q-76 0 -133 -42.5t-87 -123t-30 -184.5q0 -157 70 -247.5t194 -90.5
q86 0 142.5 45.5t72.5 126.5l8 41q5 23 25 23q32 0 32 -53q0 -77 -43.5 -143.5t-118 -106t-163.5 -39.5q-118 0 -210.5 50t-143 141t-50.5 210q0 128 58.5 234.5t158.5 168.5t218 62q107 0 200.5 -45.5t158.5 -128t101.5 -201t36.5 -254.5q0 -184 -62.5 -346.5
t-173.5 -287.5t-258 -195t-307 -70q-61 0 -61 31q0 15 10 23.5t33 9.5q35 4 89.5 17.5t90.5 27.5q96 35 187 115t143 174q21 40 41 91.5t34 105t27 124.5zM774 1100q-96 117 -209 117q-90 0 -139 -73t-49 -208q0 -117 44 -198t122 -105v-8q-59 10 -103 51.5t-68 108
t-24 151.5q0 146 56 226.5t159 80.5q66 0 123.5 -39.5t87.5 -103.5zM836 1311q92 -50 156.5 -132.5t97 -192t32.5 -245.5q0 -160 -43.5 -308t-128.5 -271t-209 -219q-228 -176 -495 -176h-15l-8 24q148 6 270 47.5t230 124.5q82 64 150 147.5t117 178t75 196.5
q31 121 31 252q-2 197 -67.5 340.5t-192.5 222.5v11z" />
    <glyph glyph-name="colon" unicode=":" horiz-adv-x="547" 
d="M227 1063q56 0 93.5 -37.5t37.5 -91.5t-38.5 -92.5t-92.5 -38.5q-53 0 -91 39t-38 92t37 91t92 38zM391 1022q33 -30 44 -55.5t11 -73.5q0 -67 -49.5 -118.5t-117.5 -51.5q-49 0 -75 11.5t-57 47.5l7 9q42 -25 64 -32t52 -7q64 0 108 44t44 109q0 33 -8 55.5t-31 53.5z
M227 326q56 0 93.5 -37.5t37.5 -91.5t-38.5 -92.5t-92.5 -38.5q-53 0 -91 39t-38 92t37 91t92 38zM391 285q33 -30 44 -55.5t11 -73.5q0 -67 -49.5 -118.5t-117.5 -51.5q-49 0 -75 11.5t-57 47.5l7 8q42 -25 64 -32t52 -7q65 0 108.5 44.5t43.5 109.5q0 33 -8.5 55.5
t-30.5 52.5z" />
    <glyph glyph-name="semicolon" unicode=";" horiz-adv-x="537" 
d="M309 305q18 -41 23.5 -69t5.5 -76q0 -115 -76.5 -203t-218.5 -133l-8 12l10 10q56 45 79 92.5t23 114.5q0 86 -53 148l9 3t5 2t5 1q113 43 196 98zM408 274q16 -58 16 -110q0 -69 -23 -134t-65.5 -118t-99.5 -88q-48 -29 -65.5 -38t-76.5 -32l-14 27l18 8
q85 33 134.5 66.5t82.5 76.5q38 49 60 111t22 115q0 48 -18 131zM223 1065q56 0 93.5 -37.5t37.5 -93.5q0 -53 -38 -91t-93 -38q-54 0 -91.5 38.5t-37.5 90.5q0 54 37.5 92.5t91.5 38.5zM387 1022q32 -28 43.5 -53.5t11.5 -73.5q0 -66 -51 -118t-117 -52q-48 0 -74 11.5
t-57 47.5l7 7q45 -25 65.5 -31t50.5 -6q64 0 108 43t44 108q0 32 -8.5 54.5t-30.5 56.5z" />
    <glyph glyph-name="less" unicode="&#x3c;" 
d="M940 1274v-100l-584 -375l584 -391v-269l-856 578v14z" />
    <glyph glyph-name="equal" unicode="=" horiz-adv-x="1202" 
d="M969 965v-125h-815v125h815zM1026 909l23 -22v-129h-844l-19 26h840v125zM969 623v-125h-815v125h815zM1026 567l23 -22v-129h-844l-19 28h840v123z" />
    <glyph glyph-name="greater" unicode="&#x3e;" 
d="M84 139v101l582 374l-582 392v268l856 -578v-14z" />
    <glyph glyph-name="question" unicode="?" horiz-adv-x="889" 
d="M109 858q-44 51 -59 89.5t-15 96.5q0 85 45.5 149.5t128 101t186.5 36.5q106 0 194.5 -40.5t138.5 -112t50 -158.5q0 -92 -45.5 -162t-157.5 -145l-106 -70q-57 -38 -94 -91.5t-37 -96.5v-6l2 -35v-4q0 -37 -33 -37q-22 0 -40.5 34t-18.5 72q0 139 151 293
q103 103 136.5 161t33.5 128q0 56 -22 99.5t-62.5 67t-95.5 23.5q-69 0 -119.5 -43t-50.5 -104q0 -34 18.5 -60.5t63.5 -54.5l-10 -6l-55 -31q-67 -39 -127 -94zM717 1272q69 -51 107 -122.5t38 -152.5q0 -162 -137 -274q-12 -10 -36 -28t-111 -85l-58 -41
q-56 -40 -79 -72.5t-23 -70.5q0 -19 5 -34.5t23 -47.5l-36 10q-13 27 -16 38.5t-3 33.5q0 34 15.5 65.5t51.5 64t101 77.5q104 71 158.5 121.5t81.5 99.5q41 74 41 143q0 85 -33.5 154.5t-97.5 110.5zM424 973l-21 -12q-73 -43 -129.5 -78.5t-93.5 -65.5l-8 -6l-18 23l10 8
q141 95 209 131q-82 50 -82 135q0 42 33 70t82 28q94 0 143 -108h-8q-60 82 -138 82q-38 0 -63 -22t-25 -56q0 -83 109 -129zM399 326q56 0 93.5 -37.5t37.5 -91.5t-38.5 -92.5t-92.5 -38.5q-53 0 -91 39t-38 92t37 91t92 38zM563 285q33 -30 44 -55.5t11 -73.5
q0 -67 -49.5 -118.5t-117.5 -51.5q-49 0 -75 11.5t-57 47.5l7 8q42 -25 64 -32t52 -7q65 0 108.5 44.5t43.5 109.5q0 33 -8.5 55.5t-30.5 52.5z" />
    <glyph glyph-name="at" unicode="@" horiz-adv-x="1475" 
d="M844 393q-60 -57 -102 -76.5t-103 -19.5q-94 0 -160 76v4q64 -55 162 -55q54 0 92 18t88 68l17 14q37 -57 70 -77.5t93 -20.5q76 0 146.5 41t123.5 112.5t84 166.5t31 198q0 170 -83.5 296t-239.5 191l2 12q112 -38 192 -111.5t120 -176.5t40 -228q0 -136 -57 -259
t-151.5 -198t-198.5 -75q-59 0 -94.5 21.5t-71.5 78.5zM377 111l2 8q70 -62 152 -88.5t204 -26.5q117 0 228.5 33t181.5 88q16 14 63 61l19 -14q-46 -61 -118.5 -103.5t-169.5 -65.5t-204 -23q-115 0 -196.5 29t-161.5 102zM807 997q-20 21 -41 21q-50 0 -88.5 -46
t-60 -128.5t-21.5 -192.5q0 -164 61 -200l-2 -7q-84 23 -84 218q0 107 24 194.5t69 134.5t102 47q28 0 49 -32zM1063 1075l22 -26l-55 -428q-2 -19 -2 -48q0 -30 2 -42.5t8 -24t23 -29.5q52 27 91 82t60 130t21 165q0 97 -38.5 183.5t-107 149.5t-161.5 98.5t-199 35.5
q-147 0 -277 -86t-207 -230.5t-77 -308.5q0 -156 71.5 -286t195 -204.5t272.5 -74.5q209 0 387 125q31 23 49 23q20 0 20 -23q0 -34 -82 -82q-55 -35 -116.5 -59t-129 -36.5t-137.5 -12.5q-136 0 -255.5 50t-208 140.5t-137 212t-48.5 264.5q0 169 94 320t250.5 242
t329.5 91q130 0 240.5 -40.5t190.5 -113t124.5 -172.5t44.5 -216q0 -89 -28 -173t-75.5 -148t-109.5 -101t-127 -37t-102 35t-41 102q-47 -76 -98 -109.5t-119 -33.5q-74 0 -131.5 38.5t-88 109t-30.5 163.5q0 117 50 220t135.5 163t184.5 60q42 0 60.5 -4t77.5 -27
q48 -17 63 -17q26 0 57 17l13 -8l-62 -494q0 -19 -0.5 -26.5t-1.5 -16.5q0 -40 18.5 -65t47.5 -25q3 0 33 4q-48 36 -48 102q0 12 7 50zM831 713l19 147v21q0 91 -34 144.5t-91 53.5q-92 0 -149.5 -116t-57.5 -299q0 -72 15.5 -124t43.5 -80t68 -28q73 0 122 73.5t64 207.5z
M1008 1204l-21 4q-63 19 -109 26t-102 7q-149 0 -268 -75t-188.5 -207.5t-69.5 -292.5q0 -154 72 -277t196 -180l-8 -10q-73 34 -127.5 79.5t-91 104t-53.5 129.5t-17 154q0 128 42 238.5t117.5 191t179 125.5t218.5 45q72 0 136 -17t94 -45z" />
    <glyph glyph-name="A" unicode="A" horiz-adv-x="1550" 
d="M967 1366l-103 -119l162 -436l41 23l-147 393l104 123l27 -11l-101 -118l140 -373l47 39q12 8 22 18l17 17q22 -105 79 -205q-20 2 -43 2q-93 0 -139 -31l182 -489l150 -117h-504l137 117l-110 290q-36 -35 -90 -101.5t-80 -108.5l-23 6q34 57 70.5 102.5t105.5 116.5
l9 10l-19 45q-50 -40 -107.5 -107t-91.5 -124l-18 30q-54 87 -133 189l-8 12q-78 -175 -78 -287q0 -39 8.5 -68.5t35.5 -68.5t81 -106q2 -2 8.5 -11.5t13.5 -17.5h-540l-21 27h510l-18 22q-66 81 -86.5 124.5t-20.5 100.5q0 58 19.5 126.5t64.5 181.5l-45 45
q-12 -32 -33 -95l-32 -100q-27 -81 -27 -137q0 -38 7.5 -65.5t28 -55.5t64.5 -74q1 -2 17 -18h-500q81 44 127.5 83t87.5 99q89 139 139 287q10 24 37 117l4 12q-50 45 -151 55q55 88 84 172l61 -59q42 -34 55 -43l19 43l-12 10l-43 37q-15 13 -41 35l-9 6l17 22
q49 -31 100 -81l137 374l-106 115h461zM719 1044l-109 -290l11 -13l41 -45q31 -36 83 -112l11 -15q34 44 100 107zM674 1159l-158 -420q88 -93 131 -153l55 -78l35 43q-66 103 -162 194l127 338zM1264 874q20 -89 110 -247q-12 2 -26 2q-6 2 -80 8q-74 4 -80 4h-21l166 -442
l223 -199h-577l-21 27h531l-178 159l-178 471q30 9 77 9q51 0 103 -7l16 -2q-47 89 -65.5 132.5t-30.5 103.5z" />
    <glyph glyph-name="B" unicode="B" horiz-adv-x="1325" 
d="M68 1229q234 157 534 157q140 0 251.5 -44t172.5 -123.5t61 -178.5t-59.5 -168t-175.5 -104v-12q25 -5 59 -17q75 18 128 60t81.5 104.5t28.5 136.5q0 142 -117 250v6q81 -60 111.5 -113.5t30.5 -138.5q0 -79 -24 -140.5t-74.5 -105t-127.5 -73.5q96 -43 151.5 -126
t55.5 -189q0 -98 -49 -172.5t-138 -115t-210 -40.5h-715l137 119v432q-61 0 -137 -12l-8 28q70 7 145 10v54h-24q-81 -2 -119 -6q-5 0 -10.5 -0.5t-12.5 -1.5l43 96l17 -2q24 -2 59 -2q18 0 25 -0.5t14 -1.5h8v374zM381 1245v-450l33 -2l16 2v407q50 24 84.5 32.5t83.5 8.5
q95 0 149 -34t93 -117l-29 16q-73 113 -213 113q-48 0 -74.5 -7.5t-66.5 -35.5v-383q22 -2 43 -2q172 0 260 47q53 28 86 86t33 125q0 115 -78 186.5t-205 71.5q-108 0 -215 -64zM381 711v-551h49v491q49 4 105 4q164 0 238 -30.5t118 -116.5h-12q-49 69 -122.5 95
t-219.5 26q-41 0 -80 -2v-467h32q113 0 181 9.5t118 33.5q130 59 130 243q0 84 -38.5 149t-101.5 87q-50 19 -119.5 26t-193.5 7q-6 0 -84 -4zM1128 641q31 -23 57 -62.5t39 -87t13 -92.5q0 -124 -54.5 -214.5t-158 -137.5t-248.5 -47h-680l-16 27h631q139 0 215.5 16.5
t138.5 60.5q145 102 145 293q0 71 -21.5 125t-70.5 111z" />
    <glyph glyph-name="C" unicode="C" horiz-adv-x="1192" 
d="M1092 1335l-13 -20q-32 -56 -58.5 -106.5t-46.5 -93.5t-50 -114l-9 -22l-12 6q-17 101 -59.5 175.5t-107.5 114.5t-144 40q-44 0 -86.5 -16.5t-81 -48t-62.5 -70.5q-32 -55 -50.5 -116.5t-28 -144t-9.5 -184.5q0 -137 25 -250.5t73 -193t117.5 -120t155.5 -40.5
q94 0 162.5 41t109 121t52.5 199q3 40 30 40q41 0 41 -65q0 -49 -16.5 -117t-38.5 -108q-46 -93 -143.5 -144t-227.5 -51t-234.5 46.5t-179 135.5t-114 215t-39.5 279q0 190 72.5 344t199.5 243t281 89q79 0 120 -9.5t136 -46.5q74 -28 119 -28q54 0 100 28zM801 1161
q-56 45 -90 59.5t-82 14.5q-127 0 -193.5 -126.5t-66.5 -367.5q0 -224 61 -374t170 -195v-10q-59 13 -106.5 58t-83 123.5t-53 177.5t-17.5 220q0 127 19 225t55 162.5t88.5 98t122.5 33.5q55 0 92.5 -19t83.5 -67v-13zM1126 475q-7 -119 -32.5 -200.5t-77.5 -145.5
q-63 -76 -159.5 -119t-211.5 -43q-86 0 -160 24.5t-149 78.5v8q131 -84 307 -84q108 0 199 41t151 117q51 61 72.5 131t30.5 182l2 22zM1163 1286l-10 -18q-110 -187 -174 -340l-27 14l99 199l90 159z" />
    <glyph glyph-name="D" unicode="D" horiz-adv-x="1249" 
d="M72 1366h393q186 0 300 -39.5t191 -132.5q49 -57 81 -126t47.5 -151t15.5 -178q0 -232 -78 -386.5t-229 -219.5q-48 -21 -92 -32t-97.5 -15t-136.5 -4h-426l137 104v1063zM375 1280v-1122h55v1056q53 9 94 9q80 0 129.5 -17t96.5 -61q-108 51 -228 51q-3 0 -67 -4v-1034
h16q85 0 138.5 15t99.5 52q84 69 128 202.5t44 315.5q0 121 -21.5 215t-63 162.5t-98.5 102.5q-93 57 -276 57h-47zM102 0l-14 27h367q234 0 360 53q350 142 350 641q0 150 -22.5 239.5t-81.5 176.5q-7 10 -31 41l-41 43l-10 14q65 -40 108 -105q57 -84 80 -174.5t23 -228.5
q0 -172 -40.5 -307.5t-120 -228t-193.5 -136.5q-78 -29 -165.5 -42t-215.5 -13h-353z" />
    <glyph glyph-name="E" unicode="E" horiz-adv-x="1274" 
d="M1124 1366l-16 -20q-63 -76 -93.5 -129.5t-68.5 -157.5q-14 32 -14 33q-40 84 -76 123t-95 53t-173 14q-99 0 -180 -4v-461h63v408q68 6 145 6q87 0 139.5 -11t88 -39t67.5 -81q-10 6 -20 16q-53 41 -55 41q-36 27 -78 37q-47 8 -129 8q-35 0 -111 -4h-20v-381h182
l129 178v-430l-129 166h-272v-561h63v514h217l27 -27h-217v-487h14q143 0 236 16q53 12 99.5 45.5t74.5 81.5l53 90l12 23q16 -73 38 -125.5t58 -99.5t97 -105h-1121l152 115v446q-51 -5 -83 -16t-69 -35l-14 21q32 25 67 37t99 20v47q-6 1 -11 1.5t-10 0.5q-49 0 -99.5 -20
t-90.5 -56q25 86 73 122t138 38v428l-152 121h1065zM1174 1296l-9 -10q-81 -110 -108 -155.5t-53 -118.5l-19 20q39 88 76 149t98 136zM879 963v-443l-25 12v443zM1294 90l-53 -90h-1091l-17 27h1094l35 63q-77 71 -122 134.5t-81 150.5l33 -13q34 -80 69 -128t117 -128z
" />
    <glyph glyph-name="F" unicode="F" horiz-adv-x="1128" 
d="M63 1366h1039q-58 -76 -85 -123.5t-73 -157.5l-6 -20q-65 131 -128 173t-196 42h-180h-37v-465h62v412l28 2q39 2 115 2q124 0 184.5 -23t87.5 -84q-46 48 -104 64t-178 16q-55 0 -109 -4v-385h152l160 168v-418l-168 166h-230v-506l129 -129h-491l164 129v432
q-45 -1 -74.5 -14t-61.5 -45l-18 20q27 31 64.5 48.5t80.5 17.5h9v47q-8 1 -15 1.5t-16 0.5q-95 0 -160 -76l-8 15q25 68 71.5 101.5t127.5 41.5v422zM1178 1305q-70 -81 -116.5 -162t-64.5 -146l-20 15q17 74 65 155.5t117 153.5zM868 948v-432l-26 14v433zM688 645h-205
v-428l176 -217h-579l-25 27h549l-145 180v465h200z" />
    <glyph glyph-name="G" unicode="G" horiz-adv-x="1397" 
d="M1171 1331l-186 -368q-18 157 -99 240t-212 83q-125 0 -214.5 -65.5t-136.5 -190.5t-47 -299q0 -297 116 -438t358 -141h161v518h-252q-82 0 -116.5 9t-69.5 38v26q38 -27 73 -36t116 -9h249v56h-323q-68 0 -109 29.5t-41 78.5q0 41 25 71t61 30q27 0 46.5 -18.5
t19.5 -45.5q0 -18 -10.5 -33t-22.5 -18l-25 -4q-10 -3 -10 -8q0 -15 31 -15h694l-137 -137v-491l129 -111h-612q-95 0 -135 8t-109 41q-126 60 -209 172q-65 90 -96 193.5t-31 232.5q0 140 43.5 257.5t125.5 204.5t193.5 134t245.5 47q84 0 211 -37q73 -21 92 -24
q47 -13 84 -13q61 0 129 33zM1231 1268l-170 -336l-25 10l172 338zM911 1116l-18 12q-67 48 -110.5 65t-98.5 17q-100 0 -178.5 -66t-104.5 -171q-26 -113 -26 -254q0 -101 9 -177t30.5 -134.5t55.5 -102t91 -92.5v-10q-57 34 -95 75.5t-60 90.5q-62 143 -62 368
q0 88 11.5 161.5t35 129t62.5 102.5q90 107 219 107q82 0 137.5 -27.5t101.5 -89.5v-4zM1292 764l-104 -105v-469l168 -190h-756q-63 0 -96 10t-86 47h22q70 -28 187 -28h671l-137 151v490l115 116z" />
    <glyph glyph-name="H" unicode="H" horiz-adv-x="1286" 
d="M63 1366h472l-138 -133v-432q18 -3 56 -6v428l108 106l21 -16l-105 -103v-417l35 -2q61 -7 150 -7q110 0 178 9v460l-123 113h463l-140 -133v-1043l123 -108h-461l138 117v424q-78 -19 -174 -19q-95 0 -174 8h-15v-422l166 -190h-518l-25 27h488l-135 149v461l28 -2
q137 -10 176 -10q74 0 104.5 4t78.5 20v37q-43 -6 -101 -10t-133 -4q-42 0 -84 4l-125 10v-496l129 -108h-463l136 117v438q-87 -3 -136 -68l-20 11q56 71 156 82v36h-9q-34 0 -65 -10t-58.5 -30t-46.5 -46l-14 11q35 83 77 120t116 50v450zM1221 1309l-101 -99v-1020
l166 -190h-520l-25 27h488l-135 151v1043l110 108z" />
    <glyph glyph-name="I" unicode="I" horiz-adv-x="627" 
d="M41 1366h475l-135 -137v-1041l127 -106h-467l139 115v1044zM561 1309l-102 -101v-1020l168 -188h-521l-24 27h485l-137 151v1039l113 112z" />
    <glyph glyph-name="J" unicode="J" horiz-adv-x="1051" 
d="M956 1364l-135 -135v-774q0 -38 11.5 -62t39.5 -41q-7 -85 -62.5 -152.5t-146.5 -105t-204 -37.5q-315 0 -406 246l-14 39q-9 29 -23 39t-57 18l299 222q-16 -102 -16 -199q0 -137 55 -216t149 -79q84 0 129.5 73.5t45.5 213.5v827l-136 123h471zM997 1309l-98 -101v-770
q0 -38 15.5 -63.5t54.5 -48.5q-18 -101 -89.5 -182t-181.5 -128t-233 -47q-188 0 -311 115v8q77 -57 142 -78.5t163 -21.5q117 0 218.5 42t170.5 116t90 165q-32 27 -45 44.5t-17 44t-4 79.5v738l111 108zM352 598l-2 -12q-20 -121 -20 -166q0 -194 145 -262h-16
q-156 45 -156 258q0 88 23 182h26z" />
    <glyph glyph-name="K" unicode="K" horiz-adv-x="1386" 
d="M49 1366h467l-137 -133v-604l53 63v533l113 108l14 -20l-102 -101v-489l309 371q68 81 68 143q0 26 -17.5 50.5t-46.5 43t-65 25.5v10h526v-10q-54 -13 -91 -31.5t-96 -64.5q-62 -49 -92.5 -79.5t-93.5 -107.5l-139 -166l368 -717l168 -108h-518l131 98l-247 496
l-164 -199v-287l164 -190h-512l-27 27h477l-127 153v309l174 216l-22 45l-205 -248v-312l121 -108h-459l137 117v1048zM1282 1274q-78 -4 -147 -44t-150 -128l-174 -195l352 -717l285 -190h-637l-29 27h580l-213 145l-367 735l187 209q77 88 146.5 129t154.5 49z" />
    <glyph glyph-name="L" unicode="L" horiz-adv-x="1120" 
d="M41 1366h477l-141 -137v-1069l53 -4v1063l109 108l14 -22l-96 -99v-1050q74 -4 84 -4q160 0 241.5 70.5t108.5 232.5q8 -20 17 -45t19 -49t22.5 -51.5t25.5 -55.5q28 -57 42.5 -83.5t28.5 -45t39 -43.5h-1044l137 113v1044zM1182 90l-43 -90h-1045l-24 27h1056l29 63
q-62 75 -99 140t-75 161l-4 10l31 -12l8 -16q40 -89 71 -141t89 -132z" />
    <glyph glyph-name="M" unicode="M" horiz-adv-x="1659" 
d="M1548 1288l-112 -82v-1007l174 -199h-533l-12 27h483l-139 157v1039l119 82zM416 403v566l-56 159v-718q0 -115 13 -174.5t46.5 -90.5t102.5 -51h15l73 -94h-522l-18 27h491l-47 55h-436l20 10q76 41 115 80.5t53.5 94t14.5 147.5v827l-131 125h516l-146 -131l283 -838
l37 86l-256 744l131 96l20 -16l-125 -88l240 -699l256 715l-121 131h506l-137 -139v-1028l123 -117h-459l139 117v673l-317 -872h-97l-8 27h88l334 929v154l-373 -1028h-69l-275 807v-481q0 -84 8 -135t27 -87.5t53 -70.5l7 -6q-48 17 -73.5 51.5t-35.5 91t-10 151.5z" />
    <glyph glyph-name="N" unicode="N" horiz-adv-x="1327" 
d="M1268 1290l-19 -28q-53 -12 -80.5 -36.5t-39 -69.5t-11.5 -124v-1032h-215l-14 27h203v995q0 96 14.5 149.5t53 80.5t108.5 38zM233 872v381l-133 113h506l-143 -96l485 -944v120l-416 807l142 97l16 -19l-123 -84l381 -747v520q0 98 -6 148.5t-22 84t-51.5 60.5
t-90.5 53h455q-85 -44 -125.5 -84t-56 -97.5t-15.5 -156.5v-946h-170l-471 915v-587q0 -75 11 -129t33 -91.5t59 -72.5l6 -6q-50 17 -79.5 52.5t-43.5 96.5t-14 146v641l-54 106v-578q0 -143 5 -212.5t18 -108.5t43 -78q32 -37 56 -51t83 -33l88 -92h-543l-14 27h500l-51 55
h-467q120 43 155 111q27 49 37 101t10 159v419z" />
    <glyph glyph-name="O" unicode="O" horiz-adv-x="1303" 
d="M823 1157q-68 39 -108 52.5t-90 13.5q-136 0 -204.5 -134t-68.5 -401q0 -190 42.5 -320t125.5 -194l-8 -10q-54 39 -90.5 86t-58.5 107t-33 142t-11 193q0 277 76.5 416t227.5 139q64 0 117.5 -24t82.5 -66zM1151 715q0 -153 -36.5 -275.5t-109 -212t-173 -135
t-224.5 -45.5q-166 0 -298.5 86t-205.5 239.5t-73 348.5q0 153 39.5 279t115 215.5t180 136.5t236.5 47q122 0 223.5 -48.5t174.5 -139t112 -217.5t39 -279zM924 743q0 262 -64 406q-35 74 -105.5 118t-152.5 44q-348 0 -348 -613q0 -565 342 -565q172 0 258 178
q39 87 54.5 181.5t15.5 250.5zM930 1346q74 -36 134 -98.5t100.5 -146t62.5 -187t22 -226.5q0 -156 -44 -289t-126.5 -230.5t-195 -149.5t-244.5 -52q-172 0 -330 117v6q61 -43 146.5 -67.5t175.5 -24.5q127 0 236.5 51.5t188 142.5t122 218t43.5 278q0 112 -20 213
t-56 182.5t-92.5 147t-122.5 104.5v11z" />
    <glyph glyph-name="P" unicode="P" horiz-adv-x="1210" 
d="M96 1366h449q120 0 206 -12t147.5 -39t109.5 -72q98 -95 98 -239q0 -89 -43 -158t-122.5 -111t-186.5 -49q-88 -7 -172 -10h-37h-123v-483l123 -111h-465l139 117v401q-21 0 -76 -9t-80 -22l-8 19q67 39 119 39h45v49q-14 2 -33 2q-59 0 -98.5 -12t-71.5 -39l-10 14
q64 113 197 113h16v489zM422 1262v-502h53v446h109q128 0 181 -22t89 -94q-36 52 -92.5 72t-155.5 20h-104v-422h14q369 0 369 241q0 92 -41.5 154t-120.5 88q-31 11 -73 17t-113 6q-60 0 -93 -2zM1055 1257q60 -27 97.5 -101t37.5 -163q0 -143 -67 -234.5t-199 -129.5
q-36 -9 -65 -14.5t-65 -9t-96.5 -5.5t-109.5 -2q-53 0 -86 2v-414l157 -186h-501l-27 27h471l-127 149v451q79 -6 178 -6q175 0 289.5 39.5t169.5 122t55 208.5q0 80 -23.5 135t-88.5 131z" />
    <glyph glyph-name="Q" unicode="Q" horiz-adv-x="1313" 
d="M782 1190q-6 2 -14 6q-47 22 -70.5 28.5t-64.5 6.5q-75 0 -129 -34t-88 -105t-50 -180.5t-16 -268.5q0 -186 49.5 -301.5t153.5 -177.5h-10q-76 25 -128 99.5t-73 187.5q-16 92 -16 213q0 310 69.5 448.5t225.5 138.5q93 0 161 -55v-6zM909 164q41 -40 97.5 -65
t109.5 -25q30 0 43 1t34 5.5t40.5 12.5t42.5 18l8 -5q-54 -75 -78 -118l-73 -133l-5 -7q-163 28 -286 177q-106 -50 -207 -50q-75 0 -148 25t-118 63l4 9q70 -34 129.5 -51t118.5 -17q113 0 202 41q-2 4 -6 8q-10 19 -26 35q-62 -22 -97.5 -28.5t-95.5 -6.5
q-153 0 -280.5 88t-199 242.5t-71.5 343.5q0 148 40.5 272t116 211.5t179.5 134t233 46.5q115 0 213.5 -48.5t169 -136t108.5 -207.5t38 -268q0 -54 -8 -116t-22 -116.5t-32.5 -99.5t-44.5 -86q-38 -57 -120 -139zM856 315q70 144 70 424q0 129 -15.5 224.5t-46.5 164.5
q-24 54 -65 95t-94.5 63.5t-108.5 22.5q-165 0 -250.5 -147.5t-85.5 -436.5q0 -90 8 -168t27 -141t47 -113q42 -79 110.5 -123.5t147.5 -44.5q42 0 65.5 5t63.5 24q-25 48 -68.5 79t-89.5 31q-10 0 -22 -2l69 86q73 -22 179 -104l10 -8l5 5l3 3q2 2 6.5 8.5t14.5 20.5l6 6
q-40 40 -75 60.5t-101 43.5l14 23q93 -36 164 -92zM938 1317q68 -28 124 -84t95.5 -132t61.5 -171t22 -205q0 -318 -186 -547q56 -51 176 -59v-6q-44 -7 -51 -7q-94 0 -166 66q64 65 108.5 152.5t67 190t22.5 214.5q0 102 -16.5 187t-49 154t-84.5 130t-124 111v6zM1360 59
q-83 -106 -154 -239l-6 -10l-24 12q33 65 77 131l82 121z" />
    <glyph glyph-name="R" unicode="R" horiz-adv-x="1300" 
d="M88 1245q147 85 244 111t266 26q109 0 197 -24t153.5 -68t101 -103t35.5 -132q0 -75 -40 -142t-114.5 -115.5t-180.5 -76.5q36 -98 81.5 -187.5t106 -182t120 -161.5t116.5 -116l-15 -4q-142 -48 -293 -146l-14 -8l-4 31q-22 133 -48.5 244t-68.5 239q-35 108 -63 174
l-4 10q-79 -37 -185 -51l-8 -2v-375l176 -186h-516l-16 27h475l-144 153v404l19 2q117 13 192 45l-22 57q-71 -20 -113 -24l-131 -17v-446l113 -119h-441l130 119v336q-14 -3 -34 -7.5t-28 -7.5q-12 -4 -28 -9.5t-23 -6.5l-8 -2l-9 20q49 19 68 23l62 14v53q-60 -2 -148 -26
l-10 -4q1 4 1.5 7t0.5 5q0 3 18 53q0 -2 15 45q0 4 2 8q23 -1 39 -2t30 -2q10 0 52 4l-3 492q-45 30 -94 47zM391 1270v-539h8q14 0 47 6v492q56 14 132 14q69 0 118.5 -12.5t85.5 -41.5t60 -73q-73 60 -129 82.5t-135 22.5q-59 0 -107 -13v-471h10q135 24 221.5 67.5
t127 107.5t40.5 153q0 66 -40.5 123.5t-110 90t-152.5 32.5q-102 0 -176 -41zM874 670q22 -70 62 -150.5t90.5 -156.5t106.5 -138q94 -103 217 -178q-122 -32 -221.5 -75t-208.5 -111l-9 -6l-20 16q55 36 127.5 73t142 64.5t137.5 46.5q-70 47 -128.5 100.5t-109 119.5
t-106.5 161q-27 46 -40.5 71.5t-30.5 66t-37 94.5l-8 16q79 32 113.5 50.5t66.5 45.5q127 103 127 267q0 52 -17.5 97t-62.5 109q102 -88 102 -245q0 -106 -76 -193.5t-217 -144.5z" />
    <glyph glyph-name="S" unicode="S" horiz-adv-x="1137" 
d="M979 1354q-15 -22 -28 -40t-18 -27t-15 -30.5t-21 -48.5q-62 -151 -82 -184q-1 0 -4 -6q-4 12 -6 16q-27 86 -43.5 121.5t-39.5 58.5t-69 50q-72 43 -147 43q-76 0 -134.5 -26t-91 -74t-32.5 -107q0 -58 26.5 -102t85 -77t142.5 -53l168 -39q124 -29 198 -77t117 -125
q45 -78 45 -178q0 -113 -56.5 -201t-159 -137.5t-230.5 -49.5q-101 0 -238 35l-115 29q-75 16 -112 16q-43 0 -68.5 -8t-62.5 -31l-8 15q46 69 101 179.5t73 176.5l18 -6q21 -158 125.5 -244t275.5 -86q83 0 150 27t104 76.5t37 113.5q0 72 -34.5 131t-98.5 95
q-51 30 -108.5 47.5t-192.5 42.5q-88 18 -148 41t-99 56t-66 81q-45 82 -45 182q0 107 52 187.5t148 124.5t220 44q63 0 123 -10t139 -33q71 -18 108 -18q48 0 107 33zM1042 1313l-10 -17q-35 -58 -69 -131q-30 -60 -56 -115t-28 -57l-25 11l88 180l74 141zM750 1112
q-111 117 -236 117q-77 0 -126.5 -44.5t-49.5 -111.5q0 -41 20.5 -73.5t79.5 -77.5l8 -7l-4 -6q-133 58 -133 170q0 79 56.5 127.5t146.5 48.5q87 0 151 -36.5t93 -102.5zM979 715q137 -104 137 -283q0 -94 -39 -177.5t-109 -145.5t-164.5 -97t-197.5 -35q-94 0 -194 21
l-160 41q-55 12 -119 12q-56 0 -104 -22l-13 30q27 13 50 18t57 5q61 0 135 -19l154 -36q85 -21 194 -21q96 0 183.5 33.5t154.5 93t105 138.5t38 163q0 161 -108 275v6zM266 428q21 -96 68 -155.5t131 -100.5v-8q-100 31 -152 91.5t-73 166.5zM143 752l33 -19
q13 -23 36 -39.5t58.5 -30t100.5 -28.5l159 -41q93 -22 141.5 -37.5t78.5 -31.5t48 -38t29 -53l-8 -4q-33 39 -62 58t-76 34t-161 43q-121 28 -183 46t-99.5 36t-59.5 41q-28 31 -35 64z" />
    <glyph glyph-name="T" unicode="T" horiz-adv-x="1186" 
d="M1157 1366l-80 -145l-67 -164l-11 8l-2 12q-29 115 -82.5 159t-164.5 44q-28 0 -88 -4l-13 -2v-1084l117 -108h-457l142 117v995h-66q-73 0 -115.5 -16.5t-63.5 -56t-26 -109.5h-26q8 80 31.5 125t72 64.5t129.5 19.5h64v49q-58 6 -99 6q-87 0 -140 -23t-79 -73.5
t-29 -135.5h-12q-25 82 -50.5 143.5t-82.5 168.5l-6 10h1204zM1221 1303q-42 -52 -73.5 -117t-72.5 -176l-4 -11l-22 21l4 8q79 222 147 293zM952 1147q-73 49 -178 49q-29 0 -49 -2l4 -1006l158 -188h-510l-23 27h477l-133 153v1043h56q63 0 102 -6.5t61 -23t35 -46.5z" />
    <glyph glyph-name="U" unicode="U" horiz-adv-x="1243" 
d="M1188 1366l-178 -143v-648q0 -157 -8 -227t-31 -121q-76 -164 -353 -164q-148 0 -248.5 43t-144.5 125q-32 60 -44.5 138t-12.5 211v663l-135 123h473l-137 -133v-809q0 -149 62 -210.5t212 -61.5q89 0 151 31.5t85 86.5q39 106 39 305v648l-156 143h426zM1223 1296
l-138 -110v-623q0 -260 -26 -348q-36 -113 -142.5 -175.5t-261.5 -62.5q-115 0 -212.5 32t-157.5 91l8 -4l35 -20q58 -32 138 -52t163 -20q333 0 399 219q31 103 31 332v641l147 123zM547 1313l-98 -101v-811q0 -72 23.5 -116t92.5 -103l2 -10q-84 35 -115.5 99.5
t-31.5 201.5v750l112 110z" />
    <glyph glyph-name="V" unicode="V" horiz-adv-x="1270" 
d="M1376 1681l10 -10q-87 -84 -149.5 -171t-124 -218t-137.5 -332l-291 -764l117 -104h-461l133 108l-367 1043l-153 133h496l-142 -141l332 -940l37 92l-295 833l102 101l19 -19l-88 -88l276 -790l213 565q49 129 71.5 216.5t22.5 135.5q0 104 -75 176l20 4q176 35 305 95
q81 37 129 75zM1432 1620l8 -23q-121 -95 -240 -323q-47 -91 -67.5 -138.5t-85.5 -217.5l-283 -736l156 -182h-517l-22 27h479l-125 147l340 891q67 176 167.5 332.5t189.5 222.5z" />
    <glyph glyph-name="W" unicode="W" horiz-adv-x="1618" 
d="M1731 1708q-67 -73 -99.5 -117t-75.5 -118q-52 -92 -94.5 -212.5t-107.5 -359.5l-174 -631l20 -77l123 -111h-455l131 111l-178 641l-172 -627l172 -207h-510l-20 27h475l-150 174l191 684l-35 119l-205 -750l17 -61l116 -111h-456l137 111l-293 1046l-149 127h489
l-137 -127l229 -823l35 121l-193 688l91 80l22 -17l-82 -71l174 -631l215 780h95l258 -942l32 113l-229 829h29l213 -780l94 338q48 170 68 265.5t20 147.5q0 57 -22.5 97.5t-75.5 72.5q112 35 247 99.5t203 115.5zM1790 1632q-54 -59 -98.5 -124t-82 -139t-75.5 -173
q-21 -56 -33.5 -93.5t-26.5 -85t-40 -147.5l-177 -647l191 -223h-512l-25 27h478l-162 186l182 672q38 140 69 233t64.5 169.5t67.5 135.5q41 75 67.5 113.5t89.5 112.5z" />
    <glyph glyph-name="X" unicode="X" horiz-adv-x="1430" 
d="M1276 1366l-219 -145l-320 -408l365 -600l174 -131h-516l127 123l-228 373l-282 -365l164 -213h-547l-14 27h507l-141 186l299 389l-29 43l-325 -414l121 -149h-459l233 149l387 492l-311 508l-190 135h528l-131 -115l223 -364l35 47l-186 297l110 106l19 -16l-97 -90
l170 -277l218 277l-125 135h440zM1313 1290l-197 -116l-282 -367l344 -569l245 -238h-620l-19 27h574l-203 196l-352 584l295 385l198 117z" />
    <glyph glyph-name="Y" unicode="Y" horiz-adv-x="1313" 
d="M1440 1718l6 -8l-10 -12q-130 -134 -201 -232q-20 -26 -94 -145q-22 -36 -40 -66t-24 -38l-372 -594v-408l145 -133h-488l146 133v408l-240 366l-53 84q-71 111 -118.5 165.5t-131.5 117.5l-12 10h506l-125 -129l334 -504l30 51l-295 453l105 98l20 -14l-92 -84l277 -428
l225 354q56 91 76 136t20 87q0 38 -20.5 74.5t-63.5 77.5q58 13 170 47q173 52 307 125zM1485 1657v-41l-10 -10q-69 -66 -91 -91.5t-71 -93.5q-75 -104 -162 -243l-363 -570v-393l179 -215h-627l-10 27h583l-151 188v399l426 674q56 92 100 151t94 115q57 64 103 103z" />
    <glyph glyph-name="Z" unicode="Z" horiz-adv-x="1313" 
d="M1133 1366l-801 -1200h61l787 1177l18 -24l-770 -1153l219 2q90 0 163 34t114 91q44 66 71 125q84 -220 179 -336h-1139l741 1114h-20q-35 2 -129 2t-149.5 -7t-88.5 -24.5t-59 -52.5q-23 -32 -31.5 -51.5t-22.5 -65.5l-20 23q13 59 49 106.5t86 69.5q35 15 81.5 21
t152.5 6q112 0 153 -2l15 -2l38 57q-86 6 -137 6q-201 0 -274.5 -15.5t-130.5 -68.5q-31 -28 -49.5 -58t-36.5 -81l-8 16q-52 122 -142 279l-6 12h1086zM1280 90l-53 -90h-1141l-20 27h1146l35 63q-66 81 -104 148t-76 170l35 -13q29 -85 63.5 -146t106.5 -149z" />
    <glyph glyph-name="bracketleft" unicode="[" horiz-adv-x="895" 
d="M205 1528h461v-96h-238v-1430h57v1374h238v97l22 -25v-98h-231v-1348h152v-98h-461v1624zM723 -53l22 -27v-98h-489l-18 28h485v97z" />
    <glyph glyph-name="backslash" unicode="\" horiz-adv-x="1059" 
d="M-16 1536l974 -1634h-94l-975 1634h95zM932 -158h104l-991 1665l43 -20l997 -1671h-110z" />
    <glyph glyph-name="bracketright" unicode="]" horiz-adv-x="895" 
d="M150 1432v96h460v-1624h-460v98h237v1348h-186l-19 26h205v56h-237zM668 1473l22 -25v-1626h-489l-19 28h486v1623z" />
    <glyph glyph-name="asciicircum" unicode="^" 
d="M1079 578h-100l-375 581l-391 -581h-268l577 856h15z" />
    <glyph glyph-name="underscore" unicode="_" 
d="M-18 -184h1056v-117h-1056v117z" />
    <glyph glyph-name="grave" unicode="`" 
d="M395 1763l137 -192h-116l-230 192h209zM666 1503h-168l-29 25h139l-125 174l43 -8z" />
    <glyph glyph-name="a" unicode="a" horiz-adv-x="1550" 
d="M967 1366l-103 -119l162 -436l41 23l-147 393l104 123l27 -11l-101 -118l140 -373l47 39q12 8 22 18l17 17q22 -105 79 -205q-20 2 -43 2q-93 0 -139 -31l182 -489l150 -117h-504l137 117l-110 290q-36 -35 -90 -101.5t-80 -108.5l-23 6q34 57 70.5 102.5t105.5 116.5
l9 10l-19 45q-50 -40 -107.5 -107t-91.5 -124l-18 30q-54 87 -133 189l-8 12q-78 -175 -78 -287q0 -39 8.5 -68.5t35.5 -68.5t81 -106q2 -2 8.5 -11.5t13.5 -17.5h-540l-21 27h510l-18 22q-66 81 -86.5 124.5t-20.5 100.5q0 58 19.5 126.5t64.5 181.5l-45 45
q-12 -32 -33 -95l-32 -100q-27 -81 -27 -137q0 -38 7.5 -65.5t28 -55.5t64.5 -74q1 -2 17 -18h-500q81 44 127.5 83t87.5 99q89 139 139 287q10 24 37 117l4 12q-50 45 -151 55q55 88 84 172l61 -59q42 -34 55 -43l19 43l-12 10l-43 37q-15 13 -41 35l-9 6l17 22
q49 -31 100 -81l137 374l-106 115h461zM719 1044l-109 -290l11 -13l41 -45q31 -36 83 -112l11 -15q34 44 100 107zM674 1159l-158 -420q88 -93 131 -153l55 -78l35 43q-66 103 -162 194l127 338zM1264 874q20 -89 110 -247q-12 2 -26 2q-6 2 -80 8q-74 4 -80 4h-21l166 -442
l223 -199h-577l-21 27h531l-178 159l-178 471q30 9 77 9q51 0 103 -7l16 -2q-47 89 -65.5 132.5t-30.5 103.5z" />
    <glyph glyph-name="b" unicode="b" horiz-adv-x="1325" 
d="M68 1229q234 157 534 157q140 0 251.5 -44t172.5 -123.5t61 -178.5t-59.5 -168t-175.5 -104v-12q25 -5 59 -17q75 18 128 60t81.5 104.5t28.5 136.5q0 142 -117 250v6q81 -60 111.5 -113.5t30.5 -138.5q0 -79 -24 -140.5t-74.5 -105t-127.5 -73.5q96 -43 151.5 -126
t55.5 -189q0 -98 -49 -172.5t-138 -115t-210 -40.5h-715l137 119v432q-61 0 -137 -12l-8 28q70 7 145 10v54h-24q-81 -2 -119 -6q-5 0 -10.5 -0.5t-12.5 -1.5l43 96l17 -2q24 -2 59 -2q18 0 25 -0.5t14 -1.5h8v374zM381 1245v-450l33 -2l16 2v407q50 24 84.5 32.5t83.5 8.5
q95 0 149 -34t93 -117l-29 16q-73 113 -213 113q-48 0 -74.5 -7.5t-66.5 -35.5v-383q22 -2 43 -2q172 0 260 47q53 28 86 86t33 125q0 115 -78 186.5t-205 71.5q-108 0 -215 -64zM381 711v-551h49v491q49 4 105 4q164 0 238 -30.5t118 -116.5h-12q-49 69 -122.5 95
t-219.5 26q-41 0 -80 -2v-467h32q113 0 181 9.5t118 33.5q130 59 130 243q0 84 -38.5 149t-101.5 87q-50 19 -119.5 26t-193.5 7q-6 0 -84 -4zM1128 641q31 -23 57 -62.5t39 -87t13 -92.5q0 -124 -54.5 -214.5t-158 -137.5t-248.5 -47h-680l-16 27h631q139 0 215.5 16.5
t138.5 60.5q145 102 145 293q0 71 -21.5 125t-70.5 111z" />
    <glyph glyph-name="c" unicode="c" horiz-adv-x="1192" 
d="M1092 1335l-13 -20q-32 -56 -58.5 -106.5t-46.5 -93.5t-50 -114l-9 -22l-12 6q-17 101 -59.5 175.5t-107.5 114.5t-144 40q-44 0 -86.5 -16.5t-81 -48t-62.5 -70.5q-32 -55 -50.5 -116.5t-28 -144t-9.5 -184.5q0 -137 25 -250.5t73 -193t117.5 -120t155.5 -40.5
q94 0 162.5 41t109 121t52.5 199q3 40 30 40q41 0 41 -65q0 -49 -16.5 -117t-38.5 -108q-46 -93 -143.5 -144t-227.5 -51t-234.5 46.5t-179 135.5t-114 215t-39.5 279q0 190 72.5 344t199.5 243t281 89q79 0 120 -9.5t136 -46.5q74 -28 119 -28q54 0 100 28zM801 1161
q-56 45 -90 59.5t-82 14.5q-127 0 -193.5 -126.5t-66.5 -367.5q0 -224 61 -374t170 -195v-10q-59 13 -106.5 58t-83 123.5t-53 177.5t-17.5 220q0 127 19 225t55 162.5t88.5 98t122.5 33.5q55 0 92.5 -19t83.5 -67v-13zM1126 475q-7 -119 -32.5 -200.5t-77.5 -145.5
q-63 -76 -159.5 -119t-211.5 -43q-86 0 -160 24.5t-149 78.5v8q131 -84 307 -84q108 0 199 41t151 117q51 61 72.5 131t30.5 182l2 22zM1163 1286l-10 -18q-110 -187 -174 -340l-27 14l99 199l90 159z" />
    <glyph glyph-name="d" unicode="d" horiz-adv-x="1249" 
d="M72 1366h393q186 0 300 -39.5t191 -132.5q49 -57 81 -126t47.5 -151t15.5 -178q0 -232 -78 -386.5t-229 -219.5q-48 -21 -92 -32t-97.5 -15t-136.5 -4h-426l137 104v1063zM375 1280v-1122h55v1056q53 9 94 9q80 0 129.5 -17t96.5 -61q-108 51 -228 51q-3 0 -67 -4v-1034
h16q85 0 138.5 15t99.5 52q84 69 128 202.5t44 315.5q0 121 -21.5 215t-63 162.5t-98.5 102.5q-93 57 -276 57h-47zM102 0l-14 27h367q234 0 360 53q350 142 350 641q0 150 -22.5 239.5t-81.5 176.5q-7 10 -31 41l-41 43l-10 14q65 -40 108 -105q57 -84 80 -174.5t23 -228.5
q0 -172 -40.5 -307.5t-120 -228t-193.5 -136.5q-78 -29 -165.5 -42t-215.5 -13h-353z" />
    <glyph glyph-name="e" unicode="e" horiz-adv-x="1274" 
d="M1124 1366l-16 -20q-63 -76 -93.5 -129.5t-68.5 -157.5q-14 32 -14 33q-40 84 -76 123t-95 53t-173 14q-99 0 -180 -4v-461h63v408q68 6 145 6q87 0 139.5 -11t88 -39t67.5 -81q-10 6 -20 16q-53 41 -55 41q-36 27 -78 37q-47 8 -129 8q-35 0 -111 -4h-20v-381h182
l129 178v-430l-129 166h-272v-561h63v514h217l27 -27h-217v-487h14q143 0 236 16q53 12 99.5 45.5t74.5 81.5l53 90l12 23q16 -73 38 -125.5t58 -99.5t97 -105h-1121l152 115v446q-51 -5 -83 -16t-69 -35l-14 21q32 25 67 37t99 20v47q-6 1 -11 1.5t-10 0.5q-49 0 -99.5 -20
t-90.5 -56q25 86 73 122t138 38v428l-152 121h1065zM1174 1296l-9 -10q-81 -110 -108 -155.5t-53 -118.5l-19 20q39 88 76 149t98 136zM879 963v-443l-25 12v443zM1294 90l-53 -90h-1091l-17 27h1094l35 63q-77 71 -122 134.5t-81 150.5l33 -13q34 -80 69 -128t117 -128z
" />
    <glyph glyph-name="f" unicode="f" horiz-adv-x="1128" 
d="M63 1366h1039q-58 -76 -85 -123.5t-73 -157.5l-6 -20q-65 131 -128 173t-196 42h-180h-37v-465h62v412l28 2q39 2 115 2q124 0 184.5 -23t87.5 -84q-46 48 -104 64t-178 16q-55 0 -109 -4v-385h152l160 168v-418l-168 166h-230v-506l129 -129h-491l164 129v432
q-45 -1 -74.5 -14t-61.5 -45l-18 20q27 31 64.5 48.5t80.5 17.5h9v47q-8 1 -15 1.5t-16 0.5q-95 0 -160 -76l-8 15q25 68 71.5 101.5t127.5 41.5v422zM1178 1305q-70 -81 -116.5 -162t-64.5 -146l-20 15q17 74 65 155.5t117 153.5zM868 948v-432l-26 14v433zM688 645h-205
v-428l176 -217h-579l-25 27h549l-145 180v465h200z" />
    <glyph glyph-name="g" unicode="g" horiz-adv-x="1397" 
d="M1171 1331l-186 -368q-18 157 -99 240t-212 83q-125 0 -214.5 -65.5t-136.5 -190.5t-47 -299q0 -297 116 -438t358 -141h161v518h-252q-82 0 -116.5 9t-69.5 38v26q38 -27 73 -36t116 -9h249v56h-323q-68 0 -109 29.5t-41 78.5q0 41 25 71t61 30q27 0 46.5 -18.5
t19.5 -45.5q0 -18 -10.5 -33t-22.5 -18l-25 -4q-10 -3 -10 -8q0 -15 31 -15h694l-137 -137v-491l129 -111h-612q-95 0 -135 8t-109 41q-126 60 -209 172q-65 90 -96 193.5t-31 232.5q0 140 43.5 257.5t125.5 204.5t193.5 134t245.5 47q84 0 211 -37q73 -21 92 -24
q47 -13 84 -13q61 0 129 33zM1231 1268l-170 -336l-25 10l172 338zM911 1116l-18 12q-67 48 -110.5 65t-98.5 17q-100 0 -178.5 -66t-104.5 -171q-26 -113 -26 -254q0 -101 9 -177t30.5 -134.5t55.5 -102t91 -92.5v-10q-57 34 -95 75.5t-60 90.5q-62 143 -62 368
q0 88 11.5 161.5t35 129t62.5 102.5q90 107 219 107q82 0 137.5 -27.5t101.5 -89.5v-4zM1292 764l-104 -105v-469l168 -190h-756q-63 0 -96 10t-86 47h22q70 -28 187 -28h671l-137 151v490l115 116z" />
    <glyph glyph-name="h" unicode="h" horiz-adv-x="1286" 
d="M63 1366h472l-138 -133v-432q18 -3 56 -6v428l108 106l21 -16l-105 -103v-417l35 -2q61 -7 150 -7q110 0 178 9v460l-123 113h463l-140 -133v-1043l123 -108h-461l138 117v424q-78 -19 -174 -19q-95 0 -174 8h-15v-422l166 -190h-518l-25 27h488l-135 149v461l28 -2
q137 -10 176 -10q74 0 104.5 4t78.5 20v37q-43 -6 -101 -10t-133 -4q-42 0 -84 4l-125 10v-496l129 -108h-463l136 117v438q-87 -3 -136 -68l-20 11q56 71 156 82v36h-9q-34 0 -65 -10t-58.5 -30t-46.5 -46l-14 11q35 83 77 120t116 50v450zM1221 1309l-101 -99v-1020
l166 -190h-520l-25 27h488l-135 151v1043l110 108z" />
    <glyph glyph-name="i" unicode="i" horiz-adv-x="627" 
d="M41 1366h475l-135 -137v-1041l127 -106h-467l139 115v1044zM561 1309l-102 -101v-1020l168 -188h-521l-24 27h485l-137 151v1039l113 112z" />
    <glyph glyph-name="j" unicode="j" horiz-adv-x="1051" 
d="M956 1364l-135 -135v-774q0 -38 11.5 -62t39.5 -41q-7 -85 -62.5 -152.5t-146.5 -105t-204 -37.5q-315 0 -406 246l-14 39q-9 29 -23 39t-57 18l299 222q-16 -102 -16 -199q0 -137 55 -216t149 -79q84 0 129.5 73.5t45.5 213.5v827l-136 123h471zM997 1309l-98 -101v-770
q0 -38 15.5 -63.5t54.5 -48.5q-18 -101 -89.5 -182t-181.5 -128t-233 -47q-188 0 -311 115v8q77 -57 142 -78.5t163 -21.5q117 0 218.5 42t170.5 116t90 165q-32 27 -45 44.5t-17 44t-4 79.5v738l111 108zM352 598l-2 -12q-20 -121 -20 -166q0 -194 145 -262h-16
q-156 45 -156 258q0 88 23 182h26z" />
    <glyph glyph-name="k" unicode="k" horiz-adv-x="1386" 
d="M49 1366h467l-137 -133v-604l53 63v533l113 108l14 -20l-102 -101v-489l309 371q68 81 68 143q0 26 -17.5 50.5t-46.5 43t-65 25.5v10h526v-10q-54 -13 -91 -31.5t-96 -64.5q-62 -49 -92.5 -79.5t-93.5 -107.5l-139 -166l368 -717l168 -108h-518l131 98l-247 496
l-164 -199v-287l164 -190h-512l-27 27h477l-127 153v309l174 216l-22 45l-205 -248v-312l121 -108h-459l137 117v1048zM1282 1274q-78 -4 -147 -44t-150 -128l-174 -195l352 -717l285 -190h-637l-29 27h580l-213 145l-367 735l187 209q77 88 146.5 129t154.5 49z" />
    <glyph glyph-name="l" unicode="l" horiz-adv-x="1120" 
d="M41 1366h477l-141 -137v-1069l53 -4v1063l109 108l14 -22l-96 -99v-1050q74 -4 84 -4q160 0 241.5 70.5t108.5 232.5q8 -20 17 -45t19 -49t22.5 -51.5t25.5 -55.5q28 -57 42.5 -83.5t28.5 -45t39 -43.5h-1044l137 113v1044zM1182 90l-43 -90h-1045l-24 27h1056l29 63
q-62 75 -99 140t-75 161l-4 10l31 -12l8 -16q40 -89 71 -141t89 -132z" />
    <glyph glyph-name="m" unicode="m" horiz-adv-x="1659" 
d="M1548 1288l-112 -82v-1007l174 -199h-533l-12 27h483l-139 157v1039l119 82zM416 403v566l-56 159v-718q0 -115 13 -174.5t46.5 -90.5t102.5 -51h15l73 -94h-522l-18 27h491l-47 55h-436l20 10q76 41 115 80.5t53.5 94t14.5 147.5v827l-131 125h516l-146 -131l283 -838
l37 86l-256 744l131 96l20 -16l-125 -88l240 -699l256 715l-121 131h506l-137 -139v-1028l123 -117h-459l139 117v673l-317 -872h-97l-8 27h88l334 929v154l-373 -1028h-69l-275 807v-481q0 -84 8 -135t27 -87.5t53 -70.5l7 -6q-48 17 -73.5 51.5t-35.5 91t-10 151.5z" />
    <glyph glyph-name="n" unicode="n" horiz-adv-x="1327" 
d="M1268 1290l-19 -28q-53 -12 -80.5 -36.5t-39 -69.5t-11.5 -124v-1032h-215l-14 27h203v995q0 96 14.5 149.5t53 80.5t108.5 38zM233 872v381l-133 113h506l-143 -96l485 -944v120l-416 807l142 97l16 -19l-123 -84l381 -747v520q0 98 -6 148.5t-22 84t-51.5 60.5
t-90.5 53h455q-85 -44 -125.5 -84t-56 -97.5t-15.5 -156.5v-946h-170l-471 915v-587q0 -75 11 -129t33 -91.5t59 -72.5l6 -6q-50 17 -79.5 52.5t-43.5 96.5t-14 146v641l-54 106v-578q0 -143 5 -212.5t18 -108.5t43 -78q32 -37 56 -51t83 -33l88 -92h-543l-14 27h500l-51 55
h-467q120 43 155 111q27 49 37 101t10 159v419z" />
    <glyph glyph-name="o" unicode="o" horiz-adv-x="1303" 
d="M823 1157q-68 39 -108 52.5t-90 13.5q-136 0 -204.5 -134t-68.5 -401q0 -190 42.5 -320t125.5 -194l-8 -10q-54 39 -90.5 86t-58.5 107t-33 142t-11 193q0 277 76.5 416t227.5 139q64 0 117.5 -24t82.5 -66zM1151 715q0 -153 -36.5 -275.5t-109 -212t-173 -135
t-224.5 -45.5q-166 0 -298.5 86t-205.5 239.5t-73 348.5q0 153 39.5 279t115 215.5t180 136.5t236.5 47q122 0 223.5 -48.5t174.5 -139t112 -217.5t39 -279zM924 743q0 262 -64 406q-35 74 -105.5 118t-152.5 44q-348 0 -348 -613q0 -565 342 -565q172 0 258 178
q39 87 54.5 181.5t15.5 250.5zM930 1346q74 -36 134 -98.5t100.5 -146t62.5 -187t22 -226.5q0 -156 -44 -289t-126.5 -230.5t-195 -149.5t-244.5 -52q-172 0 -330 117v6q61 -43 146.5 -67.5t175.5 -24.5q127 0 236.5 51.5t188 142.5t122 218t43.5 278q0 112 -20 213
t-56 182.5t-92.5 147t-122.5 104.5v11z" />
    <glyph glyph-name="p" unicode="p" horiz-adv-x="1210" 
d="M96 1366h449q120 0 206 -12t147.5 -39t109.5 -72q98 -95 98 -239q0 -89 -43 -158t-122.5 -111t-186.5 -49q-88 -7 -172 -10h-37h-123v-483l123 -111h-465l139 117v401q-21 0 -76 -9t-80 -22l-8 19q67 39 119 39h45v49q-14 2 -33 2q-59 0 -98.5 -12t-71.5 -39l-10 14
q64 113 197 113h16v489zM422 1262v-502h53v446h109q128 0 181 -22t89 -94q-36 52 -92.5 72t-155.5 20h-104v-422h14q369 0 369 241q0 92 -41.5 154t-120.5 88q-31 11 -73 17t-113 6q-60 0 -93 -2zM1055 1257q60 -27 97.5 -101t37.5 -163q0 -143 -67 -234.5t-199 -129.5
q-36 -9 -65 -14.5t-65 -9t-96.5 -5.5t-109.5 -2q-53 0 -86 2v-414l157 -186h-501l-27 27h471l-127 149v451q79 -6 178 -6q175 0 289.5 39.5t169.5 122t55 208.5q0 80 -23.5 135t-88.5 131z" />
    <glyph glyph-name="q" unicode="q" horiz-adv-x="1313" 
d="M782 1190q-6 2 -14 6q-47 22 -70.5 28.5t-64.5 6.5q-75 0 -129 -34t-88 -105t-50 -180.5t-16 -268.5q0 -186 49.5 -301.5t153.5 -177.5h-10q-76 25 -128 99.5t-73 187.5q-16 92 -16 213q0 310 69.5 448.5t225.5 138.5q93 0 161 -55v-6zM909 164q41 -40 97.5 -65
t109.5 -25q30 0 43 1t34 5.5t40.5 12.5t42.5 18l8 -5q-54 -75 -78 -118l-73 -133l-5 -7q-163 28 -286 177q-106 -50 -207 -50q-75 0 -148 25t-118 63l4 9q70 -34 129.5 -51t118.5 -17q113 0 202 41q-2 4 -6 8q-10 19 -26 35q-62 -22 -97.5 -28.5t-95.5 -6.5
q-153 0 -280.5 88t-199 242.5t-71.5 343.5q0 148 40.5 272t116 211.5t179.5 134t233 46.5q115 0 213.5 -48.5t169 -136t108.5 -207.5t38 -268q0 -54 -8 -116t-22 -116.5t-32.5 -99.5t-44.5 -86q-38 -57 -120 -139zM856 315q70 144 70 424q0 129 -15.5 224.5t-46.5 164.5
q-24 54 -65 95t-94.5 63.5t-108.5 22.5q-165 0 -250.5 -147.5t-85.5 -436.5q0 -90 8 -168t27 -141t47 -113q42 -79 110.5 -123.5t147.5 -44.5q42 0 65.5 5t63.5 24q-25 48 -68.5 79t-89.5 31q-10 0 -22 -2l69 86q73 -22 179 -104l10 -8l5 5l3 3q2 2 6.5 8.5t14.5 20.5l6 6
q-40 40 -75 60.5t-101 43.5l14 23q93 -36 164 -92zM938 1317q68 -28 124 -84t95.5 -132t61.5 -171t22 -205q0 -318 -186 -547q56 -51 176 -59v-6q-44 -7 -51 -7q-94 0 -166 66q64 65 108.5 152.5t67 190t22.5 214.5q0 102 -16.5 187t-49 154t-84.5 130t-124 111v6zM1360 59
q-83 -106 -154 -239l-6 -10l-24 12q33 65 77 131l82 121z" />
    <glyph glyph-name="r" unicode="r" horiz-adv-x="1300" 
d="M88 1245q147 85 244 111t266 26q109 0 197 -24t153.5 -68t101 -103t35.5 -132q0 -75 -40 -142t-114.5 -115.5t-180.5 -76.5q36 -98 81.5 -187.5t106 -182t120 -161.5t116.5 -116l-15 -4q-142 -48 -293 -146l-14 -8l-4 31q-22 133 -48.5 244t-68.5 239q-35 108 -63 174
l-4 10q-79 -37 -185 -51l-8 -2v-375l176 -186h-516l-16 27h475l-144 153v404l19 2q117 13 192 45l-22 57q-71 -20 -113 -24l-131 -17v-446l113 -119h-441l130 119v336q-14 -3 -34 -7.5t-28 -7.5q-12 -4 -28 -9.5t-23 -6.5l-8 -2l-9 20q49 19 68 23l62 14v53q-60 -2 -148 -26
l-10 -4q1 4 1.5 7t0.5 5q0 3 18 53q0 -2 15 45q0 4 2 8q23 -1 39 -2t30 -2q10 0 52 4l-3 492q-45 30 -94 47zM391 1270v-539h8q14 0 47 6v492q56 14 132 14q69 0 118.5 -12.5t85.5 -41.5t60 -73q-73 60 -129 82.5t-135 22.5q-59 0 -107 -13v-471h10q135 24 221.5 67.5
t127 107.5t40.5 153q0 66 -40.5 123.5t-110 90t-152.5 32.5q-102 0 -176 -41zM874 670q22 -70 62 -150.5t90.5 -156.5t106.5 -138q94 -103 217 -178q-122 -32 -221.5 -75t-208.5 -111l-9 -6l-20 16q55 36 127.5 73t142 64.5t137.5 46.5q-70 47 -128.5 100.5t-109 119.5
t-106.5 161q-27 46 -40.5 71.5t-30.5 66t-37 94.5l-8 16q79 32 113.5 50.5t66.5 45.5q127 103 127 267q0 52 -17.5 97t-62.5 109q102 -88 102 -245q0 -106 -76 -193.5t-217 -144.5z" />
    <glyph glyph-name="s" unicode="s" horiz-adv-x="1137" 
d="M979 1354q-15 -22 -28 -40t-18 -27t-15 -30.5t-21 -48.5q-62 -151 -82 -184q-1 0 -4 -6q-4 12 -6 16q-27 86 -43.5 121.5t-39.5 58.5t-69 50q-72 43 -147 43q-76 0 -134.5 -26t-91 -74t-32.5 -107q0 -58 26.5 -102t85 -77t142.5 -53l168 -39q124 -29 198 -77t117 -125
q45 -78 45 -178q0 -113 -56.5 -201t-159 -137.5t-230.5 -49.5q-101 0 -238 35l-115 29q-75 16 -112 16q-43 0 -68.5 -8t-62.5 -31l-8 15q46 69 101 179.5t73 176.5l18 -6q21 -158 125.5 -244t275.5 -86q83 0 150 27t104 76.5t37 113.5q0 72 -34.5 131t-98.5 95
q-51 30 -108.5 47.5t-192.5 42.5q-88 18 -148 41t-99 56t-66 81q-45 82 -45 182q0 107 52 187.5t148 124.5t220 44q63 0 123 -10t139 -33q71 -18 108 -18q48 0 107 33zM1042 1313l-10 -17q-35 -58 -69 -131q-30 -60 -56 -115t-28 -57l-25 11l88 180l74 141zM750 1112
q-111 117 -236 117q-77 0 -126.5 -44.5t-49.5 -111.5q0 -41 20.5 -73.5t79.5 -77.5l8 -7l-4 -6q-133 58 -133 170q0 79 56.5 127.5t146.5 48.5q87 0 151 -36.5t93 -102.5zM979 715q137 -104 137 -283q0 -94 -39 -177.5t-109 -145.5t-164.5 -97t-197.5 -35q-94 0 -194 21
l-160 41q-55 12 -119 12q-56 0 -104 -22l-13 30q27 13 50 18t57 5q61 0 135 -19l154 -36q85 -21 194 -21q96 0 183.5 33.5t154.5 93t105 138.5t38 163q0 161 -108 275v6zM266 428q21 -96 68 -155.5t131 -100.5v-8q-100 31 -152 91.5t-73 166.5zM143 752l33 -19
q13 -23 36 -39.5t58.5 -30t100.5 -28.5l159 -41q93 -22 141.5 -37.5t78.5 -31.5t48 -38t29 -53l-8 -4q-33 39 -62 58t-76 34t-161 43q-121 28 -183 46t-99.5 36t-59.5 41q-28 31 -35 64z" />
    <glyph glyph-name="t" unicode="t" horiz-adv-x="1186" 
d="M1157 1366l-80 -145l-67 -164l-11 8l-2 12q-29 115 -82.5 159t-164.5 44q-28 0 -88 -4l-13 -2v-1084l117 -108h-457l142 117v995h-66q-73 0 -115.5 -16.5t-63.5 -56t-26 -109.5h-26q8 80 31.5 125t72 64.5t129.5 19.5h64v49q-58 6 -99 6q-87 0 -140 -23t-79 -73.5
t-29 -135.5h-12q-25 82 -50.5 143.5t-82.5 168.5l-6 10h1204zM1221 1303q-42 -52 -73.5 -117t-72.5 -176l-4 -11l-22 21l4 8q79 222 147 293zM952 1147q-73 49 -178 49q-29 0 -49 -2l4 -1006l158 -188h-510l-23 27h477l-133 153v1043h56q63 0 102 -6.5t61 -23t35 -46.5z" />
    <glyph glyph-name="u" unicode="u" horiz-adv-x="1243" 
d="M1188 1366l-178 -143v-648q0 -157 -8 -227t-31 -121q-76 -164 -353 -164q-148 0 -248.5 43t-144.5 125q-32 60 -44.5 138t-12.5 211v663l-135 123h473l-137 -133v-809q0 -149 62 -210.5t212 -61.5q89 0 151 31.5t85 86.5q39 106 39 305v648l-156 143h426zM1223 1296
l-138 -110v-623q0 -260 -26 -348q-36 -113 -142.5 -175.5t-261.5 -62.5q-115 0 -212.5 32t-157.5 91l8 -4l35 -20q58 -32 138 -52t163 -20q333 0 399 219q31 103 31 332v641l147 123zM547 1313l-98 -101v-811q0 -72 23.5 -116t92.5 -103l2 -10q-84 35 -115.5 99.5
t-31.5 201.5v750l112 110z" />
    <glyph glyph-name="v" unicode="v" horiz-adv-x="1270" 
d="M1376 1681l10 -10q-87 -84 -149.5 -171t-124 -218t-137.5 -332l-291 -764l117 -104h-461l133 108l-367 1043l-153 133h496l-142 -141l332 -940l37 92l-295 833l102 101l19 -19l-88 -88l276 -790l213 565q49 129 71.5 216.5t22.5 135.5q0 104 -75 176l20 4q176 35 305 95
q81 37 129 75zM1432 1620l8 -23q-121 -95 -240 -323q-47 -91 -67.5 -138.5t-85.5 -217.5l-283 -736l156 -182h-517l-22 27h479l-125 147l340 891q67 176 167.5 332.5t189.5 222.5z" />
    <glyph glyph-name="w" unicode="w" horiz-adv-x="1618" 
d="M1731 1708q-67 -73 -99.5 -117t-75.5 -118q-52 -92 -94.5 -212.5t-107.5 -359.5l-174 -631l20 -77l123 -111h-455l131 111l-178 641l-172 -627l172 -207h-510l-20 27h475l-150 174l191 684l-35 119l-205 -750l17 -61l116 -111h-456l137 111l-293 1046l-149 127h489
l-137 -127l229 -823l35 121l-193 688l91 80l22 -17l-82 -71l174 -631l215 780h95l258 -942l32 113l-229 829h29l213 -780l94 338q48 170 68 265.5t20 147.5q0 57 -22.5 97.5t-75.5 72.5q112 35 247 99.5t203 115.5zM1790 1632q-54 -59 -98.5 -124t-82 -139t-75.5 -173
q-21 -56 -33.5 -93.5t-26.5 -85t-40 -147.5l-177 -647l191 -223h-512l-25 27h478l-162 186l182 672q38 140 69 233t64.5 169.5t67.5 135.5q41 75 67.5 113.5t89.5 112.5z" />
    <glyph glyph-name="x" unicode="x" horiz-adv-x="1430" 
d="M1276 1366l-219 -145l-320 -408l365 -600l174 -131h-516l127 123l-228 373l-282 -365l164 -213h-547l-14 27h507l-141 186l299 389l-29 43l-325 -414l121 -149h-459l233 149l387 492l-311 508l-190 135h528l-131 -115l223 -364l35 47l-186 297l110 106l19 -16l-97 -90
l170 -277l218 277l-125 135h440zM1313 1290l-197 -116l-282 -367l344 -569l245 -238h-620l-19 27h574l-203 196l-352 584l295 385l198 117z" />
    <glyph glyph-name="y" unicode="y" horiz-adv-x="1313" 
d="M1440 1718l6 -8l-10 -12q-130 -134 -201 -232q-20 -26 -94 -145q-22 -36 -40 -66t-24 -38l-372 -594v-408l145 -133h-488l146 133v408l-240 366l-53 84q-71 111 -118.5 165.5t-131.5 117.5l-12 10h506l-125 -129l334 -504l30 51l-295 453l105 98l20 -14l-92 -84l277 -428
l225 354q56 91 76 136t20 87q0 38 -20.5 74.5t-63.5 77.5q58 13 170 47q173 52 307 125zM1485 1657v-41l-10 -10q-69 -66 -91 -91.5t-71 -93.5q-75 -104 -162 -243l-363 -570v-393l179 -215h-627l-10 27h583l-151 188v399l426 674q56 92 100 151t94 115q57 64 103 103z" />
    <glyph glyph-name="z" unicode="z" horiz-adv-x="1313" 
d="M1133 1366l-801 -1200h61l787 1177l18 -24l-770 -1153l219 2q90 0 163 34t114 91q44 66 71 125q84 -220 179 -336h-1139l741 1114h-20q-35 2 -129 2t-149.5 -7t-88.5 -24.5t-59 -52.5q-23 -32 -31.5 -51.5t-22.5 -65.5l-20 23q13 59 49 106.5t86 69.5q35 15 81.5 21
t152.5 6q112 0 153 -2l15 -2l38 57q-86 6 -137 6q-201 0 -274.5 -15.5t-130.5 -68.5q-31 -28 -49.5 -58t-36.5 -81l-8 16q-52 122 -142 279l-6 12h1086zM1280 90l-53 -90h-1141l-20 27h1146l35 63q-66 81 -104 148t-76 170l35 -13q29 -85 63.5 -146t106.5 -149z" />
    <glyph glyph-name="braceleft" unicode="{" horiz-adv-x="901" 
d="M668 1528v-82q-94 -3 -149.5 -29t-81 -80.5t-25.5 -142.5q0 -34 10 -72l29 -86q14 -39 14 -82q0 -173 -242 -213v-8q37 -4 78 -16q113 24 166 75.5t53 135.5q0 32 -16 82l-27 86q-12 30 -12 69q0 89 25.5 143.5t82 80t150.5 28.5v84l27 -14v-84q-93 -3 -149 -28.5
t-81.5 -80t-25.5 -143.5q0 -35 10 -70l28 -86q15 -47 15 -82q0 -156 -230 -200q152 -59 152 -207q0 -47 -14 -92l-27 -97q-12 -45 -12 -90q0 -96 34.5 -159t98.5 -82q-78 63 -78 213q0 42 12 92l27 96q14 61 14 88q0 63 -20.5 103t-67.5 75q62 -36 88.5 -80.5t26.5 -109.5
q0 -44 -14 -90l-27 -97q-12 -48 -12 -90q0 -74 16.5 -121.5t54.5 -82.5q39 -9 99 -9v-84q-9 2 -15 2q-20 3 -110 3q-122 2 -186.5 24t-102.5 78q-59 91 -59 217q0 43 6 76.5t39 159.5q16 69 16 106q0 42 -23 80q-48 6 -73 6q-23 0 -45 -2l-13 25q29 2 58 2q26 0 47 -2
q-27 20 -52 26.5t-87 9.5v74q98 6 143 40t45 99q0 28 -16 88l-33 105q-12 43 -12 92q0 112 42 194t111 107q67 27 197 27h100q4 1 7.5 1.5t15.5 0.5zM750 -76v-102q-284 7 -416 41v6q98 -14 311 -19l78 -2v101z" />
    <glyph glyph-name="bar" unicode="|" 
d="M436 1364h152v-1706h-152v1706z" />
    <glyph glyph-name="braceright" unicode="}" horiz-adv-x="901" 
d="M762 780v-73q-99 -4 -145 -39t-46 -105q0 -48 17 -104q29 -108 37 -149t8 -87q0 -65 -17.5 -122t-49.5 -99t-74 -59q-41 -18 -85 -25t-128 -10q-107 -3 -129 -4v82q94 2 150.5 26.5t82 80t25.5 147.5q0 40 -15 90l-26 94q-15 55 -15 90q0 145 152 205q-30 13 -40.5 20.5
t-39.5 36.5q69 -35 113 -45q37 6 67 8v9q-248 38 -248 213q0 36 17 79l28 86q11 33 11 70q0 47 -6.5 75.5t-24.5 65.5q-28 25 -66 34.5t-116 12.5l-15 27q74 -2 109 -10t65 -27q-30 40 -73 54.5t-135 17.5v82q19 0 27.5 -0.5t17.5 -1.5h79q128 -2 190 -20.5t99 -69.5
q70 -89 70 -236q0 -43 -12 -90q-3 -9 -7.5 -24.5t-25.5 -79.5q-17 -53 -17 -86q0 -128 191 -140zM170 -152q16 2 37 2q18 1 46 2t66 1q85 1 142 11.5t92 31.5t61 59q60 89 60 213q0 46 -8 90t-37 145q-17 66 -17 107q0 70 45.5 103t147.5 38v92l26 -28v-90
q-99 -4 -144.5 -39t-45.5 -105q0 -49 16 -106q29 -105 37 -147t8 -87q0 -98 -39 -175t-102 -107q-42 -18 -87.5 -25t-125.5 -8l-149 -4zM664 811q-30 25 -41 42t-11 46t17 80q30 90 38.5 126.5t8.5 84.5q0 61 -14.5 104.5t-57.5 114.5q98 -88 98 -264q0 -63 -45 -195
q-16 -45 -16 -80q0 -17 23 -59z" />
    <glyph glyph-name="asciitilde" unicode="~" horiz-adv-x="1366" 
d="M1065 764l37 -23q-50 -95 -125 -153t-150 -58q-37 0 -116 25q-51 15 -60 20q-65 22 -100.5 30.5t-73.5 8.5q-48 0 -79.5 -17t-78.5 -69q-8 -12 -16 -20l-37 22q57 101 127.5 157t143.5 56q36 0 78 -10.5t106 -32.5q111 -38 158 -38q103 0 186 102z" />
    <glyph glyph-name="nonbreakingspace" unicode="&#xa0;" 
 />
    <glyph glyph-name="exclamdown" unicode="&#xa1;" horiz-adv-x="635" 
d="M246 672h33v-19q0 -87 15.5 -181t47.5 -196q51 -168 139 -274q-97 -44 -141.5 -94t-83.5 -154q-25 109 -68.5 165.5t-132.5 96.5l11 17q45 70 74.5 130.5t48 119t32.5 137.5q20 111 25 237v15zM582 -49l-19 -10q-94 -48 -140.5 -93.5t-92.5 -130.5l-33 -14
q25 83 76.5 139.5t158.5 116.5q-81 114 -133.5 290.5t-52.5 342.5v8h29v-10q11 -221 71 -397q24 -64 47 -105.5t78 -122.5zM262 1065q56 0 93.5 -37.5t37.5 -93.5q0 -53 -38 -91t-93 -38q-53 0 -91 38t-38 91q0 55 38 93t91 38zM426 1022q32 -28 43.5 -53.5t11.5 -73.5
q0 -66 -51 -118t-117 -52q-47 0 -74 11.5t-57 47.5l6 7q44 -24 65.5 -30.5t51.5 -6.5q65 0 108.5 42.5t43.5 108.5q0 32 -8.5 55t-30.5 54z" />
    <glyph glyph-name="cent" unicode="&#xa2;" horiz-adv-x="1202" 
d="M541 1337h75v-133q26 0 62 -8v107l24 -21v-92q28 -7 82 -31q57 -24 86 -24q20 0 35 6.5t27 19.5l10 -6q-86 -136 -131 -276h-10q-1 62 -26 117.5t-65 90t-94 43.5v-800h15q28 0 47 6v731q26 -5 59 -45v-12l-35 18v-686q51 19 89.5 74.5t46.5 122.5l4 36q6 33 30 33
q35 0 35 -49q0 -89 -43.5 -162.5t-113.5 -103.5q-48 -22 -134 -31v-162h-75v103l-17 6q-43 15 -61.5 24.5t-50.5 32.5l-6 17q56 -37 135 -56v39q-157 26 -246.5 150.5t-89.5 316.5q0 117 43.5 221.5t119.5 170.5t173 79v133zM541 1047q-42 -28 -66 -103t-24 -178
q0 -98 12.5 -167t48.5 -163l8 -18v-8q-53 77 -73.5 152t-20.5 190q0 129 27.5 208.5t87.5 116.5v51q-166 -51 -166 -374q0 -216 74 -324q19 -29 35 -42.5t57 -37.5v697zM999 1116l-65 -121l-68 -147l-24 14q33 76 65 139q53 110 66 132zM977 561v-8q0 -88 -33 -161.5
t-95 -123t-147 -67.5v-174h-108l-21 24h105v174q58 9 109.5 37.5t87 72t54.5 97.5t19 117v29z" />
    <glyph glyph-name="sterling" unicode="&#xa3;" horiz-adv-x="1229" 
d="M338 221l-14 -16q-48 33 -81 46t-69 13q-30 0 -51 -16t-21 -39q0 -20 17 -47l-17 -6q-20 25 -20 55q0 32 26.5 53t67.5 21q24 0 53.5 -8t60.5 -24.5t48 -31.5zM1155 539q16 -53 21.5 -93.5t5.5 -101.5q0 -143 -80 -218t-230 -75q-75 0 -156 22.5t-157 63.5
q-36 19 -100 66q-71 -74 -136.5 -107t-142.5 -33q-82 0 -141 50t-59 116q0 55 33.5 99.5t94 69t136.5 24.5q42 0 82 -8.5t86 -26.5l16 -6q1 11 1.5 18.5t0.5 18.5q0 106 -76 200h-237l-41 117h225q-72 123 -72 262q0 87 31.5 158t91 123.5t141.5 80t179 27.5
q117 0 210.5 -39.5t156.5 -117.5t89 -185l-249 -53q2 10 2 19q0 90 -30 156t-84.5 101.5t-129.5 35.5q-63 0 -114 -22t-79 -62t-28 -91q0 -87 57 -227l68 -166h254l41 -117h-267q4 -20 4 -47q0 -130 -41 -223l46 -22q17 36 27.5 78.5t10.5 82.5l2 86h283l-55 162l33 -16
l57 -172h-291v-25q0 -109 -43 -209q115 -69 248 -69q99 0 158 54t59 144q0 42 -14 97h102zM377 258q-106 70 -191 70q-68 0 -106.5 -29.5t-38.5 -79.5q0 -38 34.5 -63t90.5 -25q46 0 86 15t72.5 44.5t52.5 67.5zM1241 492l2 -15q12 -94 12 -145q0 -112 -45.5 -191.5
t-134.5 -120t-213 -40.5q-64 0 -118.5 10t-111.5 33t-153 75l-14 6q-72 -59 -133.5 -86.5t-126.5 -27.5q-146 0 -205 133h6q43 -57 90.5 -83t110.5 -26q64 0 134 34.5t118 90.5q119 -69 219 -101t201 -32q166 0 258 85.5t92 240.5q0 77 -17 174zM141 547l-10 26h238l8 -26
h-236zM842 1141q-88 92 -189 92q-74 0 -112.5 -31.5t-38.5 -93.5q0 -69 45 -182q26 -64 36 -88.5t17 -42.5q3 -10 4.5 -14.5t5.5 -18.5l-18 -6q-62 141 -89.5 224.5t-27.5 131.5q0 66 47 107t123 41q71 0 124 -30.5t79 -88.5h-6zM903 924v26l277 54q-22 172 -209 313
q36 -12 79 -48.5t74 -78.5q61 -78 88 -205z" />
    <glyph glyph-name="currency" unicode="&#xa4;" horiz-adv-x="1202" 
d="M776 817l-16 10q-95 54 -176 54q-195 0 -195 -244q0 -173 94 -227l-8 -11q-43 22 -68.5 53t-37 75t-11.5 114q0 266 224 266q60 0 113 -24.5t81 -65.5zM330 348l-164 -166l-88 88l153 156q-45 54 -65.5 112t-20.5 132q0 141 72 237l-147 148l88 90l153 -156q12 6 26 14
t25 13l-102 102l33 8l98 -100q53 18 84 23.5t88 5.5q130 0 236 -64l145 146l88 -88l-145 -146q74 -112 74 -239q0 -145 -78 -246l151 -150l-90 -88l-96 96q-69 -43 -115 -55t-135 -12q-69 0 -113 11t-118 46l-134 -133l-32 8l151 150l6 -6l19 -6q108 -41 215 -41
q74 0 118 11.5t115 49.5l-39 39q-52 -25 -105.5 -38t-113.5 -13q-124 0 -237 61zM807 690q0 93 -26 155.5t-80.5 93t-137.5 30.5q-270 0 -270 -310q0 -288 264 -288q131 0 197 92q30 45 41.5 93.5t11.5 133.5zM979 403l149 -149l-90 -90h-32l88 88l-150 149q51 65 70.5 122
t19.5 141q0 126 -26 170l-39 59l-4 12l129 129l-88 88h32l92 -92l-131 -131q62 -84 62 -233q0 -62 -6 -98.5t-22 -71t-54 -93.5z" />
    <glyph glyph-name="yen" unicode="&#xa5;" horiz-adv-x="1229" 
d="M1274 1366l-234 -133l-262 -434h62l250 397l213 129l14 -29l-215 -127l-232 -370h52l43 -117h-258l-41 -70v-57h57v57l18 27h287l-43 127l31 -14l51 -140h-309l-6 -10v-47h170l43 -113h-299v-229l145 -123h-485l139 123v158h-199l-8 24h207v47h-248l-39 113h287v57h-207
l-8 27h205l-29 43h-209l-47 117h182l-239 372q-19 31 -54.5 69.5t-74.5 73t-72 52.5h504l-121 -133l334 -500l28 51l-295 449l91 98l18 -16l-76 -82l279 -422l266 422l-129 133h463zM1067 371h-315v-158l170 -213h-551l-11 27h512l-149 186v182h313l-43 127l25 -18z" />
    <glyph glyph-name="brokenbar" unicode="&#xa6;" 
d="M436 1364h152v-702h-152v702zM436 313h152v-655h-152v655z" />
    <glyph glyph-name="section" unicode="&#xa7;" horiz-adv-x="1118" 
d="M922 1526l10 -4q-30 -39 -41 -59t-29 -62q-55 -130 -61 -141q-1 -2 -4.5 -6t-8.5 -11q-2 8 -3.5 12t-2.5 8t-2 7q-31 108 -90 157.5t-160 49.5q-96 0 -158.5 -51.5t-62.5 -129.5q0 -51 19.5 -82.5t70.5 -66.5q-29 32 -37 52t-8 56q0 77 55.5 124.5t145.5 47.5
q63 0 108.5 -20.5t69.5 -60.5l-8 -5q-76 62 -166 62q-77 0 -127.5 -43.5t-50.5 -110.5q0 -51 39 -93.5t104 -61.5q192 -57 277 -101q174 -82 174 -262q0 -89 -55.5 -154.5t-161.5 -101.5q84 -45 124 -109t40 -153q0 -98 -51 -173.5t-144.5 -117t-212.5 -41.5q-101 0 -195 29
l-81 24q-45 15 -78 15q-36 0 -57.5 -6.5t-55.5 -26.5l-6 12q44 64 85.5 146.5t61.5 148.5l17 -4q12 -106 64.5 -169t152.5 -89q-70 38 -104 87.5t-54 139.5l27 7q26 -115 88.5 -179.5t148.5 -64.5q73 0 133 26.5t93.5 75.5t33.5 109q0 48 -59.5 85t-214.5 85
q-163 51 -229.5 81t-100.5 66q-23 28 -30 66l32 -21q17 -35 54 -57t131 -55l155 -54q103 -33 153.5 -55t84.5 -49q-29 47 -58 71t-93 48.5t-195 64.5q-123 38 -190.5 78.5t-97.5 94.5t-30 134q0 93 65 159t171 83q-178 67 -178 260q0 144 103.5 222.5t295.5 78.5
q53 0 94.5 -7.5t100.5 -27.5q52 -16 77 -16q45 0 93 29zM444 948q-109 -15 -158.5 -55t-49.5 -117q0 -53 28.5 -90.5t95.5 -67.5q-75 58 -75 140q0 133 188 145l90 -18l12 -17q-70 11 -100 11q-70 0 -116 -36t-46 -89q0 -76 58 -121.5t211 -89.5l53 -15q94 15 145 60t51 112
q0 105 -116 160q-54 25 -203 68q-7 2 -23.5 7t-44.5 13zM887 442q135 -85 135 -235q0 -90 -35.5 -164.5t-102.5 -129t-158.5 -83.5t-197.5 -29q-82 0 -151 19l-115 30q-41 11 -86 11q-27 0 -42.5 -5t-35.5 -18l-12 29q40 22 92 22q40 0 92 -14l113 -29q70 -18 145 -18
q134 0 240.5 49t165.5 134.5t59 195.5q0 134 -112 231l-27 17q93 56 144 129.5t51 154.5q0 137 -127 230v4q79 -44 117 -101.5t38 -132.5q0 -86 -49 -163.5t-141 -133.5zM1004 1489q-12 -18 -68 -125q-48 -93 -76 -160l-24 10q12 37 21.5 58t57.5 110q34 65 58 113l4 8z" />
    <glyph glyph-name="dieresis" unicode="&#xa8;" 
d="M645 1763q40 0 69 -28t29 -68q0 -38 -29 -66t-69 -28q-38 0 -67 28t-29 66q0 40 29 68t67 28zM770 1722q24 -10 39.5 -36t15.5 -62q0 -53 -37 -90t-88 -37q-59 0 -94 47v6q46 -32 82 -32q48 0 83.5 33.5t35.5 78.5q0 27 -7.5 46t-29.5 46zM424 1722q55 -25 55 -98
q0 -54 -35.5 -90.5t-87.5 -36.5q-59 0 -94 47v6q46 -32 80 -32q48 0 83.5 33.5t35.5 78.5t-37 92zM299 1763q40 0 68 -28t28 -68q0 -38 -28 -66t-68 -28t-69 28t-29 66q0 40 29 68t69 28z" />
    <glyph glyph-name="copyright" unicode="&#xa9;" horiz-adv-x="1606" 
d="M1090 1163l-27 8q-83 33 -141.5 44.5t-133.5 11.5q-119 0 -222.5 -36t-162.5 -99q-58 -64 -91 -169.5t-33 -234.5q0 -83 16 -153t46.5 -128.5t72.5 -97.5q39 -38 74 -61t80 -40.5t126 -39.5l-14 -10q-14 4 -21.5 5.5t-17.5 4.5q-176 53 -260 129q-133 115 -133 395
q0 126 35 239.5t96 178.5q132 141 407 141q97 0 178 -23t126 -65zM1069 1081l-8 -12q-61 -99 -100 -188l-7 -15l-8 4q-15 92 -70 145.5t-133 53.5q-100 0 -153 -89t-53 -259q0 -113 28.5 -195t83 -125t129.5 -43q92 0 145.5 55t65.5 162q3 25 21 25q26 0 26 -39
q0 -72 -34 -129.5t-94 -90t-134 -32.5q-122 0 -208 47.5t-131.5 140t-45.5 218.5q0 113 47.5 205t130 145t183.5 53q53 0 79 -5t86 -28q47 -16 78 -16q38 0 66 16zM893 965q-34 23 -56.5 32t-54.5 9q-78 0 -119.5 -74t-41.5 -215q0 -134 37 -221t104 -115v-12
q-51 11 -89 56.5t-58.5 119.5t-20.5 172q0 151 47.5 231t136.5 80q38 0 63.5 -11.5t51.5 -39.5v-12zM1114 553q-11 -150 -91 -228.5t-222 -78.5q-113 0 -209 67v6q82 -51 201 -51q132 0 206.5 72.5t85.5 210.5l2 14zM1137 1040l-9 -12q-66 -102 -112 -203l-25 13l8 14
q36 70 109 188l6 13zM1444 715q0 -148 -46.5 -269.5t-133 -205t-213.5 -129t-279 -45.5q-203 0 -364 83.5t-249.5 233t-88.5 338.5q0 149 48 269.5t141 208.5t222.5 133.5t286.5 45.5q141 0 266 -49.5t216.5 -139t142.5 -211t51 -263.5zM1319 741q0 137 -36 241.5
t-106.5 177.5t-173.5 110t-235 37q-191 0 -320 -68.5t-193.5 -204t-64.5 -336.5q0 -182 65.5 -307.5t193.5 -190.5t313 -65q291 0 436 176q67 82 94 176.5t27 253.5zM1167 1327q117 -47 200 -137.5t127 -219.5t44 -282q0 -152 -53 -280t-151.5 -223t-234 -146t-296.5 -51
q-111 0 -207 27.5t-195 86.5v4q77 -42 182.5 -66t211.5 -24q154 0 285 48.5t228 139.5t150 216.5t53 267.5q0 109 -23 208t-66 177t-107 140.5t-148 103.5v10z" />
    <glyph glyph-name="ordfeminine" unicode="&#xaa;" horiz-adv-x="801" 
d="M137 1186q-30 57 -78 112q48 11 99 33q98 41 186 41q137 0 197.5 -51t60.5 -166v-362l49 -70h-162q-43 -42 -84.5 -60t-95.5 -18t-116 33q52 -19 90 -19q56 0 99 19.5t89 66.5v84q-56 -64 -103 -89t-112 -25q-90 0 -148.5 53.5t-58.5 134.5q0 64 29.5 100.5t99.5 56
t203 30.5q57 4 80.5 26t23.5 68q0 38 -16 67q-35 11 -70 11q-68 0 -111 -26t-87 -97l-21 14q43 69 88 96t113 27q47 0 82 -16q-22 26 -52 37.5t-83 11.5q-64 0 -106.5 -27.5t-84.5 -95.5zM479 1077q-20 -17 -36.5 -25.5t-34.5 -12t-66 -9.5q-79 -7 -117.5 -39.5t-38.5 -91.5
q0 -52 37 -88q-10 29 -10 51q0 60 38.5 92t117.5 39q69 7 110 27v57zM477 989q-42 -11 -88 -16q-156 -12 -156 -133q0 -11 7 -39q31 -13 53 -13q82 0 132 55t52 146zM754 649h-205l-29 21h205l-68 96v362q0 63 -12.5 95.5t-48.5 66.5q50 -30 69 -69t19 -113v-363zM694 600
v-84h-645v84h645zM752 545l22 -23v-88h-674l-18 29h670v82z" />
    <glyph glyph-name="guillemotleft" unicode="&#xab;" horiz-adv-x="618" 
d="M242 676l168 278h86l-109 -278l109 -275h-95zM440 637l111 270l20 -26l-98 -240l125 -315h-129l-31 24h117zM35 676l166 278h86l-109 -278l109 -275h-94zM233 637l158 -311h-129l-31 24h115z" />
    <glyph glyph-name="logicalnot" unicode="&#xac;" 
d="M702 0v436h-634v111h888v-547h-254z" />
    <glyph glyph-name="registered" unicode="&#xae;" horiz-adv-x="1606" 
d="M426 1049q88 48 146.5 62.5t160.5 14.5q85 0 151 -24t103 -66t37 -96q0 -66 -55 -117.5t-146 -72.5q38 -109 104.5 -213.5t129.5 -155.5l-8 -2q-82 -29 -164 -82l-8 -6l-3 16q-17 109 -40.5 198t-57.5 171q-30 -17 -88 -25h-4v-209l137 -139h-342l-22 27h311l-106 108
v230l10 2q34 6 55 10.5t41 13.5l-14 37q-45 -12 -68 -14l-78 -10v-254l68 -68h-264l77 68v178l-12 -4q-20 -4 -18 -4q-10 -5 -19 -9q-2 0 -10 -4l-12 23q33 13 37 14l34 8v33q-32 0 -47 -4q-6 -1 -12.5 -2.5t-28.5 -7.5l-8 -2q2 4 5.5 14.5l7.5 22.5q2 4 8 22q2 2 2 8
q22 -2 43 -2q18 0 30 2l-2 281q-21 13 -57 27zM608 1063v-307h4q17 0 50 8v266q26 8 65 8q62 0 97 -14.5t55 -48.5q-34 23 -62.5 33t-68.5 10q-41 0 -64 -6v-246l4 2q111 23 159 63t48 109q0 63 -50.5 104t-131.5 41q-65 0 -105 -22zM924 705q18 -59 57.5 -126.5
t89.5 -123.5q47 -52 123 -103q-124 -32 -248 -108l-6 -4l-25 16q51 34 108.5 60t117.5 42q-107 76 -189 220q-27 50 -59 133l-4 10q97 34 140.5 83.5t43.5 123.5q0 28 -12 56.5t-35 59.5q68 -51 68 -143q0 -61 -43.5 -111.5t-126.5 -84.5zM1090 1163l-27 8
q-83 33 -141.5 44.5t-133.5 11.5q-119 0 -222.5 -36t-162.5 -99q-58 -64 -91 -169.5t-33 -234.5q0 -83 16 -153t46.5 -128.5t72.5 -97.5q39 -38 74 -61t80 -40.5t126 -39.5l-14 -10q-14 4 -21.5 5.5t-17.5 4.5q-176 53 -260 129q-133 115 -133 395q0 126 35 239.5t96 178.5
q132 141 407 141q97 0 178 -23t126 -65zM1444 715q0 -148 -46.5 -269.5t-133 -205t-213.5 -129t-279 -45.5q-203 0 -364 83.5t-249.5 233t-88.5 338.5q0 149 48 269.5t141 208.5t222.5 133.5t286.5 45.5q141 0 266 -49.5t216.5 -139t142.5 -211t51 -263.5zM1319 741
q0 137 -36 241.5t-106.5 177.5t-173.5 110t-235 37q-191 0 -320 -68.5t-193.5 -204t-64.5 -336.5q0 -182 65.5 -307.5t193.5 -190.5t313 -65q291 0 436 176q67 82 94 176.5t27 253.5zM1167 1327q117 -47 200 -137.5t127 -219.5t44 -282q0 -152 -53 -280t-151.5 -223
t-234 -146t-296.5 -51q-111 0 -207 27.5t-195 86.5v4q77 -42 182.5 -66t211.5 -24q154 0 285 48.5t228 139.5t150 216.5t53 267.5q0 109 -23 208t-66 177t-107 140.5t-148 103.5v10z" />
    <glyph glyph-name="macron" unicode="&#xaf;" 
d="M846 1696v-99h-748v99h748zM903 1640l23 -22v-102h-776l-19 28h772v96z" />
    <glyph glyph-name="degree" unicode="&#xb0;" horiz-adv-x="621" 
d="M432 1346q50 -26 83.5 -81t33.5 -114q0 -67 -32 -125t-85.5 -91.5t-118.5 -33.5q-107 0 -176 72l8 4q76 -55 152 -55q60 0 112 31t82.5 82.5t30.5 113.5q0 116 -100 186zM258 1384q57 0 103.5 -27t74 -75t27.5 -102q0 -56 -27.5 -104t-74 -75.5t-103.5 -27.5
q-56 0 -103 28t-74.5 75t-27.5 104q0 55 27.5 102t74.5 74.5t103 27.5zM258 1298q-50 0 -85.5 -34.5t-35.5 -85.5q0 -49 36 -85t85 -36q51 0 86 35t35 86q0 52 -35 86t-86 34z" />
    <glyph glyph-name="plusminus" unicode="&#xb1;" horiz-adv-x="1202" 
d="M154 266h524v346h348v125l23 -22v-129h-344v-320h264v-125h-815v125zM498 1147h125v-354h55v299l27 -17v-282h264v-125h-346v-336h-125v254h-293l-19 26h312v56h-344v125h344v354zM1026 211l23 -23v-129h-844l-19 29h840v123z" />
    <glyph glyph-name="twosuperior" unicode="&#xb2;" horiz-adv-x="752" 
d="M629 801v-172h-566q22 94 78.5 163.5t163.5 133.5q117 69 155 119.5t38 136.5q0 68 -43.5 109.5t-112.5 41.5t-112.5 -35.5t-43.5 -93.5q0 -44 27 -73t68 -29q44 0 75 35l9 -4q-7 -49 -43 -77t-91 -28q-43 0 -77.5 20t-55 54.5t-20.5 77.5q0 59 33 104.5t93.5 71.5
t137.5 26q75 0 136.5 -30t98.5 -82.5t37 -114.5q0 -69 -45.5 -124t-150.5 -109l-92 -48q-39 -19 -83 -57t-65 -69l-16 -25l-2 -4h51q50 83 174 143l84 43q101 50 147 106.5t46 129.5q0 60 -23.5 103t-79.5 85l4 4q39 -19 66.5 -47.5t42 -65t14.5 -79.5q0 -156 -199 -252
l-84 -41q-33 -17 -69 -41.5t-60.5 -47.5t-31.5 -40h168q84 0 122.5 6t57 23.5t26.5 52.5h13zM696 758v-211h-573l-23 20h572v205zM492 1169l-5 9q-45 94 -139 94q-41 0 -67.5 -23.5t-26.5 -60.5q0 -21 11 -41t30 -31v-8q-25 6 -44.5 29.5t-19.5 52.5q0 47 32.5 75.5
t84.5 28.5q61 0 102 -35.5t42 -89.5zM418 1096l-4 -11q-37 -114 -154 -114q-86 0 -127 71q39 -33 62 -43t55 -10q60 0 97.5 30.5t47.5 86.5z" />
    <glyph glyph-name="threesuperior" unicode="&#xb3;" horiz-adv-x="752" 
d="M190 879q-8 -36 -8 -64q0 -73 39 -113t109 -40q82 0 127 43t45 126q0 84 -47.5 138.5t-122.5 54.5q-15 0 -56 -6h-6l27 59h33q65 0 106 36t41 93q0 55 -45 94t-110 39q-60 0 -98 -31t-38 -79q0 -29 16 -47.5t42 -18.5q12 0 32 13l11 -5q-24 -32 -41.5 -41.5t-52.5 -9.5
q-45 0 -76 31t-31 76q0 43 34 78.5t92 56t132 20.5q107 0 176.5 -48t69.5 -124q0 -53 -40 -97t-95 -54q-15 -3 -15 -8q0 -8 13 -11q85 -24 130.5 -79.5t45.5 -137.5q0 -97 -78.5 -153t-216.5 -56q-120 0 -187 48t-90 149l6 2q59 23 78.5 32.5t48.5 33.5zM260 854
q-1 -5 -1.5 -8.5t-2.5 -7.5q-4 -27 -4 -43q0 -38 13.5 -63.5t51.5 -53.5l2 -6q-41 9 -65.5 43.5t-24.5 81.5q0 29 9 65zM467 924q-53 37 -113 37q-13 0 -57 -9l-12 23q37 8 63 8q51 0 76.5 -13t42.5 -46zM610 965q51 -47 70.5 -85.5t19.5 -93.5q0 -114 -88 -185t-231 -71
q-75 0 -142.5 26t-93.5 62l7 -2l49 -30q25 -16 74.5 -26.5t97.5 -10.5q86 0 155.5 31t108.5 86t39 125q0 28 -11.5 66t-25.5 58l-29 37l-4 6zM561 1333q41 -11 71 -57.5t30 -97.5q0 -113 -125 -164l-21 12q58 21 90.5 62t32.5 94q0 43 -15 74t-57 71q-1 2 -2.5 3.5t-3.5 2.5
zM461 1219q-6 3 -6 8q-24 33 -53 50t-66 17q-40 0 -64 -21t-24 -54q0 -22 16 -35l-4 -6q-37 12 -37 49q0 39 31 63.5t78 24.5q48 0 84 -24t49 -66zM336 1135q-42 -60 -111 -60q-21 0 -37 4.5t-31.5 14t-37.5 30.5v4l4 -4l20 -14q28 -20 74 -20q28 0 55 16t41 41z" />
    <glyph glyph-name="acute" unicode="&#xb4;" 
d="M795 1763l-244 -198h-107l148 198h203zM487 1481l-22 28h123l246 199l18 -25l-250 -202h-115z" />
    <glyph glyph-name="mu" unicode="&#xb5;" horiz-adv-x="1130" 
d="M963 936v-684q0 -96 15 -129t62 -33q17 0 64 16v-34l-211 -95q-2 0 -4.5 -0.5t-5.5 -1.5q-28 0 -48.5 15.5t-36 52t-26.5 92.5q-71 -71 -115 -105.5t-80.5 -47.5t-84.5 -13q-63 0 -105 17t-72 55t-55 104v-47q0 -54 4 -88.5t19 -99.5q10 -44 20 -96q16 -66 16 -97
q0 -49 -27.5 -80.5t-72.5 -31.5q-48 0 -75 30.5t-27 81.5q0 33 16 121q14 72 25 157.5t19 181t12 180t4 180.5v399h202v-588q0 -136 39 -203t117 -67q62 0 107 30t102 109v719h203z" />
    <glyph glyph-name="paragraph" unicode="&#xb6;" horiz-adv-x="1300" 
d="M498 -102v860h-19q-110 1 -167.5 16t-118.5 57v27q39 -25 75.5 -40t79 -21t105.5 -9l45 -2v54q-80 2 -134.5 8t-99.5 20.5t-77.5 37.5t-61.5 57q-78 96 -78 239q0 86 34.5 155t99.5 111.5t149 51.5q44 5 139 8q12 2 29 2h753q-9 -13 -12 -19q-49 -63 -68 -88
q-8 -14 -16.5 -29t-36.5 -63l-14 -28l-10 8q-24 68 -63.5 100.5t-102.5 32.5q-4 0 -21 -6v-1540h-110v1460h-107v-1542h-158l-22 26h154v1544h133v54h-183v-1542h-116zM1327 1479q-64 -59 -135 -193l-12 -26l-23 18l2 6q80 161 150 215zM1067 1325q-28 35 -63 35
q-13 0 -21 -2v-1542h-158l-22 26h153v1544h25q67 0 86 -61z" />
    <glyph glyph-name="cedilla" unicode="&#xb8;" 
d="M551 -74q3 1 5.5 1.5t4.5 0.5q42 0 67 -34t25 -91t-24.5 -103.5t-67.5 -72.5t-98 -26q-99 0 -156 98l8 6q51 32 99 70q3 -94 61 -94q29 0 50.5 39.5t21.5 89.5q0 67 -58 67q-29 0 -49 -31l-18 17q37 101 47 151h102zM610 -18l23 -23l-10 -35l-25 13zM657 -100
q68 -55 68 -156q0 -80 -59 -141.5t-136 -61.5q-38 0 -73.5 12.5t-57.5 32.5v8q56 -32 117 -32q46 0 87 29.5t67 78.5t26 99q0 68 -49 125zM475 -180q7 33 45 33v-11q-18 -9 -31 -39zM479 -272l23 -13l-17 -12z" />
    <glyph glyph-name="onesuperior" unicode="&#xb9;" horiz-adv-x="752" 
d="M436 1366v-670l62 -67h-250l78 67v492q-35 -17 -72 -17q-27 0 -43 11.5t-41 44.5l8 -2l37 -25q16 -8 39 -8q31 0 72 20v48q-42 -31 -97 -31q-27 0 -49 14.5t-22 32.5q0 13 8 23t20 10q25 0 25 -21v-8v-6q0 -10 16 -10q41 0 80 29t58 73h71zM479 1343l23 -12v-657
l112 -127h-331l-13 20h303l-94 107v669z" />
    <glyph glyph-name="ordmasculine" unicode="&#xba;" horiz-adv-x="829" 
d="M707 1040q0 -150 -85.5 -236.5t-234.5 -86.5q-148 0 -243 91.5t-95 235.5q0 100 41.5 174.5t117.5 114t177 39.5q94 0 168 -42t114 -116.5t40 -173.5zM287 803q44 -25 94 -25q180 0 180 277q0 106 -31 172q-45 20 -84 20q-192 0 -192 -274q0 -56 7 -93t26 -77zM274 809
q-41 72 -41 184q0 275 193 275q35 0 55.5 -7t42.5 -24q-26 38 -59.5 55t-79.5 17q-192 0 -192 -277q0 -85 19 -137.5t62 -85.5zM172 725l6 8q88 -71 209 -71q166 0 270.5 100.5t104.5 259.5q0 48 -12.5 103.5t-32.5 91.5t-41 43l6 8q100 -88 100 -248q0 -175 -100 -277
t-274 -102q-136 0 -236 84zM709 600v-84h-646v84h646zM766 545l22 -23v-88h-673l-19 29h670v82z" />
    <glyph glyph-name="guillemotright" unicode="&#xbb;" horiz-adv-x="627" 
d="M301 670l-162 -273h-94l109 289l-109 266h94zM90 324l-12 28h96l31 54l14 -37l-29 -45h-100zM506 670l-164 -273h-94l108 289l-108 266h94zM588 651l-193 -327h-102l-10 28h94l178 299l-158 279l47 -35z" />
    <glyph glyph-name="onequarter" unicode="&#xbc;" horiz-adv-x="1755" 
d="M436 1366v-670l62 -67h-250l78 67v492q-35 -17 -72 -17q-27 0 -43 11.5t-41 44.5l8 -2l37 -25q11 -8 39 -8q31 0 72 20v48q-42 -31 -97 -31q-29 0 -50 14t-21 33q0 13 8 23t20 10q25 0 25 -23v-8v-4q0 -10 16 -10q41 0 80 29t58 73h71zM479 1343l23 -12v-657l112 -127
h-331l-13 20h303l-94 105v671zM1329 1386l-792 -1310h-95l791 1310h96zM461 16h104l811 1342l19 -21l-813 -1347h-111zM1407 819q-13 -92 -113 -258q-33 -58 -67.5 -104.5t-96.5 -112.5l-2 -14h41q64 66 99 110.5t78 116.5q34 58 56 107.5t50 128.5l21 -9q-13 -53 -46 -118
q-88 -184 -157 -256l-70 -74l-6 -6h201v223q70 39 102 92h12v-315h52v293l22 -13v-280h6q34 0 54 -18t20 -50q0 -18 -11.5 -30.5t-29.5 -12.5q-16 0 -27.5 8.5t-11.5 20.5q0 8 4 16l4 4q2 2 2 4q0 15 -30 15h-54v-137l76 -68h-264l74 63v54h-295l-13 22h308v66h-357l2 20
q44 55 65 84.5t37.5 58.5t37.5 76q32 74 51 138q26 93 26 147v8h150zM1675 305q25 -7 39.5 -25.5t14.5 -41.5q0 -25 -15.5 -43.5t-38.5 -18.5q-20 0 -51 19l-4 8q29 -13 41 -13q20 0 34.5 15.5t14.5 36.5q0 29 -35 63zM1694 0h-320l-20 20h299l-92 107v90l22 -10v-80z" />
    <glyph glyph-name="onehalf" unicode="&#xbd;" horiz-adv-x="1755" 
d="M436 1366v-670l62 -67h-250l78 67v492q-35 -17 -72 -17q-27 0 -43 11.5t-41 44.5l8 -2l37 -25q11 -8 39 -8q31 0 72 20v48q-42 -31 -97 -31q-29 0 -50 14t-21 33q0 13 8 23t20 10q25 0 25 -23v-8v-4q0 -10 16 -10q41 0 80 29t58 73h71zM479 1343l23 -12v-657l112 -127
h-331l-13 20h303l-94 105v671zM1329 1386l-792 -1310h-95l791 1310h96zM461 16h104l811 1342l19 -21l-813 -1347h-111zM1632 254v-172h-565q22 94 79 164t163 133q85 52 123 85t54.5 72t16.5 99q0 68 -44 109.5t-113 41.5t-111.5 -34.5t-42.5 -92.5q0 -44 26.5 -74t65.5 -30
q24 0 41 7.5t35 27.5l10 -4q-9 -50 -44.5 -77.5t-90.5 -27.5q-43 0 -78 20t-55.5 54t-20.5 78q0 90 73.5 146.5t191.5 56.5q56 0 106.5 -18t87 -48.5t58.5 -72.5t22 -89q0 -68 -46.5 -123t-152.5 -110l-92 -47q-40 -20 -84.5 -59t-62.5 -68l-15 -25l-4 -4h54q21 39 67.5 77
t106.5 66l82 43q101 51 146.5 107t45.5 129q0 60 -24 103.5t-78 84.5l4 4q55 -25 89 -77t34 -115q0 -156 -199 -252l-84 -41q-54 -25 -101.5 -63t-60.5 -66h168q84 0 122.5 6t57.5 23.5t27 52.5h12zM1700 211v-211h-574l-22 20h573v205zM1495 623l-4 8q-46 94 -139 94
q-40 0 -67.5 -23.5t-27.5 -58.5q0 -47 43 -74v-8q-27 6 -45 30t-18 52q0 46 32 75.5t83 29.5q62 0 102.5 -35t40.5 -90zM1421 549l-4 -10q-36 -115 -153 -115q-85 0 -125 72q38 -33 60 -43.5t56 -10.5q58 0 96 30.5t48 86.5z" />
    <glyph glyph-name="threequarters" unicode="&#xbe;" horiz-adv-x="1755" 
d="M190 877q-8 -33 -8 -62q0 -73 39 -113t109 -40q82 0 127 43t45 126q0 84 -47.5 138.5t-122.5 54.5q-15 0 -56 -6h-6l27 59h33q65 0 106 35.5t41 91.5q0 57 -45 96t-110 39q-58 0 -97 -31.5t-39 -78.5q0 -29 16 -47.5t42 -18.5q15 0 32 13l11 -5q-24 -32 -41.5 -41.5
t-52.5 -9.5q-44 0 -75.5 31.5t-31.5 73.5q0 44 34 80t91.5 56.5t132.5 20.5q107 0 176.5 -49t69.5 -125q0 -53 -40.5 -96.5t-94.5 -52.5q-15 -3 -15 -10q0 -6 13 -9q85 -24 130.5 -80.5t45.5 -136.5q0 -97 -78.5 -153t-216.5 -56q-120 0 -187 48t-90 149l6 2q51 18 73 29
t54 35zM260 854q-1 -5 -1.5 -9.5t-2.5 -8.5q-4 -25 -4 -41q0 -38 13.5 -63.5t51.5 -53.5l2 -6q-41 9 -65.5 43.5t-24.5 81.5q0 30 9 63zM467 924q-53 37 -113 37q-13 0 -57 -9l-12 23q37 8 63 8q48 0 75 -14t44 -45zM610 965q51 -47 70.5 -85.5t19.5 -93.5q0 -114 -88 -185
t-231 -71q-75 0 -142.5 26t-93.5 62l7 -4l49 -28q25 -16 74.5 -26.5t97.5 -10.5q86 0 155.5 31t108.5 86t39 125q0 28 -11.5 66t-25.5 58l-29 37l-4 6zM561 1331q41 -9 71 -55.5t30 -97.5q0 -57 -30 -97t-95 -67l-21 12q57 20 90 61t33 93q0 45 -15 76t-57 71q-1 1 -2.5 2
t-3.5 2zM461 1219q-6 3 -6 6q-51 69 -119 69q-40 0 -64 -21t-24 -56q0 -20 16 -33l-4 -6q-37 12 -37 49q0 38 31.5 63t77.5 25q48 0 84 -24t49 -66zM336 1135q-42 -60 -111 -60q-29 0 -50 9t-56 38v6l4 -4l20 -14q28 -20 74 -20q28 0 55 16t41 41zM1327 1386l-790 -1310h-95
l791 1310h94zM459 16h106l811 1342l17 -21l-811 -1347h-111zM1407 819q-13 -92 -113 -258q-37 -63 -68.5 -104.5t-95.5 -112.5l-2 -14h41q64 66 99 110.5t78 116.5q34 58 56 107.5t50 128.5l21 -9q-13 -53 -46 -118q-94 -190 -157 -256l-72 -74l-4 -6h201v223q66 36 102 92
h12v-315h50v293l24 -13v-280h6q34 0 54 -18t20 -50q0 -18 -11.5 -30.5t-29.5 -12.5q-17 0 -28 8t-11 21q0 8 4 16l4 4q2 2 2 4q0 15 -30 15h-54v-137l76 -68h-264l74 63v54h-295l-15 22h310v66h-357v20q60 72 87.5 114.5t54.5 104.5q34 79 49 138q28 89 28 147v8h150z
M1675 305q25 -7 39.5 -25.5t14.5 -41.5q0 -25 -16 -43.5t-38 -18.5q-18 0 -53 19l-2 8q26 -13 41 -13q20 0 34.5 15.5t14.5 36.5q0 29 -35 63zM1694 0h-320l-22 20h301l-94 107v90l24 -10v-80z" />
    <glyph glyph-name="questiondown" unicode="&#xbf;" horiz-adv-x="889" 
d="M573 786q39 -31 54.5 -63.5t15.5 -85.5q0 -69 -28.5 -143.5t-73.5 -126.5t-111 -119l-41 -45q-42 -47 -59 -79t-17 -73q0 -34 8.5 -61t32.5 -74l-35 29q-9 14 -18.5 34t-11.5 38t-2 34q0 56 26 101.5t99 117.5q76 76 115.5 126.5t62.5 107.5q28 76 28 153q0 92 -75 136
l8 8q27 48 34 65.5t7 40.5q0 33 -8 55t-31 54l8 6q32 -27 44.5 -52t12.5 -63q0 -39 -45 -121zM702 268q45 -51 59.5 -88t14.5 -98q0 -85 -45.5 -149.5t-128 -101t-186.5 -36.5q-106 0 -194.5 40.5t-138.5 112t-50 158.5q0 93 45.5 163t157.5 145l106 71q57 39 94 91.5
t37 95.5q0 2 -0.5 3.5t-1.5 2.5l-2 35v4q0 37 33 37q15 0 28.5 -16t22 -40t8.5 -51q0 -70 -35.5 -139t-115.5 -152q-100 -101 -135 -160.5t-35 -129.5q0 -86 50 -138.5t132 -52.5q47 0 86 21t61.5 55.5t22.5 73.5q0 62 -82 112l63 37q64 39 129 94zM397 1065
q56 0 93.5 -37.5t37.5 -91.5t-38.5 -92.5t-92.5 -38.5q-53 0 -91 39t-38 92t37 91t92 38zM449 725q-51 4 -77 15.5t-55 43.5l7 9q43 -24 62 -30t54 -9zM778 264q90 -76 90 -213q0 -93 -58.5 -170t-160 -122.5t-221.5 -45.5q-101 0 -195 43.5t-159 118.5l6 12
q73 -71 161 -108t187 -37q114 0 209.5 43t149 119.5t53.5 171.5q0 53 -15 84l-43 94z" />
    <glyph glyph-name="Agrave" unicode="&#xc0;" horiz-adv-x="1550" 
d="M967 1366l-103 -119l162 -436l41 23l-147 393l104 123l27 -11l-101 -118l140 -373l47 39q12 8 22 18l17 17q22 -105 79 -205q-20 2 -43 2q-93 0 -139 -31l182 -489l150 -117h-504l137 117l-110 290q-36 -35 -90 -101.5t-80 -108.5l-23 6q34 57 70.5 102.5t105.5 116.5
l9 10l-19 45q-50 -40 -107.5 -107t-91.5 -124l-18 30q-54 87 -133 189l-8 12q-78 -175 -78 -287q0 -39 8.5 -68.5t35.5 -68.5t81 -106q2 -2 8.5 -11.5t13.5 -17.5h-540l-21 27h510l-18 22q-66 81 -86.5 124.5t-20.5 100.5q0 58 19.5 126.5t64.5 181.5l-45 45
q-12 -32 -33 -95l-32 -100q-27 -81 -27 -137q0 -38 7.5 -65.5t28 -55.5t64.5 -74q1 -2 17 -18h-500q81 44 127.5 83t87.5 99q89 139 139 287q10 24 37 117l4 12q-50 45 -151 55q55 88 84 172l61 -59q42 -34 55 -43l19 43l-12 10l-43 37q-15 13 -41 35l-9 6l17 22
q49 -31 100 -81l137 374l-106 115h461zM719 1044l-109 -290l11 -13l41 -45q31 -36 83 -112l11 -15q34 44 100 107zM674 1159l-158 -420q88 -93 131 -153l55 -78l35 43q-66 103 -162 194l127 338zM1264 874q20 -89 110 -247q-12 2 -26 2q-6 2 -80 8q-74 4 -80 4h-21l166 -442
l223 -199h-577l-21 27h531l-178 159l-178 471q30 9 77 9q51 0 103 -7l16 -2q-47 89 -65.5 132.5t-30.5 103.5z" />
    <glyph glyph-name="Agrave" unicode="&#x410;" horiz-adv-x="1550" 
d="M967 1366l-103 -119l162 -436l41 23l-147 393l104 123l27 -11l-101 -118l140 -373l47 39q12 8 22 18l17 17q22 -105 79 -205q-20 2 -43 2q-93 0 -139 -31l182 -489l150 -117h-504l137 117l-110 290q-36 -35 -90 -101.5t-80 -108.5l-23 6q34 57 70.5 102.5t105.5 116.5
l9 10l-19 45q-50 -40 -107.5 -107t-91.5 -124l-18 30q-54 87 -133 189l-8 12q-78 -175 -78 -287q0 -39 8.5 -68.5t35.5 -68.5t81 -106q2 -2 8.5 -11.5t13.5 -17.5h-540l-21 27h510l-18 22q-66 81 -86.5 124.5t-20.5 100.5q0 58 19.5 126.5t64.5 181.5l-45 45
q-12 -32 -33 -95l-32 -100q-27 -81 -27 -137q0 -38 7.5 -65.5t28 -55.5t64.5 -74q1 -2 17 -18h-500q81 44 127.5 83t87.5 99q89 139 139 287q10 24 37 117l4 12q-50 45 -151 55q55 88 84 172l61 -59q42 -34 55 -43l19 43l-12 10l-43 37q-15 13 -41 35l-9 6l17 22
q49 -31 100 -81l137 374l-106 115h461zM719 1044l-109 -290l11 -13l41 -45q31 -36 83 -112l11 -15q34 44 100 107zM674 1159l-158 -420q88 -93 131 -153l55 -78l35 43q-66 103 -162 194l127 338zM1264 874q20 -89 110 -247q-12 2 -26 2q-6 2 -80 8q-74 4 -80 4h-21l166 -442
l223 -199h-577l-21 27h531l-178 159l-178 471q30 9 77 9q51 0 103 -7l16 -2q-47 89 -65.5 132.5t-30.5 103.5z" />
    <glyph glyph-name="Aacute" unicode="&#xc1;" horiz-adv-x="1550" 
d="M967 1366l-103 -119l162 -436l41 23l-147 393l104 123l27 -11l-101 -118l140 -373l47 39q12 8 22 18l17 17q22 -105 79 -205q-20 2 -43 2q-93 0 -139 -31l182 -489l150 -117h-504l137 117l-110 290q-36 -35 -90 -101.5t-80 -108.5l-23 6q34 57 70.5 102.5t105.5 116.5
l9 10l-19 45q-50 -40 -107.5 -107t-91.5 -124l-18 30q-54 87 -133 189l-8 12q-78 -175 -78 -287q0 -39 8.5 -68.5t35.5 -68.5t81 -106q2 -2 8.5 -11.5t13.5 -17.5h-540l-21 27h510l-18 22q-66 81 -86.5 124.5t-20.5 100.5q0 58 19.5 126.5t64.5 181.5l-45 45
q-12 -32 -33 -95l-32 -100q-27 -81 -27 -137q0 -38 7.5 -65.5t28 -55.5t64.5 -74q1 -2 17 -18h-500q81 44 127.5 83t87.5 99q89 139 139 287q10 24 37 117l4 12q-50 45 -151 55q55 88 84 172l61 -59q42 -34 55 -43l19 43l-12 10l-43 37q-15 13 -41 35l-9 6l17 22
q49 -31 100 -81l137 374l-106 115h461zM719 1044l-109 -290l11 -13l41 -45q31 -36 83 -112l11 -15q34 44 100 107zM674 1159l-158 -420q88 -93 131 -153l55 -78l35 43q-66 103 -162 194l127 338zM1264 874q20 -89 110 -247q-12 2 -26 2q-6 2 -80 8q-74 4 -80 4h-21l166 -442
l223 -199h-577l-21 27h531l-178 159l-178 471q30 9 77 9q51 0 103 -7l16 -2q-47 89 -65.5 132.5t-30.5 103.5zM924 1763l-244 -198h-107l148 198h203zM616 1481l-22 28h123l246 199l18 -25l-250 -202h-115z" />
    <glyph glyph-name="Aacute" unicode="&#x411;" horiz-adv-x="1550" 
d="M967 1366l-103 -119l162 -436l41 23l-147 393l104 123l27 -11l-101 -118l140 -373l47 39q12 8 22 18l17 17q22 -105 79 -205q-20 2 -43 2q-93 0 -139 -31l182 -489l150 -117h-504l137 117l-110 290q-36 -35 -90 -101.5t-80 -108.5l-23 6q34 57 70.5 102.5t105.5 116.5
l9 10l-19 45q-50 -40 -107.5 -107t-91.5 -124l-18 30q-54 87 -133 189l-8 12q-78 -175 -78 -287q0 -39 8.5 -68.5t35.5 -68.5t81 -106q2 -2 8.5 -11.5t13.5 -17.5h-540l-21 27h510l-18 22q-66 81 -86.5 124.5t-20.5 100.5q0 58 19.5 126.5t64.5 181.5l-45 45
q-12 -32 -33 -95l-32 -100q-27 -81 -27 -137q0 -38 7.5 -65.5t28 -55.5t64.5 -74q1 -2 17 -18h-500q81 44 127.5 83t87.5 99q89 139 139 287q10 24 37 117l4 12q-50 45 -151 55q55 88 84 172l61 -59q42 -34 55 -43l19 43l-12 10l-43 37q-15 13 -41 35l-9 6l17 22
q49 -31 100 -81l137 374l-106 115h461zM719 1044l-109 -290l11 -13l41 -45q31 -36 83 -112l11 -15q34 44 100 107zM674 1159l-158 -420q88 -93 131 -153l55 -78l35 43q-66 103 -162 194l127 338zM1264 874q20 -89 110 -247q-12 2 -26 2q-6 2 -80 8q-74 4 -80 4h-21l166 -442
l223 -199h-577l-21 27h531l-178 159l-178 471q30 9 77 9q51 0 103 -7l16 -2q-47 89 -65.5 132.5t-30.5 103.5zM924 1763l-244 -198h-107l148 198h203zM616 1481l-22 28h123l246 199l18 -25l-250 -202h-115z" />
    <glyph glyph-name="Acircumflex" unicode="&#xc2;" horiz-adv-x="1325" 
d="M68 1229q234 157 534 157q140 0 251.5 -44t172.5 -123.5t61 -178.5t-59.5 -168t-175.5 -104v-12q25 -5 59 -17q75 18 128 60t81.5 104.5t28.5 136.5q0 142 -117 250v6q81 -60 111.5 -113.5t30.5 -138.5q0 -79 -24 -140.5t-74.5 -105t-127.5 -73.5q96 -43 151.5 -126
t55.5 -189q0 -98 -49 -172.5t-138 -115t-210 -40.5h-715l137 119v432q-61 0 -137 -12l-8 28q70 7 145 10v54h-24q-81 -2 -119 -6q-5 0 -10.5 -0.5t-12.5 -1.5l43 96l17 -2q24 -2 59 -2q18 0 25 -0.5t14 -1.5h8v374zM381 1245v-450l33 -2l16 2v407q50 24 84.5 32.5t83.5 8.5
q95 0 149 -34t93 -117l-29 16q-73 113 -213 113q-48 0 -74.5 -7.5t-66.5 -35.5v-383q22 -2 43 -2q172 0 260 47q53 28 86 86t33 125q0 115 -78 186.5t-205 71.5q-108 0 -215 -64zM381 711v-551h49v491q49 4 105 4q164 0 238 -30.5t118 -116.5h-12q-49 69 -122.5 95
t-219.5 26q-41 0 -80 -2v-467h32q113 0 181 9.5t118 33.5q130 59 130 243q0 84 -38.5 149t-101.5 87q-50 19 -119.5 26t-193.5 7q-6 0 -84 -4zM1128 641q31 -23 57 -62.5t39 -87t13 -92.5q0 -124 -54.5 -214.5t-158 -137.5t-248.5 -47h-680l-16 27h631q139 0 215.5 16.5
t138.5 60.5q145 102 145 293q0 71 -21.5 125t-70.5 111z" />
    <glyph glyph-name="Acircumflex" unicode="&#x412;" horiz-adv-x="1325" 
d="M68 1229q234 157 534 157q140 0 251.5 -44t172.5 -123.5t61 -178.5t-59.5 -168t-175.5 -104v-12q25 -5 59 -17q75 18 128 60t81.5 104.5t28.5 136.5q0 142 -117 250v6q81 -60 111.5 -113.5t30.5 -138.5q0 -79 -24 -140.5t-74.5 -105t-127.5 -73.5q96 -43 151.5 -126
t55.5 -189q0 -98 -49 -172.5t-138 -115t-210 -40.5h-715l137 119v432q-61 0 -137 -12l-8 28q70 7 145 10v54h-24q-81 -2 -119 -6q-5 0 -10.5 -0.5t-12.5 -1.5l43 96l17 -2q24 -2 59 -2q18 0 25 -0.5t14 -1.5h8v374zM381 1245v-450l33 -2l16 2v407q50 24 84.5 32.5t83.5 8.5
q95 0 149 -34t93 -117l-29 16q-73 113 -213 113q-48 0 -74.5 -7.5t-66.5 -35.5v-383q22 -2 43 -2q172 0 260 47q53 28 86 86t33 125q0 115 -78 186.5t-205 71.5q-108 0 -215 -64zM381 711v-551h49v491q49 4 105 4q164 0 238 -30.5t118 -116.5h-12q-49 69 -122.5 95
t-219.5 26q-41 0 -80 -2v-467h32q113 0 181 9.5t118 33.5q130 59 130 243q0 84 -38.5 149t-101.5 87q-50 19 -119.5 26t-193.5 7q-6 0 -84 -4zM1128 641q31 -23 57 -62.5t39 -87t13 -92.5q0 -124 -54.5 -214.5t-158 -137.5t-248.5 -47h-680l-16 27h631q139 0 215.5 16.5
t138.5 60.5q145 102 145 293q0 71 -21.5 125t-70.5 111z" />
    <glyph glyph-name="Atilde" unicode="&#xc3;" horiz-adv-x="1550" 
d="M967 1366l-103 -119l162 -436l41 23l-147 393l104 123l27 -11l-101 -118l140 -373l47 39q12 8 22 18l17 17q22 -105 79 -205q-20 2 -43 2q-93 0 -139 -31l182 -489l150 -117h-504l137 117l-110 290q-36 -35 -90 -101.5t-80 -108.5l-23 6q34 57 70.5 102.5t105.5 116.5
l9 10l-19 45q-50 -40 -107.5 -107t-91.5 -124l-18 30q-54 87 -133 189l-8 12q-78 -175 -78 -287q0 -39 8.5 -68.5t35.5 -68.5t81 -106q2 -2 8.5 -11.5t13.5 -17.5h-540l-21 27h510l-18 22q-66 81 -86.5 124.5t-20.5 100.5q0 58 19.5 126.5t64.5 181.5l-45 45
q-12 -32 -33 -95l-32 -100q-27 -81 -27 -137q0 -38 7.5 -65.5t28 -55.5t64.5 -74q1 -2 17 -18h-500q81 44 127.5 83t87.5 99q89 139 139 287q10 24 37 117l4 12q-50 45 -151 55q55 88 84 172l61 -59q42 -34 55 -43l19 43l-12 10l-43 37q-15 13 -41 35l-9 6l17 22
q49 -31 100 -81l137 374l-106 115h461zM719 1044l-109 -290l11 -13l41 -45q31 -36 83 -112l11 -15q34 44 100 107zM674 1159l-158 -420q88 -93 131 -153l55 -78l35 43q-66 103 -162 194l127 338zM1264 874q20 -89 110 -247q-12 2 -26 2q-6 2 -80 8q-74 4 -80 4h-21l166 -442
l223 -199h-577l-21 27h531l-178 159l-178 471q30 9 77 9q51 0 103 -7l16 -2q-47 89 -65.5 132.5t-30.5 103.5zM1016 1759q2 -12 2 -26q0 -74 -45.5 -124t-110.5 -50q-33 0 -77 13.5t-109 45.5q-67 33 -94 33q-31 0 -51.5 -21t-24.5 -57h-72v8q0 79 54 137t129 58
q45 0 74.5 -11.5t113.5 -62.5q51 -29 76 -29q27 0 45 20t18 54v12h72zM1073 1731l21 -19v-8q0 -85 -54.5 -146t-130.5 -61q-51 0 -112 31l12 12q59 -20 96 -20q74 0 116 50.5t50 147.5zM588 1604v-31q-21 -32 -29 -74h-80l-14 23h78q12 57 45 82z" />
    <glyph glyph-name="Atilde" unicode="&#x413;" horiz-adv-x="1550" 
d="M967 1366l-103 -119l162 -436l41 23l-147 393l104 123l27 -11l-101 -118l140 -373l47 39q12 8 22 18l17 17q22 -105 79 -205q-20 2 -43 2q-93 0 -139 -31l182 -489l150 -117h-504l137 117l-110 290q-36 -35 -90 -101.5t-80 -108.5l-23 6q34 57 70.5 102.5t105.5 116.5
l9 10l-19 45q-50 -40 -107.5 -107t-91.5 -124l-18 30q-54 87 -133 189l-8 12q-78 -175 -78 -287q0 -39 8.5 -68.5t35.5 -68.5t81 -106q2 -2 8.5 -11.5t13.5 -17.5h-540l-21 27h510l-18 22q-66 81 -86.5 124.5t-20.5 100.5q0 58 19.5 126.5t64.5 181.5l-45 45
q-12 -32 -33 -95l-32 -100q-27 -81 -27 -137q0 -38 7.5 -65.5t28 -55.5t64.5 -74q1 -2 17 -18h-500q81 44 127.5 83t87.5 99q89 139 139 287q10 24 37 117l4 12q-50 45 -151 55q55 88 84 172l61 -59q42 -34 55 -43l19 43l-12 10l-43 37q-15 13 -41 35l-9 6l17 22
q49 -31 100 -81l137 374l-106 115h461zM719 1044l-109 -290l11 -13l41 -45q31 -36 83 -112l11 -15q34 44 100 107zM674 1159l-158 -420q88 -93 131 -153l55 -78l35 43q-66 103 -162 194l127 338zM1264 874q20 -89 110 -247q-12 2 -26 2q-6 2 -80 8q-74 4 -80 4h-21l166 -442
l223 -199h-577l-21 27h531l-178 159l-178 471q30 9 77 9q51 0 103 -7l16 -2q-47 89 -65.5 132.5t-30.5 103.5zM1016 1759q2 -12 2 -26q0 -74 -45.5 -124t-110.5 -50q-33 0 -77 13.5t-109 45.5q-67 33 -94 33q-31 0 -51.5 -21t-24.5 -57h-72v8q0 79 54 137t129 58
q45 0 74.5 -11.5t113.5 -62.5q51 -29 76 -29q27 0 45 20t18 54v12h72zM1073 1731l21 -19v-8q0 -85 -54.5 -146t-130.5 -61q-51 0 -112 31l12 12q59 -20 96 -20q74 0 116 50.5t50 147.5zM588 1604v-31q-21 -32 -29 -74h-80l-14 23h78q12 57 45 82z" />
    <glyph glyph-name="Adieresis" unicode="&#xc4;" horiz-adv-x="1550" 
d="M1264 874q20 -89 110 -247q-12 2 -26 2q-6 2 -80 8q-74 4 -80 4h-21l166 -442l133 -103v-420h-51l-18 23h41v387l-127 100l-178 471q30 9 77 9q51 0 103 -7l16 -2q-47 89 -65.5 132.5t-30.5 103.5zM0 82q81 44 127.5 83t87.5 99q89 139 139 287q10 24 37 117l4 12
q-50 45 -151 55q55 88 84 172l61 -59q42 -34 55 -43l19 43l-12 10l-43 37q-15 13 -41 35l-9 6l17 22q49 -31 100 -81l137 374l-106 115h461l-103 -119l162 -436l41 23l-147 393l104 123l27 -11l-101 -118l140 -373l47 39q12 8 22 18l17 17q22 -105 79 -205q-20 2 -43 2
q-93 0 -139 -31l182 -489l150 -117v-361h-27q0 67 -22.5 116.5t-63.5 101.5q-37 44 -123 61h-952q-69 -27 -100 -63q-33 -39 -58 -91t-28 -112h-31v348zM442 211q0 68 20 172t56 203l184 497l-28 76q-13 -35 -49.5 -132.5t-66.5 -178.5t-70 -190t-46 -126l-32 -100
q-12 -37 -25.5 -135.5t-13.5 -130.5q0 -43 295 -43q113 0 222 4.5t159 7.5l-191 541l-137 368l-172 -462q-37 -99 -53 -167.5t-18.5 -114.5t-4.5 -85q0 -27 248 -27q121 0 268 11l12 -27q-204 -16 -331 -16q-226 0 -226 55zM225 -72q-15 -7 -44 -26t-46 -45
q-32 -47 -43.5 -94t-13.5 -70h-23q3 59 23.5 117.5t48.5 87.5q41 39 90 57h995l37 -27h-1024z" />
    <glyph glyph-name="Adieresis" unicode="&#x414;" horiz-adv-x="1550" 
d="M1264 874q20 -89 110 -247q-12 2 -26 2q-6 2 -80 8q-74 4 -80 4h-21l166 -442l133 -103v-420h-51l-18 23h41v387l-127 100l-178 471q30 9 77 9q51 0 103 -7l16 -2q-47 89 -65.5 132.5t-30.5 103.5zM0 82q81 44 127.5 83t87.5 99q89 139 139 287q10 24 37 117l4 12
q-50 45 -151 55q55 88 84 172l61 -59q42 -34 55 -43l19 43l-12 10l-43 37q-15 13 -41 35l-9 6l17 22q49 -31 100 -81l137 374l-106 115h461l-103 -119l162 -436l41 23l-147 393l104 123l27 -11l-101 -118l140 -373l47 39q12 8 22 18l17 17q22 -105 79 -205q-20 2 -43 2
q-93 0 -139 -31l182 -489l150 -117v-361h-27q0 67 -22.5 116.5t-63.5 101.5q-37 44 -123 61h-952q-69 -27 -100 -63q-33 -39 -58 -91t-28 -112h-31v348zM442 211q0 68 20 172t56 203l184 497l-28 76q-13 -35 -49.5 -132.5t-66.5 -178.5t-70 -190t-46 -126l-32 -100
q-12 -37 -25.5 -135.5t-13.5 -130.5q0 -43 295 -43q113 0 222 4.5t159 7.5l-191 541l-137 368l-172 -462q-37 -99 -53 -167.5t-18.5 -114.5t-4.5 -85q0 -27 248 -27q121 0 268 11l12 -27q-204 -16 -331 -16q-226 0 -226 55zM225 -72q-15 -7 -44 -26t-46 -45
q-32 -47 -43.5 -94t-13.5 -70h-23q3 59 23.5 117.5t48.5 87.5q41 39 90 57h995l37 -27h-1024z" />
    <glyph glyph-name="Aring" unicode="&#xc5;" horiz-adv-x="1274" 
d="M1124 1366l-16 -20q-63 -76 -93.5 -129.5t-68.5 -157.5q-14 32 -14 33q-40 84 -76 123t-95 53t-173 14q-99 0 -180 -4v-461h63v408q68 6 145 6q87 0 139.5 -11t88 -39t67.5 -81q-10 6 -20 16q-53 41 -55 41q-36 27 -78 37q-47 8 -129 8q-35 0 -111 -4h-20v-381h182
l129 178v-430l-129 166h-272v-561h63v514h217l27 -27h-217v-487h14q143 0 236 16q53 12 99.5 45.5t74.5 81.5l53 90l12 23q16 -73 38 -125.5t58 -99.5t97 -105h-1121l152 115v446q-51 -5 -83 -16t-69 -35l-14 21q32 25 67 37t99 20v47q-6 1 -11 1.5t-10 0.5q-49 0 -99.5 -20
t-90.5 -56q25 86 73 122t138 38v428l-152 121h1065zM1174 1296l-9 -10q-81 -110 -108 -155.5t-53 -118.5l-19 20q39 88 76 149t98 136zM879 963v-443l-25 12v443zM1294 90l-53 -90h-1091l-17 27h1094l35 63q-77 71 -122 134.5t-81 150.5l33 -13q34 -80 69 -128t117 -128z
" />
    <glyph glyph-name="Aring" unicode="&#x415;" horiz-adv-x="1274" 
d="M1124 1366l-16 -20q-63 -76 -93.5 -129.5t-68.5 -157.5q-14 32 -14 33q-40 84 -76 123t-95 53t-173 14q-99 0 -180 -4v-461h63v408q68 6 145 6q87 0 139.5 -11t88 -39t67.5 -81q-10 6 -20 16q-53 41 -55 41q-36 27 -78 37q-47 8 -129 8q-35 0 -111 -4h-20v-381h182
l129 178v-430l-129 166h-272v-561h63v514h217l27 -27h-217v-487h14q143 0 236 16q53 12 99.5 45.5t74.5 81.5l53 90l12 23q16 -73 38 -125.5t58 -99.5t97 -105h-1121l152 115v446q-51 -5 -83 -16t-69 -35l-14 21q32 25 67 37t99 20v47q-6 1 -11 1.5t-10 0.5q-49 0 -99.5 -20
t-90.5 -56q25 86 73 122t138 38v428l-152 121h1065zM1174 1296l-9 -10q-81 -110 -108 -155.5t-53 -118.5l-19 20q39 88 76 149t98 136zM879 963v-443l-25 12v443zM1294 90l-53 -90h-1091l-17 27h1094l35 63q-77 71 -122 134.5t-81 150.5l33 -13q34 -80 69 -128t117 -128z
" />
    <glyph glyph-name="AE" unicode="&#xc6;" horiz-adv-x="2077" 
d="M1907 1264q-78 -4 -147.5 -45.5t-149.5 -128.5l-174 -193l352 -717l285 -190h-637l-29 26h580l-213 146l-367 735l186 209q49 54 99.5 94t99.5 60t102 24zM426 160l172 -180h-516l-25 36h480l-144 156l221 512l189 -233v45l-205 243l-242 -559l119 -102h-475l156 106
l290 713q-14 27 -44 78.5t-62 85.5q-29 44 -48 66.5t-45 46t-71 63.5q-24 22 -48.5 38t-40 24t-38.5 21t-33 23v13h512l-2 -10q-69 -35 -105 -57t-36 -52q0 -29 12.5 -69.5t40.5 -77.5l365 -463v610l-129 119h467l-137 -133v-605l53 64v532l112 109l15 -20l-103 -101v-489
l310 370q79 96 79 150q0 37 -43 69.5t-98 43.5v10h526v-10q-52 -13 -84 -30.5t-100 -70.5q-58 -43 -91 -74.5t-97 -107.5l-140 -166l369 -717l168 -108h-518l131 98l-248 496l-164 -199v-287l164 -190h-512l-26 26h477l-127 154v309l174 215l-23 45l-204 -247v-312l120 -108
h-458l133 112v234l-172 217zM745 733l-274 373q-41 54 -41 102q0 46 41 71t107 32l18 -23q-58 -3 -95.5 -28t-37.5 -68t41 -98l246 -320z" />
    <glyph glyph-name="AE" unicode="&#x416;" horiz-adv-x="2077" 
d="M1907 1264q-78 -4 -147.5 -45.5t-149.5 -128.5l-174 -193l352 -717l285 -190h-637l-29 26h580l-213 146l-367 735l186 209q49 54 99.5 94t99.5 60t102 24zM426 160l172 -180h-516l-25 36h480l-144 156l221 512l189 -233v45l-205 243l-242 -559l119 -102h-475l156 106
l290 713q-14 27 -44 78.5t-62 85.5q-29 44 -48 66.5t-45 46t-71 63.5q-24 22 -48.5 38t-40 24t-38.5 21t-33 23v13h512l-2 -10q-69 -35 -105 -57t-36 -52q0 -29 12.5 -69.5t40.5 -77.5l365 -463v610l-129 119h467l-137 -133v-605l53 64v532l112 109l15 -20l-103 -101v-489
l310 370q79 96 79 150q0 37 -43 69.5t-98 43.5v10h526v-10q-52 -13 -84 -30.5t-100 -70.5q-58 -43 -91 -74.5t-97 -107.5l-140 -166l369 -717l168 -108h-518l131 98l-248 496l-164 -199v-287l164 -190h-512l-26 26h477l-127 154v309l174 215l-23 45l-204 -247v-312l120 -108
h-458l133 112v234l-172 217zM745 733l-274 373q-41 54 -41 102q0 46 41 71t107 32l18 -23q-58 -3 -95.5 -28t-37.5 -68t41 -98l246 -320z" />
    <glyph glyph-name="Ccedilla" unicode="&#xc7;" horiz-adv-x="1229" 
d="M324 520q-15 -54 -15 -117q0 -83 28.5 -144t84 -92.5t131.5 -31.5q136 0 208.5 77t72.5 220q0 145 -79.5 239.5t-201.5 94.5q-31 0 -100 -14l-11 -2l39 108h11q26 -2 61 -2q107 0 173.5 62.5t66.5 162.5q0 64 -34 119t-92.5 87t-127.5 32q-99 0 -162.5 -55.5
t-63.5 -141.5q0 -54 27.5 -88.5t69.5 -34.5q28 0 57 25l14 -8q-16 -40 -55.5 -64t-91.5 -24q-76 0 -130 55t-54 133t55.5 140.5t152 98.5t215.5 36q116 0 209.5 -39t145 -108t51.5 -154q0 -65 -27.5 -118.5t-78 -91t-117.5 -55.5q-23 -7 -23 -14q0 -10 21 -18
q288 -91 288 -373q0 -112 -58 -194t-167 -125.5t-260 -43.5q-195 0 -307.5 87.5t-147.5 267.5l11 2q69 23 111 43.5t100 62.5zM412 498v-13q-13 -91 -13 -106q0 -71 32 -127.5t91 -87.5v-10q-67 18 -108 80t-41 147q0 42 14 108v9h25zM770 602q-82 76 -201 76q-61 0 -94 -14
l-8 26q59 15 102 15q150 0 207 -103h-6zM991 696q76 -74 105.5 -137.5t29.5 -152.5q0 -97 -38 -176.5t-107.5 -136.5t-166 -87.5t-212.5 -30.5q-247 0 -379 138v6l13 -8q84 -59 168.5 -85t193.5 -26q142 0 257 51.5t179 145t64 209.5q0 77 -21 130.5t-86 139.5l-8 12z
M911 1313q61 -15 107.5 -90.5t46.5 -159.5q0 -69 -30.5 -130t-83.5 -103.5t-117 -55.5l-21 19q69 20 119 58.5t78 92.5t28 115q0 74 -25 126.5t-93 119.5q-2 2 -3 2.5t-6 5.5zM766 1104l-10 12q-42 59 -91 87t-112 28q-67 0 -107 -37t-40 -96q0 -33 36 -62q1 0 2 -0.5
t2 -1.5l-12 -16q-26 11 -41.5 34.5t-15.5 47.5q0 69 49 112t127 43q82 0 140 -39t81 -112h-8zM555 969q-30 -51 -79 -80t-103 -29q-32 0 -57 8t-50.5 26t-50.5 46l-6 4v6l8 -6l35 -24q40 -35 119 -35q48 0 92.5 27t68.5 71z" />
    <glyph glyph-name="Ccedilla" unicode="&#x417;" horiz-adv-x="1229" 
d="M324 520q-15 -54 -15 -117q0 -83 28.5 -144t84 -92.5t131.5 -31.5q136 0 208.5 77t72.5 220q0 145 -79.5 239.5t-201.5 94.5q-31 0 -100 -14l-11 -2l39 108h11q26 -2 61 -2q107 0 173.5 62.5t66.5 162.5q0 64 -34 119t-92.5 87t-127.5 32q-99 0 -162.5 -55.5
t-63.5 -141.5q0 -54 27.5 -88.5t69.5 -34.5q28 0 57 25l14 -8q-16 -40 -55.5 -64t-91.5 -24q-76 0 -130 55t-54 133t55.5 140.5t152 98.5t215.5 36q116 0 209.5 -39t145 -108t51.5 -154q0 -65 -27.5 -118.5t-78 -91t-117.5 -55.5q-23 -7 -23 -14q0 -10 21 -18
q288 -91 288 -373q0 -112 -58 -194t-167 -125.5t-260 -43.5q-195 0 -307.5 87.5t-147.5 267.5l11 2q69 23 111 43.5t100 62.5zM412 498v-13q-13 -91 -13 -106q0 -71 32 -127.5t91 -87.5v-10q-67 18 -108 80t-41 147q0 42 14 108v9h25zM770 602q-82 76 -201 76q-61 0 -94 -14
l-8 26q59 15 102 15q150 0 207 -103h-6zM991 696q76 -74 105.5 -137.5t29.5 -152.5q0 -97 -38 -176.5t-107.5 -136.5t-166 -87.5t-212.5 -30.5q-247 0 -379 138v6l13 -8q84 -59 168.5 -85t193.5 -26q142 0 257 51.5t179 145t64 209.5q0 77 -21 130.5t-86 139.5l-8 12z
M911 1313q61 -15 107.5 -90.5t46.5 -159.5q0 -69 -30.5 -130t-83.5 -103.5t-117 -55.5l-21 19q69 20 119 58.5t78 92.5t28 115q0 74 -25 126.5t-93 119.5q-2 2 -3 2.5t-6 5.5zM766 1104l-10 12q-42 59 -91 87t-112 28q-67 0 -107 -37t-40 -96q0 -33 36 -62q1 0 2 -0.5
t2 -1.5l-12 -16q-26 11 -41.5 34.5t-15.5 47.5q0 69 49 112t127 43q82 0 140 -39t81 -112h-8zM555 969q-30 -51 -79 -80t-103 -29q-32 0 -57 8t-50.5 26t-50.5 46l-6 4v6l8 -6l35 -24q40 -35 119 -35q48 0 92.5 27t68.5 71z" />
    <glyph glyph-name="Egrave" unicode="&#xc8;" horiz-adv-x="1217" 
d="M1159 1309l-100 -99v-1020l166 -190h-520l-25 27h487l-135 151v1043l111 108zM137 1243l-135 123h471l-137 -133l-2 -795q45 61 57 82v703l109 106l20 -16l-104 -103v-655q20 34 56 96.5t103.5 180t128 229t74.5 151.5v41l-123 113h463l-139 -133v-1043l123 -108h-461
l137 117v704q-24 -38 -123 -204.5t-153 -258t-88 -149.5l2 -101l166 -190h-519l-24 27h487l-135 149l2 143l387 650v69q-26 -38 -135 -221.5t-189 -323.5l-120 -210v-93l129 -108h-463l135 117v1044z" />
    <glyph glyph-name="Egrave" unicode="&#x418;" horiz-adv-x="1217" 
d="M1159 1309l-100 -99v-1020l166 -190h-520l-25 27h487l-135 151v1043l111 108zM137 1243l-135 123h471l-137 -133l-2 -795q45 61 57 82v703l109 106l20 -16l-104 -103v-655q20 34 56 96.5t103.5 180t128 229t74.5 151.5v41l-123 113h463l-139 -133v-1043l123 -108h-461
l137 117v704q-24 -38 -123 -204.5t-153 -258t-88 -149.5l2 -101l166 -190h-519l-24 27h487l-135 149l2 143l387 650v69q-26 -38 -135 -221.5t-189 -323.5l-120 -210v-93l129 -108h-463l135 117v1044z" />
    <glyph glyph-name="Eacute" unicode="&#xc9;" horiz-adv-x="1274" 
d="M1124 1366l-16 -20q-63 -76 -93.5 -129.5t-68.5 -157.5q-14 32 -14 33q-40 84 -76 123t-95 53t-173 14q-99 0 -180 -4v-461h63v408q68 6 145 6q87 0 139.5 -11t88 -39t67.5 -81q-10 6 -20 16q-53 41 -55 41q-36 27 -78 37q-47 8 -129 8q-35 0 -111 -4h-20v-381h182
l129 178v-430l-129 166h-272v-561h63v514h217l27 -27h-217v-487h14q143 0 236 16q53 12 99.5 45.5t74.5 81.5l53 90l12 23q16 -73 38 -125.5t58 -99.5t97 -105h-1121l152 115v446q-51 -5 -83 -16t-69 -35l-14 21q32 25 67 37t99 20v47q-6 1 -11 1.5t-10 0.5q-49 0 -99.5 -20
t-90.5 -56q25 86 73 122t138 38v428l-152 121h1065zM1174 1296l-9 -10q-81 -110 -108 -155.5t-53 -118.5l-19 20q39 88 76 149t98 136zM879 963v-443l-25 12v443zM1294 90l-53 -90h-1091l-17 27h1094l35 63q-77 71 -122 134.5t-81 150.5l33 -13q34 -80 69 -128t117 -128z
M742 1763l-244 -198h-107l148 198h203zM434 1481l-22 28h123l246 199l18 -25l-250 -202h-115z" />
    <glyph glyph-name="Eacute" unicode="&#x419;" horiz-adv-x="1274" 
d="M1124 1366l-16 -20q-63 -76 -93.5 -129.5t-68.5 -157.5q-14 32 -14 33q-40 84 -76 123t-95 53t-173 14q-99 0 -180 -4v-461h63v408q68 6 145 6q87 0 139.5 -11t88 -39t67.5 -81q-10 6 -20 16q-53 41 -55 41q-36 27 -78 37q-47 8 -129 8q-35 0 -111 -4h-20v-381h182
l129 178v-430l-129 166h-272v-561h63v514h217l27 -27h-217v-487h14q143 0 236 16q53 12 99.5 45.5t74.5 81.5l53 90l12 23q16 -73 38 -125.5t58 -99.5t97 -105h-1121l152 115v446q-51 -5 -83 -16t-69 -35l-14 21q32 25 67 37t99 20v47q-6 1 -11 1.5t-10 0.5q-49 0 -99.5 -20
t-90.5 -56q25 86 73 122t138 38v428l-152 121h1065zM1174 1296l-9 -10q-81 -110 -108 -155.5t-53 -118.5l-19 20q39 88 76 149t98 136zM879 963v-443l-25 12v443zM1294 90l-53 -90h-1091l-17 27h1094l35 63q-77 71 -122 134.5t-81 150.5l33 -13q34 -80 69 -128t117 -128z
M742 1763l-244 -198h-107l148 198h203zM434 1481l-22 28h123l246 199l18 -25l-250 -202h-115z" />
    <glyph glyph-name="Ecircumflex" unicode="&#xca;" horiz-adv-x="1386" 
d="M49 1366h467l-137 -133v-604l53 63v533l113 108l14 -20l-102 -101v-489l309 371q68 81 68 143q0 26 -17.5 50.5t-46.5 43t-65 25.5v10h526v-10q-54 -13 -91 -31.5t-96 -64.5q-62 -49 -92.5 -79.5t-93.5 -107.5l-139 -166l368 -717l168 -108h-518l131 98l-247 496
l-164 -199v-287l164 -190h-512l-27 27h477l-127 153v309l174 216l-22 45l-205 -248v-312l121 -108h-459l137 117v1048zM1282 1274q-78 -4 -147 -44t-150 -128l-174 -195l352 -717l285 -190h-637l-29 27h580l-213 145l-367 735l187 209q77 88 146.5 129t154.5 49z" />
    <glyph glyph-name="Ecircumflex" unicode="&#x41a;" horiz-adv-x="1386" 
d="M49 1366h467l-137 -133v-604l53 63v533l113 108l14 -20l-102 -101v-489l309 371q68 81 68 143q0 26 -17.5 50.5t-46.5 43t-65 25.5v10h526v-10q-54 -13 -91 -31.5t-96 -64.5q-62 -49 -92.5 -79.5t-93.5 -107.5l-139 -166l368 -717l168 -108h-518l131 98l-247 496
l-164 -199v-287l164 -190h-512l-27 27h477l-127 153v309l174 216l-22 45l-205 -248v-312l121 -108h-459l137 117v1048zM1282 1274q-78 -4 -147 -44t-150 -128l-174 -195l352 -717l285 -190h-637l-29 27h580l-213 145l-367 735l187 209q77 88 146.5 129t154.5 49z" />
    <glyph glyph-name="Edieresis" unicode="&#xcb;" horiz-adv-x="1274" 
d="M1124 1366l-16 -20q-63 -76 -93.5 -129.5t-68.5 -157.5q-14 32 -14 33q-40 84 -76 123t-95 53t-173 14q-99 0 -180 -4v-461h63v408q68 6 145 6q87 0 139.5 -11t88 -39t67.5 -81q-10 6 -20 16q-53 41 -55 41q-36 27 -78 37q-47 8 -129 8q-35 0 -111 -4h-20v-381h182
l129 178v-430l-129 166h-272v-561h63v514h217l27 -27h-217v-487h14q143 0 236 16q53 12 99.5 45.5t74.5 81.5l53 90l12 23q16 -73 38 -125.5t58 -99.5t97 -105h-1121l152 115v446q-51 -5 -83 -16t-69 -35l-14 21q32 25 67 37t99 20v47q-6 1 -11 1.5t-10 0.5q-49 0 -99.5 -20
t-90.5 -56q25 86 73 122t138 38v428l-152 121h1065zM1174 1296l-9 -10q-81 -110 -108 -155.5t-53 -118.5l-19 20q39 88 76 149t98 136zM879 963v-443l-25 12v443zM1294 90l-53 -90h-1091l-17 27h1094l35 63q-77 71 -122 134.5t-81 150.5l33 -13q34 -80 69 -128t117 -128z
M715 1763q40 0 69 -28t29 -68q0 -38 -29 -66t-69 -28q-38 0 -67 28t-29 66q0 40 29 68t67 28zM840 1722q24 -10 39.5 -36t15.5 -62q0 -53 -37 -90t-88 -37q-59 0 -94 47v6q46 -32 82 -32q48 0 83.5 33.5t35.5 78.5q0 27 -7.5 46t-29.5 46zM494 1722q55 -25 55 -98
q0 -54 -35.5 -90.5t-87.5 -36.5q-59 0 -94 47v6q46 -32 80 -32q48 0 83.5 33.5t35.5 78.5t-37 92zM369 1763q40 0 68 -28t28 -68q0 -38 -28 -66t-68 -28t-69 28t-29 66q0 40 29 68t69 28z" />
    <glyph glyph-name="Edieresis" unicode="&#x41b;" horiz-adv-x="1274" 
d="M1124 1366l-16 -20q-63 -76 -93.5 -129.5t-68.5 -157.5q-14 32 -14 33q-40 84 -76 123t-95 53t-173 14q-99 0 -180 -4v-461h63v408q68 6 145 6q87 0 139.5 -11t88 -39t67.5 -81q-10 6 -20 16q-53 41 -55 41q-36 27 -78 37q-47 8 -129 8q-35 0 -111 -4h-20v-381h182
l129 178v-430l-129 166h-272v-561h63v514h217l27 -27h-217v-487h14q143 0 236 16q53 12 99.5 45.5t74.5 81.5l53 90l12 23q16 -73 38 -125.5t58 -99.5t97 -105h-1121l152 115v446q-51 -5 -83 -16t-69 -35l-14 21q32 25 67 37t99 20v47q-6 1 -11 1.5t-10 0.5q-49 0 -99.5 -20
t-90.5 -56q25 86 73 122t138 38v428l-152 121h1065zM1174 1296l-9 -10q-81 -110 -108 -155.5t-53 -118.5l-19 20q39 88 76 149t98 136zM879 963v-443l-25 12v443zM1294 90l-53 -90h-1091l-17 27h1094l35 63q-77 71 -122 134.5t-81 150.5l33 -13q34 -80 69 -128t117 -128z
M715 1763q40 0 69 -28t29 -68q0 -38 -29 -66t-69 -28q-38 0 -67 28t-29 66q0 40 29 68t67 28zM840 1722q24 -10 39.5 -36t15.5 -62q0 -53 -37 -90t-88 -37q-59 0 -94 47v6q46 -32 82 -32q48 0 83.5 33.5t35.5 78.5q0 27 -7.5 46t-29.5 46zM494 1722q55 -25 55 -98
q0 -54 -35.5 -90.5t-87.5 -36.5q-59 0 -94 47v6q46 -32 80 -32q48 0 83.5 33.5t35.5 78.5t-37 92zM369 1763q40 0 68 -28t28 -68q0 -38 -28 -66t-68 -28t-69 28t-29 66q0 40 29 68t69 28z" />
    <glyph glyph-name="Igrave" unicode="&#xcc;" horiz-adv-x="1659" 
d="M1548 1288l-112 -82v-1007l174 -199h-533l-12 27h483l-139 157v1039l119 82zM416 403v566l-56 159v-718q0 -115 13 -174.5t46.5 -90.5t102.5 -51h15l73 -94h-522l-18 27h491l-47 55h-436l20 10q76 41 115 80.5t53.5 94t14.5 147.5v827l-131 125h516l-146 -131l283 -838
l37 86l-256 744l131 96l20 -16l-125 -88l240 -699l256 715l-121 131h506l-137 -139v-1028l123 -117h-459l139 117v673l-317 -872h-97l-8 27h88l334 929v154l-373 -1028h-69l-275 807v-481q0 -84 8 -135t27 -87.5t53 -70.5l7 -6q-48 17 -73.5 51.5t-35.5 91t-10 151.5z" />
    <glyph glyph-name="Igrave" unicode="&#x41c;" horiz-adv-x="1659" 
d="M1548 1288l-112 -82v-1007l174 -199h-533l-12 27h483l-139 157v1039l119 82zM416 403v566l-56 159v-718q0 -115 13 -174.5t46.5 -90.5t102.5 -51h15l73 -94h-522l-18 27h491l-47 55h-436l20 10q76 41 115 80.5t53.5 94t14.5 147.5v827l-131 125h516l-146 -131l283 -838
l37 86l-256 744l131 96l20 -16l-125 -88l240 -699l256 715l-121 131h506l-137 -139v-1028l123 -117h-459l139 117v673l-317 -872h-97l-8 27h88l334 929v154l-373 -1028h-69l-275 807v-481q0 -84 8 -135t27 -87.5t53 -70.5l7 -6q-48 17 -73.5 51.5t-35.5 91t-10 151.5z" />
    <glyph glyph-name="Iacute" unicode="&#xcd;" horiz-adv-x="1286" 
d="M63 1366h472l-138 -133v-432q18 -3 56 -6v428l108 106l21 -16l-105 -103v-417l35 -2q61 -7 150 -7q110 0 178 9v460l-123 113h463l-140 -133v-1043l123 -108h-461l138 117v424q-78 -19 -174 -19q-95 0 -174 8h-15v-422l166 -190h-518l-25 27h488l-135 149v461l28 -2
q137 -10 176 -10q74 0 104.5 4t78.5 20v37q-43 -6 -101 -10t-133 -4q-42 0 -84 4l-125 10v-496l129 -108h-463l136 117v438q-87 -3 -136 -68l-20 11q56 71 156 82v36h-9q-34 0 -65 -10t-58.5 -30t-46.5 -46l-14 11q35 83 77 120t116 50v450zM1221 1309l-101 -99v-1020
l166 -190h-520l-25 27h488l-135 151v1043l110 108z" />
    <glyph glyph-name="Iacute" unicode="&#x41d;" horiz-adv-x="1286" 
d="M63 1366h472l-138 -133v-432q18 -3 56 -6v428l108 106l21 -16l-105 -103v-417l35 -2q61 -7 150 -7q110 0 178 9v460l-123 113h463l-140 -133v-1043l123 -108h-461l138 117v424q-78 -19 -174 -19q-95 0 -174 8h-15v-422l166 -190h-518l-25 27h488l-135 149v461l28 -2
q137 -10 176 -10q74 0 104.5 4t78.5 20v37q-43 -6 -101 -10t-133 -4q-42 0 -84 4l-125 10v-496l129 -108h-463l136 117v438q-87 -3 -136 -68l-20 11q56 71 156 82v36h-9q-34 0 -65 -10t-58.5 -30t-46.5 -46l-14 11q35 83 77 120t116 50v450zM1221 1309l-101 -99v-1020
l166 -190h-520l-25 27h488l-135 151v1043l110 108z" />
    <glyph glyph-name="Icircumflex" unicode="&#xce;" horiz-adv-x="1303" 
d="M823 1157q-68 39 -108 52.5t-90 13.5q-136 0 -204.5 -134t-68.5 -401q0 -190 42.5 -320t125.5 -194l-8 -10q-54 39 -90.5 86t-58.5 107t-33 142t-11 193q0 277 76.5 416t227.5 139q64 0 117.5 -24t82.5 -66zM1151 715q0 -153 -36.5 -275.5t-109 -212t-173 -135
t-224.5 -45.5q-166 0 -298.5 86t-205.5 239.5t-73 348.5q0 153 39.5 279t115 215.5t180 136.5t236.5 47q122 0 223.5 -48.5t174.5 -139t112 -217.5t39 -279zM924 743q0 262 -64 406q-35 74 -105.5 118t-152.5 44q-348 0 -348 -613q0 -565 342 -565q172 0 258 178
q39 87 54.5 181.5t15.5 250.5zM930 1346q74 -36 134 -98.5t100.5 -146t62.5 -187t22 -226.5q0 -156 -44 -289t-126.5 -230.5t-195 -149.5t-244.5 -52q-172 0 -330 117v6q61 -43 146.5 -67.5t175.5 -24.5q127 0 236.5 51.5t188 142.5t122 218t43.5 278q0 112 -20 213
t-56 182.5t-92.5 147t-122.5 104.5v11z" />
    <glyph glyph-name="Icircumflex" unicode="&#x41e;" horiz-adv-x="1303" 
d="M823 1157q-68 39 -108 52.5t-90 13.5q-136 0 -204.5 -134t-68.5 -401q0 -190 42.5 -320t125.5 -194l-8 -10q-54 39 -90.5 86t-58.5 107t-33 142t-11 193q0 277 76.5 416t227.5 139q64 0 117.5 -24t82.5 -66zM1151 715q0 -153 -36.5 -275.5t-109 -212t-173 -135
t-224.5 -45.5q-166 0 -298.5 86t-205.5 239.5t-73 348.5q0 153 39.5 279t115 215.5t180 136.5t236.5 47q122 0 223.5 -48.5t174.5 -139t112 -217.5t39 -279zM924 743q0 262 -64 406q-35 74 -105.5 118t-152.5 44q-348 0 -348 -613q0 -565 342 -565q172 0 258 178
q39 87 54.5 181.5t15.5 250.5zM930 1346q74 -36 134 -98.5t100.5 -146t62.5 -187t22 -226.5q0 -156 -44 -289t-126.5 -230.5t-195 -149.5t-244.5 -52q-172 0 -330 117v6q61 -43 146.5 -67.5t175.5 -24.5q127 0 236.5 51.5t188 142.5t122 218t43.5 278q0 112 -20 213
t-56 182.5t-92.5 147t-122.5 104.5v11z" />
    <glyph glyph-name="Idieresis" unicode="&#xcf;" horiz-adv-x="1235" 
d="M1159 1309l-100 -99v-1020l166 -190h-520l-25 27h487l-135 151v1043l111 108zM418 1151l-2 -961l166 -190h-519l-24 27h487l-135 149l2 1000h385v55h-442v-1041l129 -108h-463l135 117v589v455l-135 123h653h463l-139 -133v-1043l123 -108h-461l137 117l-2 950
q-102 1 -193.5 1.5t-164.5 0.5z" />
    <glyph glyph-name="Idieresis" unicode="&#x41f;" horiz-adv-x="1235" 
d="M1159 1309l-100 -99v-1020l166 -190h-520l-25 27h487l-135 151v1043l111 108zM418 1151l-2 -961l166 -190h-519l-24 27h487l-135 149l2 1000h385v55h-442v-1041l129 -108h-463l135 117v589v455l-135 123h653h463l-139 -133v-1043l123 -108h-461l137 117l-2 950
q-102 1 -193.5 1.5t-164.5 0.5z" />
    <glyph glyph-name="Eth" unicode="&#xd0;" horiz-adv-x="1210" 
d="M96 1366h449q120 0 206 -12t147.5 -39t109.5 -72q98 -95 98 -239q0 -89 -43 -158t-122.5 -111t-186.5 -49q-88 -7 -172 -10h-37h-123v-483l123 -111h-465l139 117v401q-21 0 -76 -9t-80 -22l-8 19q67 39 119 39h45v49q-14 2 -33 2q-59 0 -98.5 -12t-71.5 -39l-10 14
q64 113 197 113h16v489zM422 1262v-502h53v446h109q128 0 181 -22t89 -94q-36 52 -92.5 72t-155.5 20h-104v-422h14q369 0 369 241q0 92 -41.5 154t-120.5 88q-31 11 -73 17t-113 6q-60 0 -93 -2zM1055 1257q60 -27 97.5 -101t37.5 -163q0 -143 -67 -234.5t-199 -129.5
q-36 -9 -65 -14.5t-65 -9t-96.5 -5.5t-109.5 -2q-53 0 -86 2v-414l157 -186h-501l-27 27h471l-127 149v451q79 -6 178 -6q175 0 289.5 39.5t169.5 122t55 208.5q0 80 -23.5 135t-88.5 131z" />
    <glyph glyph-name="Eth" unicode="&#x420;" horiz-adv-x="1210" 
d="M96 1366h449q120 0 206 -12t147.5 -39t109.5 -72q98 -95 98 -239q0 -89 -43 -158t-122.5 -111t-186.5 -49q-88 -7 -172 -10h-37h-123v-483l123 -111h-465l139 117v401q-21 0 -76 -9t-80 -22l-8 19q67 39 119 39h45v49q-14 2 -33 2q-59 0 -98.5 -12t-71.5 -39l-10 14
q64 113 197 113h16v489zM422 1262v-502h53v446h109q128 0 181 -22t89 -94q-36 52 -92.5 72t-155.5 20h-104v-422h14q369 0 369 241q0 92 -41.5 154t-120.5 88q-31 11 -73 17t-113 6q-60 0 -93 -2zM1055 1257q60 -27 97.5 -101t37.5 -163q0 -143 -67 -234.5t-199 -129.5
q-36 -9 -65 -14.5t-65 -9t-96.5 -5.5t-109.5 -2q-53 0 -86 2v-414l157 -186h-501l-27 27h471l-127 149v451q79 -6 178 -6q175 0 289.5 39.5t169.5 122t55 208.5q0 80 -23.5 135t-88.5 131z" />
    <glyph glyph-name="Ntilde" unicode="&#xd1;" horiz-adv-x="1192" 
d="M1092 1335l-13 -20q-32 -56 -58.5 -106.5t-46.5 -93.5t-50 -114l-9 -22l-12 6q-17 101 -59.5 175.5t-107.5 114.5t-144 40q-44 0 -86.5 -16.5t-81 -48t-62.5 -70.5q-32 -55 -50.5 -116.5t-28 -144t-9.5 -184.5q0 -137 25 -250.5t73 -193t117.5 -120t155.5 -40.5
q94 0 162.5 41t109 121t52.5 199q3 40 30 40q41 0 41 -65q0 -49 -16.5 -117t-38.5 -108q-46 -93 -143.5 -144t-227.5 -51t-234.5 46.5t-179 135.5t-114 215t-39.5 279q0 190 72.5 344t199.5 243t281 89q79 0 120 -9.5t136 -46.5q74 -28 119 -28q54 0 100 28zM801 1161
q-56 45 -90 59.5t-82 14.5q-127 0 -193.5 -126.5t-66.5 -367.5q0 -224 61 -374t170 -195v-10q-59 13 -106.5 58t-83 123.5t-53 177.5t-17.5 220q0 127 19 225t55 162.5t88.5 98t122.5 33.5q55 0 92.5 -19t83.5 -67v-13zM1126 475q-7 -119 -32.5 -200.5t-77.5 -145.5
q-63 -76 -159.5 -119t-211.5 -43q-86 0 -160 24.5t-149 78.5v8q131 -84 307 -84q108 0 199 41t151 117q51 61 72.5 131t30.5 182l2 22zM1163 1286l-10 -18q-110 -187 -174 -340l-27 14l99 199l90 159z" />
    <glyph glyph-name="Ntilde" unicode="&#x421;" horiz-adv-x="1192" 
d="M1092 1335l-13 -20q-32 -56 -58.5 -106.5t-46.5 -93.5t-50 -114l-9 -22l-12 6q-17 101 -59.5 175.5t-107.5 114.5t-144 40q-44 0 -86.5 -16.5t-81 -48t-62.5 -70.5q-32 -55 -50.5 -116.5t-28 -144t-9.5 -184.5q0 -137 25 -250.5t73 -193t117.5 -120t155.5 -40.5
q94 0 162.5 41t109 121t52.5 199q3 40 30 40q41 0 41 -65q0 -49 -16.5 -117t-38.5 -108q-46 -93 -143.5 -144t-227.5 -51t-234.5 46.5t-179 135.5t-114 215t-39.5 279q0 190 72.5 344t199.5 243t281 89q79 0 120 -9.5t136 -46.5q74 -28 119 -28q54 0 100 28zM801 1161
q-56 45 -90 59.5t-82 14.5q-127 0 -193.5 -126.5t-66.5 -367.5q0 -224 61 -374t170 -195v-10q-59 13 -106.5 58t-83 123.5t-53 177.5t-17.5 220q0 127 19 225t55 162.5t88.5 98t122.5 33.5q55 0 92.5 -19t83.5 -67v-13zM1126 475q-7 -119 -32.5 -200.5t-77.5 -145.5
q-63 -76 -159.5 -119t-211.5 -43q-86 0 -160 24.5t-149 78.5v8q131 -84 307 -84q108 0 199 41t151 117q51 61 72.5 131t30.5 182l2 22zM1163 1286l-10 -18q-110 -187 -174 -340l-27 14l99 199l90 159z" />
    <glyph glyph-name="Ograve" unicode="&#xd2;" horiz-adv-x="1186" 
d="M1157 1366l-80 -145l-67 -164l-11 8l-2 12q-29 115 -82.5 159t-164.5 44q-28 0 -88 -4l-13 -2v-1084l117 -108h-457l142 117v995h-66q-73 0 -115.5 -16.5t-63.5 -56t-26 -109.5h-26q8 80 31.5 125t72 64.5t129.5 19.5h64v49q-58 6 -99 6q-87 0 -140 -23t-79 -73.5
t-29 -135.5h-12q-25 82 -50.5 143.5t-82.5 168.5l-6 10h1204zM1221 1303q-42 -52 -73.5 -117t-72.5 -176l-4 -11l-22 21l4 8q79 222 147 293zM952 1147q-73 49 -178 49q-29 0 -49 -2l4 -1006l158 -188h-510l-23 27h477l-133 153v1043h56q63 0 102 -6.5t61 -23t35 -46.5z" />
    <glyph glyph-name="Ograve" unicode="&#x422;" horiz-adv-x="1186" 
d="M1157 1366l-80 -145l-67 -164l-11 8l-2 12q-29 115 -82.5 159t-164.5 44q-28 0 -88 -4l-13 -2v-1084l117 -108h-457l142 117v995h-66q-73 0 -115.5 -16.5t-63.5 -56t-26 -109.5h-26q8 80 31.5 125t72 64.5t129.5 19.5h64v49q-58 6 -99 6q-87 0 -140 -23t-79 -73.5
t-29 -135.5h-12q-25 82 -50.5 143.5t-82.5 168.5l-6 10h1204zM1221 1303q-42 -52 -73.5 -117t-72.5 -176l-4 -11l-22 21l4 8q79 222 147 293zM952 1147q-73 49 -178 49q-29 0 -49 -2l4 -1006l158 -188h-510l-23 27h477l-133 153v1043h56q63 0 102 -6.5t61 -23t35 -46.5z" />
    <glyph glyph-name="Oacute" unicode="&#xd3;" horiz-adv-x="1483" 
d="M1411 1550l6 -8l-10 -12q-130 -134 -201 -232q-30 -40 -94 -145q-18 -29 -30 -49l-18 -30l-15 -25l-275 -426l-242 -408l146 -133h-488l146 133l242 408l-252 448l-54 84q-71 111 -118 164.5t-131 118.5l-13 10h506l-125 -129l346 -586l31 51l-307 535l104 98l21 -14
l-92 -84l288 -510l127 186q56 91 76.5 137.5t20.5 86.5q0 70 -84 151q54 13 170 47q173 52 307 125zM1456 1489v-41l-10 -10q-63 -60 -91 -92.5t-71 -92.5q-64 -89 -162 -243l-264 -402l-242 -393l179 -215h-627l-10 27h583l-151 188l241 399l328 506q97 159 195 266
q61 68 102 103z" />
    <glyph glyph-name="Oacute" unicode="&#x423;" horiz-adv-x="1483" 
d="M1411 1550l6 -8l-10 -12q-130 -134 -201 -232q-30 -40 -94 -145q-18 -29 -30 -49l-18 -30l-15 -25l-275 -426l-242 -408l146 -133h-488l146 133l242 408l-252 448l-54 84q-71 111 -118 164.5t-131 118.5l-13 10h506l-125 -129l346 -586l31 51l-307 535l104 98l21 -14
l-92 -84l288 -510l127 186q56 91 76.5 137.5t20.5 86.5q0 70 -84 151q54 13 170 47q173 52 307 125zM1456 1489v-41l-10 -10q-63 -60 -91 -92.5t-71 -92.5q-64 -89 -162 -243l-264 -402l-242 -393l179 -215h-627l-10 27h583l-151 188l241 399l328 506q97 159 195 266
q61 68 102 103z" />
    <glyph glyph-name="Ocircumflex" unicode="&#xd4;" horiz-adv-x="1278" 
d="M823 1157q-68 39 -108 52.5t-90 13.5q-136 0 -204.5 -134t-68.5 -401q0 -190 42.5 -320t125.5 -194l-8 -10q-54 39 -90.5 86t-58.5 107t-33 142t-11 193q0 277 76.5 416t227.5 139q64 0 117.5 -24t82.5 -66zM1151 715q0 -153 -36.5 -275.5t-109 -212t-173 -135
t-224.5 -45.5q-166 0 -298.5 86t-205.5 239.5t-73 348.5q0 153 39.5 279t115 215.5t180 136.5t236.5 47q122 0 223.5 -48.5t174.5 -139t112 -217.5t39 -279zM924 743q0 262 -64 406q-35 74 -105.5 118t-152.5 44q-348 0 -348 -613q0 -565 342 -565q172 0 258 178
q39 87 54.5 181.5t15.5 250.5zM930 1346q74 -36 134 -98.5t100.5 -146t62.5 -187t22 -226.5q0 -156 -44 -289t-126.5 -230.5t-195 -149.5t-244.5 -52q-172 0 -330 117v6q61 -43 146.5 -67.5t175.5 -24.5q127 0 236.5 51.5t188 142.5t122 218t43.5 278q0 112 -20 213
t-56 182.5t-92.5 147t-122.5 104.5v11zM621 1638l-119 -141h-88l-19 21h97l114 135l-24 30l-103 -116h-104l168 200h129l172 -200h-160zM981 1497h-233l-17 21h199l-174 202l39 -8z" />
    <glyph glyph-name="Ocircumflex" unicode="&#x424;" horiz-adv-x="1278" 
d="M823 1157q-68 39 -108 52.5t-90 13.5q-136 0 -204.5 -134t-68.5 -401q0 -190 42.5 -320t125.5 -194l-8 -10q-54 39 -90.5 86t-58.5 107t-33 142t-11 193q0 277 76.5 416t227.5 139q64 0 117.5 -24t82.5 -66zM1151 715q0 -153 -36.5 -275.5t-109 -212t-173 -135
t-224.5 -45.5q-166 0 -298.5 86t-205.5 239.5t-73 348.5q0 153 39.5 279t115 215.5t180 136.5t236.5 47q122 0 223.5 -48.5t174.5 -139t112 -217.5t39 -279zM924 743q0 262 -64 406q-35 74 -105.5 118t-152.5 44q-348 0 -348 -613q0 -565 342 -565q172 0 258 178
q39 87 54.5 181.5t15.5 250.5zM930 1346q74 -36 134 -98.5t100.5 -146t62.5 -187t22 -226.5q0 -156 -44 -289t-126.5 -230.5t-195 -149.5t-244.5 -52q-172 0 -330 117v6q61 -43 146.5 -67.5t175.5 -24.5q127 0 236.5 51.5t188 142.5t122 218t43.5 278q0 112 -20 213
t-56 182.5t-92.5 147t-122.5 104.5v11zM621 1638l-119 -141h-88l-19 21h97l114 135l-24 30l-103 -116h-104l168 200h129l172 -200h-160zM981 1497h-233l-17 21h199l-174 202l39 -8z" />
    <glyph glyph-name="Otilde" unicode="&#xd5;" horiz-adv-x="1430" 
d="M1276 1366l-219 -145l-320 -408l365 -600l174 -131h-516l127 123l-228 373l-282 -365l164 -213h-547l-14 27h507l-141 186l299 389l-29 43l-325 -414l121 -149h-459l233 149l387 492l-311 508l-190 135h528l-131 -115l223 -364l35 47l-186 297l110 106l19 -16l-97 -90
l170 -277l218 277l-125 135h440zM1313 1290l-197 -116l-282 -367l344 -569l245 -238h-620l-19 27h574l-203 196l-352 584l295 385l198 117z" />
    <glyph glyph-name="Otilde" unicode="&#x425;" horiz-adv-x="1430" 
d="M1276 1366l-219 -145l-320 -408l365 -600l174 -131h-516l127 123l-228 373l-282 -365l164 -213h-547l-14 27h507l-141 186l299 389l-29 43l-325 -414l121 -149h-459l233 149l387 492l-311 508l-190 135h528l-131 -115l223 -364l35 47l-186 297l110 106l19 -16l-97 -90
l170 -277l218 277l-125 135h440zM1313 1290l-197 -116l-282 -367l344 -569l245 -238h-620l-19 27h574l-203 196l-352 584l295 385l198 117z" />
    <glyph glyph-name="Odieresis" unicode="&#xd6;" horiz-adv-x="1278" 
d="M823 1157q-68 39 -108 52.5t-90 13.5q-136 0 -204.5 -134t-68.5 -401q0 -190 42.5 -320t125.5 -194l-8 -10q-54 39 -90.5 86t-58.5 107t-33 142t-11 193q0 277 76.5 416t227.5 139q64 0 117.5 -24t82.5 -66zM1151 715q0 -153 -36.5 -275.5t-109 -212t-173 -135
t-224.5 -45.5q-166 0 -298.5 86t-205.5 239.5t-73 348.5q0 153 39.5 279t115 215.5t180 136.5t236.5 47q122 0 223.5 -48.5t174.5 -139t112 -217.5t39 -279zM924 743q0 262 -64 406q-35 74 -105.5 118t-152.5 44q-348 0 -348 -613q0 -565 342 -565q172 0 258 178
q39 87 54.5 181.5t15.5 250.5zM930 1346q74 -36 134 -98.5t100.5 -146t62.5 -187t22 -226.5q0 -156 -44 -289t-126.5 -230.5t-195 -149.5t-244.5 -52q-172 0 -330 117v6q61 -43 146.5 -67.5t175.5 -24.5q127 0 236.5 51.5t188 142.5t122 218t43.5 278q0 112 -20 213
t-56 182.5t-92.5 147t-122.5 104.5v11zM766 1763q40 0 69 -28t29 -68q0 -38 -29 -66t-69 -28q-38 0 -67 28t-29 66q0 40 29 68t67 28zM891 1722q24 -10 39.5 -36t15.5 -62q0 -53 -37 -90t-88 -37q-59 0 -94 47v6q46 -32 82 -32q48 0 83.5 33.5t35.5 78.5q0 27 -7.5 46
t-29.5 46zM545 1722q55 -25 55 -98q0 -54 -35.5 -90.5t-87.5 -36.5q-59 0 -94 47v6q46 -32 80 -32q48 0 83.5 33.5t35.5 78.5t-37 92zM420 1763q40 0 68 -28t28 -68q0 -38 -28 -66t-68 -28t-69 28t-29 66q0 40 29 68t69 28z" />
    <glyph glyph-name="Odieresis" unicode="&#x426;" horiz-adv-x="1278" 
d="M823 1157q-68 39 -108 52.5t-90 13.5q-136 0 -204.5 -134t-68.5 -401q0 -190 42.5 -320t125.5 -194l-8 -10q-54 39 -90.5 86t-58.5 107t-33 142t-11 193q0 277 76.5 416t227.5 139q64 0 117.5 -24t82.5 -66zM1151 715q0 -153 -36.5 -275.5t-109 -212t-173 -135
t-224.5 -45.5q-166 0 -298.5 86t-205.5 239.5t-73 348.5q0 153 39.5 279t115 215.5t180 136.5t236.5 47q122 0 223.5 -48.5t174.5 -139t112 -217.5t39 -279zM924 743q0 262 -64 406q-35 74 -105.5 118t-152.5 44q-348 0 -348 -613q0 -565 342 -565q172 0 258 178
q39 87 54.5 181.5t15.5 250.5zM930 1346q74 -36 134 -98.5t100.5 -146t62.5 -187t22 -226.5q0 -156 -44 -289t-126.5 -230.5t-195 -149.5t-244.5 -52q-172 0 -330 117v6q61 -43 146.5 -67.5t175.5 -24.5q127 0 236.5 51.5t188 142.5t122 218t43.5 278q0 112 -20 213
t-56 182.5t-92.5 147t-122.5 104.5v11zM766 1763q40 0 69 -28t29 -68q0 -38 -29 -66t-69 -28q-38 0 -67 28t-29 66q0 40 29 68t67 28zM891 1722q24 -10 39.5 -36t15.5 -62q0 -53 -37 -90t-88 -37q-59 0 -94 47v6q46 -32 82 -32q48 0 83.5 33.5t35.5 78.5q0 27 -7.5 46
t-29.5 46zM545 1722q55 -25 55 -98q0 -54 -35.5 -90.5t-87.5 -36.5q-59 0 -94 47v6q46 -32 80 -32q48 0 83.5 33.5t35.5 78.5t-37 92zM420 1763q40 0 68 -28t28 -68q0 -38 -28 -66t-68 -28t-69 28t-29 66q0 40 29 68t69 28z" />
    <glyph glyph-name="multiply" unicode="&#xd7;" horiz-adv-x="1202" 
d="M197 981l88 88l270 -270l23 20l-207 207l30 8l195 -194l223 223l88 -90l-262 -262l254 -256l-88 -88l-197 196l-254 -254l-32 8l266 267l-39 37l-262 -263l-88 88l262 265zM743 692l252 -252l-92 -92l-31 2l86 86l-253 256l264 266l-86 89h30l93 -93z" />
    <glyph glyph-name="multiply" unicode="&#x427;" horiz-adv-x="1202" 
d="M197 981l88 88l270 -270l23 20l-207 207l30 8l195 -194l223 223l88 -90l-262 -262l254 -256l-88 -88l-197 196l-254 -254l-32 8l266 267l-39 37l-262 -263l-88 88l262 265zM743 692l252 -252l-92 -92l-31 2l86 86l-253 256l264 266l-86 89h30l93 -93z" />
    <glyph glyph-name="Oslash" unicode="&#xd8;" horiz-adv-x="1280" 
d="M1016 1376l-74 -129q59 -50 103.5 -137t69 -198t24.5 -228q0 -182 -66 -322.5t-185.5 -218t-271.5 -77.5q-183 0 -317 102l-63 -105h-97l97 156q-91 89 -139 220.5t-48 287.5q0 148 39.5 269.5t114 207t179.5 130t234 44.5q38 0 88.5 -10t94 -27.5t78.5 -40.5l45 76h94z
M893 1006l-440 -736q29 -45 75 -84l-10 -10q-65 44 -94 94l461 779q-3 12 -25 67l-500 -846q87 -120 244 -120q155 0 234.5 143t79.5 422q0 146 -25 291zM788 1157q-57 49 -153 49q-51 0 -101.5 -23.5t-76.5 -58.5q-45 -61 -71 -176t-26 -260q0 -128 19 -225zM815 1196
q-33 43 -93.5 70.5t-121.5 27.5q-164 0 -248 -148.5t-84 -440.5q0 -106 14 -204t35 -145l41 70l-4 14q-10 59 -16 127.5t-6 118.5q0 148 27 266t73 187q30 41 80 67q51 25 113 25q93 0 174 -62zM1069 1358l21 -23l-54 -88q199 -196 199 -555q0 -154 -43.5 -282.5t-123 -223
t-190 -146.5t-241.5 -52q-81 0 -150.5 22.5t-144.5 73.5l-63 -109h-191l18 29h158l60 102q63 -35 114 -56t95 -28.5t104 -7.5q160 0 292 88t205.5 242.5t73.5 343.5q0 181 -53 327t-149 232z" />
    <glyph glyph-name="Oslash" unicode="&#x428;" horiz-adv-x="1280" 
d="M1016 1376l-74 -129q59 -50 103.5 -137t69 -198t24.5 -228q0 -182 -66 -322.5t-185.5 -218t-271.5 -77.5q-183 0 -317 102l-63 -105h-97l97 156q-91 89 -139 220.5t-48 287.5q0 148 39.5 269.5t114 207t179.5 130t234 44.5q38 0 88.5 -10t94 -27.5t78.5 -40.5l45 76h94z
M893 1006l-440 -736q29 -45 75 -84l-10 -10q-65 44 -94 94l461 779q-3 12 -25 67l-500 -846q87 -120 244 -120q155 0 234.5 143t79.5 422q0 146 -25 291zM788 1157q-57 49 -153 49q-51 0 -101.5 -23.5t-76.5 -58.5q-45 -61 -71 -176t-26 -260q0 -128 19 -225zM815 1196
q-33 43 -93.5 70.5t-121.5 27.5q-164 0 -248 -148.5t-84 -440.5q0 -106 14 -204t35 -145l41 70l-4 14q-10 59 -16 127.5t-6 118.5q0 148 27 266t73 187q30 41 80 67q51 25 113 25q93 0 174 -62zM1069 1358l21 -23l-54 -88q199 -196 199 -555q0 -154 -43.5 -282.5t-123 -223
t-190 -146.5t-241.5 -52q-81 0 -150.5 22.5t-144.5 73.5l-63 -109h-191l18 29h158l60 102q63 -35 114 -56t95 -28.5t104 -7.5q160 0 292 88t205.5 242.5t73.5 343.5q0 181 -53 327t-149 232z" />
    <glyph glyph-name="Ugrave" unicode="&#xd9;" horiz-adv-x="1243" 
d="M1188 1366l-178 -143v-648q0 -157 -8 -227t-31 -121q-76 -164 -353 -164q-148 0 -248.5 43t-144.5 125q-32 60 -44.5 138t-12.5 211v663l-135 123h473l-137 -133v-809q0 -149 62 -210.5t212 -61.5q89 0 151 31.5t85 86.5q39 106 39 305v648l-156 143h426zM1223 1296
l-138 -110v-623q0 -260 -26 -348q-36 -113 -142.5 -175.5t-261.5 -62.5q-115 0 -212.5 32t-157.5 91l8 -4l35 -20q58 -32 138 -52t163 -20q333 0 399 219q31 103 31 332v641l147 123zM547 1313l-98 -101v-811q0 -72 23.5 -116t92.5 -103l2 -10q-84 35 -115.5 99.5
t-31.5 201.5v750l112 110zM633 1740l137 -192h-116l-230 192h209zM904 1480h-168l-29 25h139l-125 174l43 -8z" />
    <glyph glyph-name="Ugrave" unicode="&#x429;" horiz-adv-x="1243" 
d="M1188 1366l-178 -143v-648q0 -157 -8 -227t-31 -121q-76 -164 -353 -164q-148 0 -248.5 43t-144.5 125q-32 60 -44.5 138t-12.5 211v663l-135 123h473l-137 -133v-809q0 -149 62 -210.5t212 -61.5q89 0 151 31.5t85 86.5q39 106 39 305v648l-156 143h426zM1223 1296
l-138 -110v-623q0 -260 -26 -348q-36 -113 -142.5 -175.5t-261.5 -62.5q-115 0 -212.5 32t-157.5 91l8 -4l35 -20q58 -32 138 -52t163 -20q333 0 399 219q31 103 31 332v641l147 123zM547 1313l-98 -101v-811q0 -72 23.5 -116t92.5 -103l2 -10q-84 35 -115.5 99.5
t-31.5 201.5v750l112 110zM633 1740l137 -192h-116l-230 192h209zM904 1480h-168l-29 25h139l-125 174l43 -8z" />
    <glyph glyph-name="Uacute" unicode="&#xda;" horiz-adv-x="1243" 
d="M1188 1366l-178 -143v-648q0 -157 -8 -227t-31 -121q-76 -164 -353 -164q-148 0 -248.5 43t-144.5 125q-32 60 -44.5 138t-12.5 211v663l-135 123h473l-137 -133v-809q0 -149 62 -210.5t212 -61.5q89 0 151 31.5t85 86.5q39 106 39 305v648l-156 143h426zM1223 1296
l-138 -110v-623q0 -260 -26 -348q-36 -113 -142.5 -175.5t-261.5 -62.5q-115 0 -212.5 32t-157.5 91l8 -4l35 -20q58 -32 138 -52t163 -20q333 0 399 219q31 103 31 332v641l147 123zM547 1313l-98 -101v-811q0 -72 23.5 -116t92.5 -103l2 -10q-84 35 -115.5 99.5
t-31.5 201.5v750l112 110zM809 1763l-244 -198h-107l148 198h203zM501 1481l-22 28h123l246 199l18 -25l-250 -202h-115z" />
    <glyph glyph-name="Uacute" unicode="&#x42a;" horiz-adv-x="1243" 
d="M1188 1366l-178 -143v-648q0 -157 -8 -227t-31 -121q-76 -164 -353 -164q-148 0 -248.5 43t-144.5 125q-32 60 -44.5 138t-12.5 211v663l-135 123h473l-137 -133v-809q0 -149 62 -210.5t212 -61.5q89 0 151 31.5t85 86.5q39 106 39 305v648l-156 143h426zM1223 1296
l-138 -110v-623q0 -260 -26 -348q-36 -113 -142.5 -175.5t-261.5 -62.5q-115 0 -212.5 32t-157.5 91l8 -4l35 -20q58 -32 138 -52t163 -20q333 0 399 219q31 103 31 332v641l147 123zM547 1313l-98 -101v-811q0 -72 23.5 -116t92.5 -103l2 -10q-84 35 -115.5 99.5
t-31.5 201.5v750l112 110zM809 1763l-244 -198h-107l148 198h203zM501 1481l-22 28h123l246 199l18 -25l-250 -202h-115z" />
    <glyph glyph-name="Ucircumflex" unicode="&#xdb;" horiz-adv-x="1243" 
d="M1188 1366l-178 -143v-648q0 -157 -8 -227t-31 -121q-76 -164 -353 -164q-148 0 -248.5 43t-144.5 125q-32 60 -44.5 138t-12.5 211v663l-135 123h473l-137 -133v-809q0 -149 62 -210.5t212 -61.5q89 0 151 31.5t85 86.5q39 106 39 305v648l-156 143h426zM1223 1296
l-138 -110v-623q0 -260 -26 -348q-36 -113 -142.5 -175.5t-261.5 -62.5q-115 0 -212.5 32t-157.5 91l8 -4l35 -20q58 -32 138 -52t163 -20q333 0 399 219q31 103 31 332v641l147 123zM547 1313l-98 -101v-811q0 -72 23.5 -116t92.5 -103l2 -10q-84 35 -115.5 99.5
t-31.5 201.5v750l112 110zM664 1638l-119 -141h-88l-19 21h97l114 135l-24 30l-103 -116h-104l168 200h129l172 -200h-160zM1024 1497h-233l-17 21h199l-174 202l39 -8z" />
    <glyph glyph-name="Ucircumflex" unicode="&#x42b;" horiz-adv-x="1243" 
d="M1188 1366l-178 -143v-648q0 -157 -8 -227t-31 -121q-76 -164 -353 -164q-148 0 -248.5 43t-144.5 125q-32 60 -44.5 138t-12.5 211v663l-135 123h473l-137 -133v-809q0 -149 62 -210.5t212 -61.5q89 0 151 31.5t85 86.5q39 106 39 305v648l-156 143h426zM1223 1296
l-138 -110v-623q0 -260 -26 -348q-36 -113 -142.5 -175.5t-261.5 -62.5q-115 0 -212.5 32t-157.5 91l8 -4l35 -20q58 -32 138 -52t163 -20q333 0 399 219q31 103 31 332v641l147 123zM547 1313l-98 -101v-811q0 -72 23.5 -116t92.5 -103l2 -10q-84 35 -115.5 99.5
t-31.5 201.5v750l112 110zM664 1638l-119 -141h-88l-19 21h97l114 135l-24 30l-103 -116h-104l168 200h129l172 -200h-160zM1024 1497h-233l-17 21h199l-174 202l39 -8z" />
    <glyph glyph-name="Udieresis" unicode="&#xdc;" horiz-adv-x="1243" 
d="M1188 1366l-178 -143v-648q0 -157 -8 -227t-31 -121q-76 -164 -353 -164q-148 0 -248.5 43t-144.5 125q-32 60 -44.5 138t-12.5 211v663l-135 123h473l-137 -133v-809q0 -149 62 -210.5t212 -61.5q89 0 151 31.5t85 86.5q39 106 39 305v648l-156 143h426zM1223 1296
l-138 -110v-623q0 -260 -26 -348q-36 -113 -142.5 -175.5t-261.5 -62.5q-115 0 -212.5 32t-157.5 91l8 -4l35 -20q58 -32 138 -52t163 -20q333 0 399 219q31 103 31 332v641l147 123zM547 1313l-98 -101v-811q0 -72 23.5 -116t92.5 -103l2 -10q-84 35 -115.5 99.5
t-31.5 201.5v750l112 110zM838 1769q40 0 69 -28t29 -68q0 -38 -29 -66t-69 -28q-38 0 -67 28t-29 66q0 40 29 68t67 28zM963 1728q24 -10 39.5 -36t15.5 -62q0 -53 -37 -90t-88 -37q-59 0 -94 47v6q46 -32 82 -32q48 0 83.5 33.5t35.5 78.5q0 27 -7.5 46t-29.5 46z
M617 1728q55 -25 55 -98q0 -54 -35.5 -90.5t-87.5 -36.5q-59 0 -94 47v6q46 -32 80 -32q48 0 83.5 33.5t35.5 78.5t-37 92zM492 1769q40 0 68 -28t28 -68q0 -38 -28 -66t-68 -28t-69 28t-29 66q0 40 29 68t69 28z" />
    <glyph glyph-name="Udieresis" unicode="&#x42c;" horiz-adv-x="1243" 
d="M1188 1366l-178 -143v-648q0 -157 -8 -227t-31 -121q-76 -164 -353 -164q-148 0 -248.5 43t-144.5 125q-32 60 -44.5 138t-12.5 211v663l-135 123h473l-137 -133v-809q0 -149 62 -210.5t212 -61.5q89 0 151 31.5t85 86.5q39 106 39 305v648l-156 143h426zM1223 1296
l-138 -110v-623q0 -260 -26 -348q-36 -113 -142.5 -175.5t-261.5 -62.5q-115 0 -212.5 32t-157.5 91l8 -4l35 -20q58 -32 138 -52t163 -20q333 0 399 219q31 103 31 332v641l147 123zM547 1313l-98 -101v-811q0 -72 23.5 -116t92.5 -103l2 -10q-84 35 -115.5 99.5
t-31.5 201.5v750l112 110zM838 1769q40 0 69 -28t29 -68q0 -38 -29 -66t-69 -28q-38 0 -67 28t-29 66q0 40 29 68t67 28zM963 1728q24 -10 39.5 -36t15.5 -62q0 -53 -37 -90t-88 -37q-59 0 -94 47v6q46 -32 82 -32q48 0 83.5 33.5t35.5 78.5q0 27 -7.5 46t-29.5 46z
M617 1728q55 -25 55 -98q0 -54 -35.5 -90.5t-87.5 -36.5q-59 0 -94 47v6q46 -32 80 -32q48 0 83.5 33.5t35.5 78.5t-37 92zM492 1769q40 0 68 -28t28 -68q0 -38 -28 -66t-68 -28t-69 28t-29 66q0 40 29 68t69 28z" />
    <glyph glyph-name="Yacute" unicode="&#xdd;" horiz-adv-x="1313" 
d="M1440 1718l6 -8l-10 -12q-130 -134 -201 -232q-20 -26 -94 -145q-22 -36 -40 -66t-24 -38l-372 -594v-408l145 -133h-488l146 133v408l-240 366l-53 84q-71 111 -118.5 165.5t-131.5 117.5l-12 10h506l-125 -129l334 -504l30 51l-295 453l105 98l20 -14l-92 -84l277 -428
l225 354q56 91 76 136t20 87q0 38 -20.5 74.5t-63.5 77.5q58 13 170 47q173 52 307 125zM1485 1657v-41l-10 -10q-69 -66 -91 -91.5t-71 -93.5q-75 -104 -162 -243l-363 -570v-393l179 -215h-627l-10 27h583l-151 188v399l426 674q56 92 100 151t94 115q57 64 103 103z
M844 1763l-244 -198h-107l148 198h203zM536 1481l-22 28h123l246 199l18 -25l-250 -202h-115z" />
    <glyph glyph-name="Yacute" unicode="&#x42d;" horiz-adv-x="1313" 
d="M1440 1718l6 -8l-10 -12q-130 -134 -201 -232q-20 -26 -94 -145q-22 -36 -40 -66t-24 -38l-372 -594v-408l145 -133h-488l146 133v408l-240 366l-53 84q-71 111 -118.5 165.5t-131.5 117.5l-12 10h506l-125 -129l334 -504l30 51l-295 453l105 98l20 -14l-92 -84l277 -428
l225 354q56 91 76 136t20 87q0 38 -20.5 74.5t-63.5 77.5q58 13 170 47q173 52 307 125zM1485 1657v-41l-10 -10q-69 -66 -91 -91.5t-71 -93.5q-75 -104 -162 -243l-363 -570v-393l179 -215h-627l-10 27h583l-151 188v399l426 674q56 92 100 151t94 115q57 64 103 103z
M844 1763l-244 -198h-107l148 198h203zM536 1481l-22 28h123l246 199l18 -25l-250 -202h-115z" />
    <glyph glyph-name="Thorn" unicode="&#xde;" horiz-adv-x="1184" 
d="M557 1366l-135 -137v-137h53v125l113 112l16 -20l-102 -101v-116h43q113 0 196.5 -12t142.5 -40t101 -71q94 -94 94 -238q0 -132 -90.5 -218.5t-245.5 -100.5q-30 -3 -163 -9h-35h-123v-210l119 -111h-461l139 117v129h-10q-75 0 -146 -31l-8 18q60 34 119 37l45 2v49
q-14 3 -33 3q-107 0 -170 -52l-10 15q64 112 197 112h16v760l-139 125h477zM422 989v-502h53v447h109q81 0 123.5 -9.5t70 -34.5t49.5 -73q-33 50 -82.5 71t-138.5 21h-104v-422h14q170 0 256 59.5t86 176.5q0 194 -147 248q-62 22 -174 22q-29 0 -49 -0.5t-44 -1.5z
M1028 985q37 -19 68.5 -59.5t49 -93t17.5 -113.5q0 -141 -64 -234t-190 -129q-68 -19 -133 -25.5t-188 -6.5l-48 2t-38 2v-142l157 -186h-501l-27 27h471l-127 149v178q79 -6 174 -6q167 0 277 40t162.5 121.5t52.5 209.5q0 77 -24.5 134t-88.5 132z" />
    <glyph glyph-name="Thorn" unicode="&#x42e;" horiz-adv-x="1184" 
d="M557 1366l-135 -137v-137h53v125l113 112l16 -20l-102 -101v-116h43q113 0 196.5 -12t142.5 -40t101 -71q94 -94 94 -238q0 -132 -90.5 -218.5t-245.5 -100.5q-30 -3 -163 -9h-35h-123v-210l119 -111h-461l139 117v129h-10q-75 0 -146 -31l-8 18q60 34 119 37l45 2v49
q-14 3 -33 3q-107 0 -170 -52l-10 15q64 112 197 112h16v760l-139 125h477zM422 989v-502h53v447h109q81 0 123.5 -9.5t70 -34.5t49.5 -73q-33 50 -82.5 71t-138.5 21h-104v-422h14q170 0 256 59.5t86 176.5q0 194 -147 248q-62 22 -174 22q-29 0 -49 -0.5t-44 -1.5z
M1028 985q37 -19 68.5 -59.5t49 -93t17.5 -113.5q0 -141 -64 -234t-190 -129q-68 -19 -133 -25.5t-188 -6.5l-48 2t-38 2v-142l157 -186h-501l-27 27h471l-127 149v178q79 -6 174 -6q167 0 277 40t162.5 121.5t52.5 209.5q0 77 -24.5 134t-88.5 132z" />
    <glyph glyph-name="germandbls" unicode="&#xdf;" horiz-adv-x="1217" 
d="M553 623l217 -37l4 -33l-209 41q-31 -83 -44 -129.5t-29 -112.5q-32 -134 -63.5 -293.5t-35.5 -242.5q-28 11 -70 38.5t-87.5 56t-75.5 40.5l-99 37l-16 28q74 -14 128.5 -39t203.5 -112q9 119 42.5 291t67.5 299q11 43 20 66t21.5 50t24.5 52zM360 639l5 33
q-72 29 -115.5 53t-81.5 55q-127 103 -127 267q0 52 17.5 97t62.5 109q-109 -93 -109 -213q0 -11 4 -41q17 -90 58.5 -152t93.5 -101t100 -62.5t92 -44.5zM694 727q-193 20 -286 109t-93 229q0 67 41 124t110.5 89.5t151.5 32.5q103 0 177 -41v-539q0 -4 -101 -4zM778 1214
q-57 29 -170 29q-104 0 -165 -29t-99 -98q73 60 129 82.5t135 22.5q72 0 146 -29zM1030 1167v-448l17 -2l2 442q9 12 20.5 20.5t23.5 14.5t23 12q2 0 2 8q-13 -4 -40.5 -17.5t-47.5 -29.5zM1171 520v17q-22 7 -69 16.5t-109 9.5v51q60 -2 148 -26l10 -4q0 6 -0.5 8t-1.5 4
q0 5 -19 53q0 -4 -14 45q0 4 -2 8q-25 -1 -40 -2l-30 -2q-9 0 -51 4l2 492q48 31 95 47l8 4q-145 84 -243 110.5t-267 26.5q-107 0 -195.5 -24t-154.5 -68t-102 -104.5t-36 -130.5q0 -76 39.5 -141t114 -112t180.5 -75q-49 -133 -117.5 -258t-146.5 -227.5t-158 -167.5
l15 -4q144 -49 292 -146l15 -8l4 31q16 90 22 116t23.5 96l34.5 138t28 129q1 7 8 27.5t20.5 58t21.5 61.5q5 16 15 42t26 44l14 29q71 -20 113 -24l131 -17v-446l-113 -119h440l-129 119v336l43 -5v-339l140 -164h-463l41 -29h463l-154 193v342q35 0 65 -5.5t43 -9.5z" />
    <glyph glyph-name="germandbls" unicode="&#x42f;" horiz-adv-x="1217" 
d="M553 623l217 -37l4 -33l-209 41q-31 -83 -44 -129.5t-29 -112.5q-32 -134 -63.5 -293.5t-35.5 -242.5q-28 11 -70 38.5t-87.5 56t-75.5 40.5l-99 37l-16 28q74 -14 128.5 -39t203.5 -112q9 119 42.5 291t67.5 299q11 43 20 66t21.5 50t24.5 52zM360 639l5 33
q-72 29 -115.5 53t-81.5 55q-127 103 -127 267q0 52 17.5 97t62.5 109q-109 -93 -109 -213q0 -11 4 -41q17 -90 58.5 -152t93.5 -101t100 -62.5t92 -44.5zM694 727q-193 20 -286 109t-93 229q0 67 41 124t110.5 89.5t151.5 32.5q103 0 177 -41v-539q0 -4 -101 -4zM778 1214
q-57 29 -170 29q-104 0 -165 -29t-99 -98q73 60 129 82.5t135 22.5q72 0 146 -29zM1030 1167v-448l17 -2l2 442q9 12 20.5 20.5t23.5 14.5t23 12q2 0 2 8q-13 -4 -40.5 -17.5t-47.5 -29.5zM1171 520v17q-22 7 -69 16.5t-109 9.5v51q60 -2 148 -26l10 -4q0 6 -0.5 8t-1.5 4
q0 5 -19 53q0 -4 -14 45q0 4 -2 8q-25 -1 -40 -2l-30 -2q-9 0 -51 4l2 492q48 31 95 47l8 4q-145 84 -243 110.5t-267 26.5q-107 0 -195.5 -24t-154.5 -68t-102 -104.5t-36 -130.5q0 -76 39.5 -141t114 -112t180.5 -75q-49 -133 -117.5 -258t-146.5 -227.5t-158 -167.5
l15 -4q144 -49 292 -146l15 -8l4 31q16 90 22 116t23.5 96l34.5 138t28 129q1 7 8 27.5t20.5 58t21.5 61.5q5 16 15 42t26 44l14 29q71 -20 113 -24l131 -17v-446l-113 -119h440l-129 119v336l43 -5v-339l140 -164h-463l41 -29h463l-154 193v342q35 0 65 -5.5t43 -9.5z" />
    <glyph glyph-name="agrave" unicode="&#xe0;" horiz-adv-x="1550" 
d="M967 1366l-103 -119l162 -436l41 23l-147 393l104 123l27 -11l-101 -118l140 -373l47 39q12 8 22 18l17 17q22 -105 79 -205q-20 2 -43 2q-93 0 -139 -31l182 -489l150 -117h-504l137 117l-110 290q-36 -35 -90 -101.5t-80 -108.5l-23 6q34 57 70.5 102.5t105.5 116.5
l9 10l-19 45q-50 -40 -107.5 -107t-91.5 -124l-18 30q-54 87 -133 189l-8 12q-78 -175 -78 -287q0 -39 8.5 -68.5t35.5 -68.5t81 -106q2 -2 8.5 -11.5t13.5 -17.5h-540l-21 27h510l-18 22q-66 81 -86.5 124.5t-20.5 100.5q0 58 19.5 126.5t64.5 181.5l-45 45
q-12 -32 -33 -95l-32 -100q-27 -81 -27 -137q0 -38 7.5 -65.5t28 -55.5t64.5 -74q1 -2 17 -18h-500q81 44 127.5 83t87.5 99q89 139 139 287q10 24 37 117l4 12q-50 45 -151 55q55 88 84 172l61 -59q42 -34 55 -43l19 43l-12 10l-43 37q-15 13 -41 35l-9 6l17 22
q49 -31 100 -81l137 374l-106 115h461zM719 1044l-109 -290l11 -13l41 -45q31 -36 83 -112l11 -15q34 44 100 107zM674 1159l-158 -420q88 -93 131 -153l55 -78l35 43q-66 103 -162 194l127 338zM1264 874q20 -89 110 -247q-12 2 -26 2q-6 2 -80 8q-74 4 -80 4h-21l166 -442
l223 -199h-577l-21 27h531l-178 159l-178 471q30 9 77 9q51 0 103 -7l16 -2q-47 89 -65.5 132.5t-30.5 103.5zM669 1740l137 -192h-116l-230 192h209zM940 1480h-168l-29 25h139l-125 174l43 -8z" />
    <glyph glyph-name="agrave" unicode="&#x430;" horiz-adv-x="1550" 
d="M967 1366l-103 -119l162 -436l41 23l-147 393l104 123l27 -11l-101 -118l140 -373l47 39q12 8 22 18l17 17q22 -105 79 -205q-20 2 -43 2q-93 0 -139 -31l182 -489l150 -117h-504l137 117l-110 290q-36 -35 -90 -101.5t-80 -108.5l-23 6q34 57 70.5 102.5t105.5 116.5
l9 10l-19 45q-50 -40 -107.5 -107t-91.5 -124l-18 30q-54 87 -133 189l-8 12q-78 -175 -78 -287q0 -39 8.5 -68.5t35.5 -68.5t81 -106q2 -2 8.5 -11.5t13.5 -17.5h-540l-21 27h510l-18 22q-66 81 -86.5 124.5t-20.5 100.5q0 58 19.5 126.5t64.5 181.5l-45 45
q-12 -32 -33 -95l-32 -100q-27 -81 -27 -137q0 -38 7.5 -65.5t28 -55.5t64.5 -74q1 -2 17 -18h-500q81 44 127.5 83t87.5 99q89 139 139 287q10 24 37 117l4 12q-50 45 -151 55q55 88 84 172l61 -59q42 -34 55 -43l19 43l-12 10l-43 37q-15 13 -41 35l-9 6l17 22
q49 -31 100 -81l137 374l-106 115h461zM719 1044l-109 -290l11 -13l41 -45q31 -36 83 -112l11 -15q34 44 100 107zM674 1159l-158 -420q88 -93 131 -153l55 -78l35 43q-66 103 -162 194l127 338zM1264 874q20 -89 110 -247q-12 2 -26 2q-6 2 -80 8q-74 4 -80 4h-21l166 -442
l223 -199h-577l-21 27h531l-178 159l-178 471q30 9 77 9q51 0 103 -7l16 -2q-47 89 -65.5 132.5t-30.5 103.5zM669 1740l137 -192h-116l-230 192h209zM940 1480h-168l-29 25h139l-125 174l43 -8z" />
    <glyph glyph-name="aacute" unicode="&#xe1;" horiz-adv-x="1550" 
d="M967 1366l-103 -119l162 -436l41 23l-147 393l104 123l27 -11l-101 -118l140 -373l47 39q12 8 22 18l17 17q22 -105 79 -205q-20 2 -43 2q-93 0 -139 -31l182 -489l150 -117h-504l137 117l-110 290q-36 -35 -90 -101.5t-80 -108.5l-23 6q34 57 70.5 102.5t105.5 116.5
l9 10l-19 45q-50 -40 -107.5 -107t-91.5 -124l-18 30q-54 87 -133 189l-8 12q-78 -175 -78 -287q0 -39 8.5 -68.5t35.5 -68.5t81 -106q2 -2 8.5 -11.5t13.5 -17.5h-540l-21 27h510l-18 22q-66 81 -86.5 124.5t-20.5 100.5q0 58 19.5 126.5t64.5 181.5l-45 45
q-12 -32 -33 -95l-32 -100q-27 -81 -27 -137q0 -38 7.5 -65.5t28 -55.5t64.5 -74q1 -2 17 -18h-500q81 44 127.5 83t87.5 99q89 139 139 287q10 24 37 117l4 12q-50 45 -151 55q55 88 84 172l61 -59q42 -34 55 -43l19 43l-12 10l-43 37q-15 13 -41 35l-9 6l17 22
q49 -31 100 -81l137 374l-106 115h461zM719 1044l-109 -290l11 -13l41 -45q31 -36 83 -112l11 -15q34 44 100 107zM674 1159l-158 -420q88 -93 131 -153l55 -78l35 43q-66 103 -162 194l127 338zM1264 874q20 -89 110 -247q-12 2 -26 2q-6 2 -80 8q-74 4 -80 4h-21l166 -442
l223 -199h-577l-21 27h531l-178 159l-178 471q30 9 77 9q51 0 103 -7l16 -2q-47 89 -65.5 132.5t-30.5 103.5zM924 1763l-244 -198h-107l148 198h203zM616 1481l-22 28h123l246 199l18 -25l-250 -202h-115z" />
    <glyph glyph-name="aacute" unicode="&#x431;" horiz-adv-x="1550" 
d="M967 1366l-103 -119l162 -436l41 23l-147 393l104 123l27 -11l-101 -118l140 -373l47 39q12 8 22 18l17 17q22 -105 79 -205q-20 2 -43 2q-93 0 -139 -31l182 -489l150 -117h-504l137 117l-110 290q-36 -35 -90 -101.5t-80 -108.5l-23 6q34 57 70.5 102.5t105.5 116.5
l9 10l-19 45q-50 -40 -107.5 -107t-91.5 -124l-18 30q-54 87 -133 189l-8 12q-78 -175 -78 -287q0 -39 8.5 -68.5t35.5 -68.5t81 -106q2 -2 8.5 -11.5t13.5 -17.5h-540l-21 27h510l-18 22q-66 81 -86.5 124.5t-20.5 100.5q0 58 19.5 126.5t64.5 181.5l-45 45
q-12 -32 -33 -95l-32 -100q-27 -81 -27 -137q0 -38 7.5 -65.5t28 -55.5t64.5 -74q1 -2 17 -18h-500q81 44 127.5 83t87.5 99q89 139 139 287q10 24 37 117l4 12q-50 45 -151 55q55 88 84 172l61 -59q42 -34 55 -43l19 43l-12 10l-43 37q-15 13 -41 35l-9 6l17 22
q49 -31 100 -81l137 374l-106 115h461zM719 1044l-109 -290l11 -13l41 -45q31 -36 83 -112l11 -15q34 44 100 107zM674 1159l-158 -420q88 -93 131 -153l55 -78l35 43q-66 103 -162 194l127 338zM1264 874q20 -89 110 -247q-12 2 -26 2q-6 2 -80 8q-74 4 -80 4h-21l166 -442
l223 -199h-577l-21 27h531l-178 159l-178 471q30 9 77 9q51 0 103 -7l16 -2q-47 89 -65.5 132.5t-30.5 103.5zM924 1763l-244 -198h-107l148 198h203zM616 1481l-22 28h123l246 199l18 -25l-250 -202h-115z" />
    <glyph glyph-name="acircumflex" unicode="&#xe2;" horiz-adv-x="1550" 
d="M967 1366l-103 -119l162 -436l41 23l-147 393l104 123l27 -11l-101 -118l140 -373l47 39q12 8 22 18l17 17q22 -105 79 -205q-20 2 -43 2q-93 0 -139 -31l182 -489l150 -117h-504l137 117l-110 290q-36 -35 -90 -101.5t-80 -108.5l-23 6q34 57 70.5 102.5t105.5 116.5
l9 10l-19 45q-50 -40 -107.5 -107t-91.5 -124l-18 30q-54 87 -133 189l-8 12q-78 -175 -78 -287q0 -39 8.5 -68.5t35.5 -68.5t81 -106q2 -2 8.5 -11.5t13.5 -17.5h-540l-21 27h510l-18 22q-66 81 -86.5 124.5t-20.5 100.5q0 58 19.5 126.5t64.5 181.5l-45 45
q-12 -32 -33 -95l-32 -100q-27 -81 -27 -137q0 -38 7.5 -65.5t28 -55.5t64.5 -74q1 -2 17 -18h-500q81 44 127.5 83t87.5 99q89 139 139 287q10 24 37 117l4 12q-50 45 -151 55q55 88 84 172l61 -59q42 -34 55 -43l19 43l-12 10l-43 37q-15 13 -41 35l-9 6l17 22
q49 -31 100 -81l137 374l-106 115h461zM719 1044l-109 -290l11 -13l41 -45q31 -36 83 -112l11 -15q34 44 100 107zM674 1159l-158 -420q88 -93 131 -153l55 -78l35 43q-66 103 -162 194l127 338zM1264 874q20 -89 110 -247q-12 2 -26 2q-6 2 -80 8q-74 4 -80 4h-21l166 -442
l223 -199h-577l-21 27h531l-178 159l-178 471q30 9 77 9q51 0 103 -7l16 -2q-47 89 -65.5 132.5t-30.5 103.5zM691 1638l-119 -141h-88l-19 21h97l114 135l-24 30l-103 -116h-104l168 200h129l172 -200h-160zM1051 1497h-233l-17 21h199l-174 202l39 -8z" />
    <glyph glyph-name="acircumflex" unicode="&#x432;" horiz-adv-x="1550" 
d="M967 1366l-103 -119l162 -436l41 23l-147 393l104 123l27 -11l-101 -118l140 -373l47 39q12 8 22 18l17 17q22 -105 79 -205q-20 2 -43 2q-93 0 -139 -31l182 -489l150 -117h-504l137 117l-110 290q-36 -35 -90 -101.5t-80 -108.5l-23 6q34 57 70.5 102.5t105.5 116.5
l9 10l-19 45q-50 -40 -107.5 -107t-91.5 -124l-18 30q-54 87 -133 189l-8 12q-78 -175 -78 -287q0 -39 8.5 -68.5t35.5 -68.5t81 -106q2 -2 8.5 -11.5t13.5 -17.5h-540l-21 27h510l-18 22q-66 81 -86.5 124.5t-20.5 100.5q0 58 19.5 126.5t64.5 181.5l-45 45
q-12 -32 -33 -95l-32 -100q-27 -81 -27 -137q0 -38 7.5 -65.5t28 -55.5t64.5 -74q1 -2 17 -18h-500q81 44 127.5 83t87.5 99q89 139 139 287q10 24 37 117l4 12q-50 45 -151 55q55 88 84 172l61 -59q42 -34 55 -43l19 43l-12 10l-43 37q-15 13 -41 35l-9 6l17 22
q49 -31 100 -81l137 374l-106 115h461zM719 1044l-109 -290l11 -13l41 -45q31 -36 83 -112l11 -15q34 44 100 107zM674 1159l-158 -420q88 -93 131 -153l55 -78l35 43q-66 103 -162 194l127 338zM1264 874q20 -89 110 -247q-12 2 -26 2q-6 2 -80 8q-74 4 -80 4h-21l166 -442
l223 -199h-577l-21 27h531l-178 159l-178 471q30 9 77 9q51 0 103 -7l16 -2q-47 89 -65.5 132.5t-30.5 103.5zM691 1638l-119 -141h-88l-19 21h97l114 135l-24 30l-103 -116h-104l168 200h129l172 -200h-160zM1051 1497h-233l-17 21h199l-174 202l39 -8z" />
    <glyph glyph-name="atilde" unicode="&#xe3;" horiz-adv-x="1550" 
d="M967 1366l-103 -119l162 -436l41 23l-147 393l104 123l27 -11l-101 -118l140 -373l47 39q12 8 22 18l17 17q22 -105 79 -205q-20 2 -43 2q-93 0 -139 -31l182 -489l150 -117h-504l137 117l-110 290q-36 -35 -90 -101.5t-80 -108.5l-23 6q34 57 70.5 102.5t105.5 116.5
l9 10l-19 45q-50 -40 -107.5 -107t-91.5 -124l-18 30q-54 87 -133 189l-8 12q-78 -175 -78 -287q0 -39 8.5 -68.5t35.5 -68.5t81 -106q2 -2 8.5 -11.5t13.5 -17.5h-540l-21 27h510l-18 22q-66 81 -86.5 124.5t-20.5 100.5q0 58 19.5 126.5t64.5 181.5l-45 45
q-12 -32 -33 -95l-32 -100q-27 -81 -27 -137q0 -38 7.5 -65.5t28 -55.5t64.5 -74q1 -2 17 -18h-500q81 44 127.5 83t87.5 99q89 139 139 287q10 24 37 117l4 12q-50 45 -151 55q55 88 84 172l61 -59q42 -34 55 -43l19 43l-12 10l-43 37q-15 13 -41 35l-9 6l17 22
q49 -31 100 -81l137 374l-106 115h461zM719 1044l-109 -290l11 -13l41 -45q31 -36 83 -112l11 -15q34 44 100 107zM674 1159l-158 -420q88 -93 131 -153l55 -78l35 43q-66 103 -162 194l127 338zM1264 874q20 -89 110 -247q-12 2 -26 2q-6 2 -80 8q-74 4 -80 4h-21l166 -442
l223 -199h-577l-21 27h531l-178 159l-178 471q30 9 77 9q51 0 103 -7l16 -2q-47 89 -65.5 132.5t-30.5 103.5zM1016 1759q2 -12 2 -26q0 -74 -45.5 -124t-110.5 -50q-33 0 -77 13.5t-109 45.5q-67 33 -94 33q-31 0 -51.5 -21t-24.5 -57h-72v8q0 79 54 137t129 58
q45 0 74.5 -11.5t113.5 -62.5q51 -29 76 -29q27 0 45 20t18 54v12h72zM1073 1731l21 -19v-8q0 -85 -54.5 -146t-130.5 -61q-51 0 -112 31l12 12q59 -20 96 -20q74 0 116 50.5t50 147.5zM588 1604v-31q-21 -32 -29 -74h-80l-14 23h78q12 57 45 82z" />
    <glyph glyph-name="atilde" unicode="&#x433;" horiz-adv-x="1550" 
d="M967 1366l-103 -119l162 -436l41 23l-147 393l104 123l27 -11l-101 -118l140 -373l47 39q12 8 22 18l17 17q22 -105 79 -205q-20 2 -43 2q-93 0 -139 -31l182 -489l150 -117h-504l137 117l-110 290q-36 -35 -90 -101.5t-80 -108.5l-23 6q34 57 70.5 102.5t105.5 116.5
l9 10l-19 45q-50 -40 -107.5 -107t-91.5 -124l-18 30q-54 87 -133 189l-8 12q-78 -175 -78 -287q0 -39 8.5 -68.5t35.5 -68.5t81 -106q2 -2 8.5 -11.5t13.5 -17.5h-540l-21 27h510l-18 22q-66 81 -86.5 124.5t-20.5 100.5q0 58 19.5 126.5t64.5 181.5l-45 45
q-12 -32 -33 -95l-32 -100q-27 -81 -27 -137q0 -38 7.5 -65.5t28 -55.5t64.5 -74q1 -2 17 -18h-500q81 44 127.5 83t87.5 99q89 139 139 287q10 24 37 117l4 12q-50 45 -151 55q55 88 84 172l61 -59q42 -34 55 -43l19 43l-12 10l-43 37q-15 13 -41 35l-9 6l17 22
q49 -31 100 -81l137 374l-106 115h461zM719 1044l-109 -290l11 -13l41 -45q31 -36 83 -112l11 -15q34 44 100 107zM674 1159l-158 -420q88 -93 131 -153l55 -78l35 43q-66 103 -162 194l127 338zM1264 874q20 -89 110 -247q-12 2 -26 2q-6 2 -80 8q-74 4 -80 4h-21l166 -442
l223 -199h-577l-21 27h531l-178 159l-178 471q30 9 77 9q51 0 103 -7l16 -2q-47 89 -65.5 132.5t-30.5 103.5zM1016 1759q2 -12 2 -26q0 -74 -45.5 -124t-110.5 -50q-33 0 -77 13.5t-109 45.5q-67 33 -94 33q-31 0 -51.5 -21t-24.5 -57h-72v8q0 79 54 137t129 58
q45 0 74.5 -11.5t113.5 -62.5q51 -29 76 -29q27 0 45 20t18 54v12h72zM1073 1731l21 -19v-8q0 -85 -54.5 -146t-130.5 -61q-51 0 -112 31l12 12q59 -20 96 -20q74 0 116 50.5t50 147.5zM588 1604v-31q-21 -32 -29 -74h-80l-14 23h78q12 57 45 82z" />
    <glyph glyph-name="adieresis" unicode="&#xe4;" horiz-adv-x="1550" 
d="M967 1366l-103 -119l162 -436l41 23l-147 393l104 123l27 -11l-101 -118l140 -373l47 39q12 8 22 18l17 17q22 -105 79 -205q-20 2 -43 2q-93 0 -139 -31l182 -489l150 -117h-504l137 117l-110 290q-36 -35 -90 -101.5t-80 -108.5l-23 6q34 57 70.5 102.5t105.5 116.5
l9 10l-19 45q-50 -40 -107.5 -107t-91.5 -124l-18 30q-54 87 -133 189l-8 12q-78 -175 -78 -287q0 -39 8.5 -68.5t35.5 -68.5t81 -106q2 -2 8.5 -11.5t13.5 -17.5h-540l-21 27h510l-18 22q-66 81 -86.5 124.5t-20.5 100.5q0 58 19.5 126.5t64.5 181.5l-45 45
q-12 -32 -33 -95l-32 -100q-27 -81 -27 -137q0 -38 7.5 -65.5t28 -55.5t64.5 -74q1 -2 17 -18h-500q81 44 127.5 83t87.5 99q89 139 139 287q10 24 37 117l4 12q-50 45 -151 55q55 88 84 172l61 -59q42 -34 55 -43l19 43l-12 10l-43 37q-15 13 -41 35l-9 6l17 22
q49 -31 100 -81l137 374l-106 115h461zM719 1044l-109 -290l11 -13l41 -45q31 -36 83 -112l11 -15q34 44 100 107zM674 1159l-158 -420q88 -93 131 -153l55 -78l35 43q-66 103 -162 194l127 338zM1264 874q20 -89 110 -247q-12 2 -26 2q-6 2 -80 8q-74 4 -80 4h-21l166 -442
l223 -199h-577l-21 27h531l-178 159l-178 471q30 9 77 9q51 0 103 -7l16 -2q-47 89 -65.5 132.5t-30.5 103.5zM893 1763q40 0 69 -28t29 -68q0 -38 -29 -66t-69 -28q-38 0 -67 28t-29 66q0 40 29 68t67 28zM1018 1722q24 -10 39.5 -36t15.5 -62q0 -53 -37 -90t-88 -37
q-59 0 -94 47v6q46 -32 82 -32q48 0 83.5 33.5t35.5 78.5q0 27 -7.5 46t-29.5 46zM672 1722q55 -25 55 -98q0 -54 -35.5 -90.5t-87.5 -36.5q-59 0 -94 47v6q46 -32 80 -32q48 0 83.5 33.5t35.5 78.5t-37 92zM547 1763q40 0 68 -28t28 -68q0 -38 -28 -66t-68 -28t-69 28
t-29 66q0 40 29 68t69 28z" />
    <glyph glyph-name="adieresis" unicode="&#x434;" horiz-adv-x="1550" 
d="M967 1366l-103 -119l162 -436l41 23l-147 393l104 123l27 -11l-101 -118l140 -373l47 39q12 8 22 18l17 17q22 -105 79 -205q-20 2 -43 2q-93 0 -139 -31l182 -489l150 -117h-504l137 117l-110 290q-36 -35 -90 -101.5t-80 -108.5l-23 6q34 57 70.5 102.5t105.5 116.5
l9 10l-19 45q-50 -40 -107.5 -107t-91.5 -124l-18 30q-54 87 -133 189l-8 12q-78 -175 -78 -287q0 -39 8.5 -68.5t35.5 -68.5t81 -106q2 -2 8.5 -11.5t13.5 -17.5h-540l-21 27h510l-18 22q-66 81 -86.5 124.5t-20.5 100.5q0 58 19.5 126.5t64.5 181.5l-45 45
q-12 -32 -33 -95l-32 -100q-27 -81 -27 -137q0 -38 7.5 -65.5t28 -55.5t64.5 -74q1 -2 17 -18h-500q81 44 127.5 83t87.5 99q89 139 139 287q10 24 37 117l4 12q-50 45 -151 55q55 88 84 172l61 -59q42 -34 55 -43l19 43l-12 10l-43 37q-15 13 -41 35l-9 6l17 22
q49 -31 100 -81l137 374l-106 115h461zM719 1044l-109 -290l11 -13l41 -45q31 -36 83 -112l11 -15q34 44 100 107zM674 1159l-158 -420q88 -93 131 -153l55 -78l35 43q-66 103 -162 194l127 338zM1264 874q20 -89 110 -247q-12 2 -26 2q-6 2 -80 8q-74 4 -80 4h-21l166 -442
l223 -199h-577l-21 27h531l-178 159l-178 471q30 9 77 9q51 0 103 -7l16 -2q-47 89 -65.5 132.5t-30.5 103.5zM893 1763q40 0 69 -28t29 -68q0 -38 -29 -66t-69 -28q-38 0 -67 28t-29 66q0 40 29 68t67 28zM1018 1722q24 -10 39.5 -36t15.5 -62q0 -53 -37 -90t-88 -37
q-59 0 -94 47v6q46 -32 82 -32q48 0 83.5 33.5t35.5 78.5q0 27 -7.5 46t-29.5 46zM672 1722q55 -25 55 -98q0 -54 -35.5 -90.5t-87.5 -36.5q-59 0 -94 47v6q46 -32 80 -32q48 0 83.5 33.5t35.5 78.5t-37 92zM547 1763q40 0 68 -28t28 -68q0 -38 -28 -66t-68 -28t-69 28
t-29 66q0 40 29 68t69 28z" />
    <glyph glyph-name="aring" unicode="&#xe5;" horiz-adv-x="1550" 
d="M967 1366l-103 -119l162 -436l41 23l-147 393l104 123l27 -11l-101 -118l140 -373l47 39q12 8 22 18l17 17q22 -105 79 -205q-20 2 -43 2q-93 0 -139 -31l182 -489l150 -117h-504l137 117l-110 290q-36 -35 -90 -101.5t-80 -108.5l-23 6q34 57 70.5 102.5t105.5 116.5
l9 10l-19 45q-50 -40 -107.5 -107t-91.5 -124l-18 30q-54 87 -133 189l-8 12q-78 -175 -78 -287q0 -39 8.5 -68.5t35.5 -68.5t81 -106q2 -2 8.5 -11.5t13.5 -17.5h-540l-21 27h510l-18 22q-66 81 -86.5 124.5t-20.5 100.5q0 58 19.5 126.5t64.5 181.5l-45 45
q-12 -32 -33 -95l-32 -100q-27 -81 -27 -137q0 -38 7.5 -65.5t28 -55.5t64.5 -74q1 -2 17 -18h-500q81 44 127.5 83t87.5 99q89 139 139 287q10 24 37 117l4 12q-50 45 -151 55q55 88 84 172l61 -59q42 -34 55 -43l19 43l-12 10l-43 37q-15 13 -41 35l-9 6l17 22
q49 -31 100 -81l137 374l-106 115h461zM719 1044l-109 -290l11 -13l41 -45q31 -36 83 -112l11 -15q34 44 100 107zM674 1159l-158 -420q88 -93 131 -153l55 -78l35 43q-66 103 -162 194l127 338zM1264 874q20 -89 110 -247q-12 2 -26 2q-6 2 -80 8q-74 4 -80 4h-21l166 -442
l223 -199h-577l-21 27h531l-178 159l-178 471q30 9 77 9q51 0 103 -7l16 -2q-47 89 -65.5 132.5t-30.5 103.5zM837 1788q42 -21 67 -62.5t25 -87.5q0 -48 -23 -88.5t-61.5 -64t-83.5 -23.5q-83 0 -137 60l8 6q55 -47 117 -47q65 0 111.5 46.5t46.5 110.5q0 85 -80 142z
M700 1819q39 0 71.5 -19t52 -53t19.5 -72q0 -60 -41.5 -101.5t-101.5 -41.5q-59 0 -101 42t-42 101q0 58 41 101t102 43zM700 1739q-27 0 -46.5 -18.5t-19.5 -45.5q0 -28 19.5 -46.5t46.5 -18.5q28 0 47 18t19 47q0 28 -19 46t-47 18z" />
    <glyph glyph-name="aring" unicode="&#x435;" horiz-adv-x="1550" 
d="M967 1366l-103 -119l162 -436l41 23l-147 393l104 123l27 -11l-101 -118l140 -373l47 39q12 8 22 18l17 17q22 -105 79 -205q-20 2 -43 2q-93 0 -139 -31l182 -489l150 -117h-504l137 117l-110 290q-36 -35 -90 -101.5t-80 -108.5l-23 6q34 57 70.5 102.5t105.5 116.5
l9 10l-19 45q-50 -40 -107.5 -107t-91.5 -124l-18 30q-54 87 -133 189l-8 12q-78 -175 -78 -287q0 -39 8.5 -68.5t35.5 -68.5t81 -106q2 -2 8.5 -11.5t13.5 -17.5h-540l-21 27h510l-18 22q-66 81 -86.5 124.5t-20.5 100.5q0 58 19.5 126.5t64.5 181.5l-45 45
q-12 -32 -33 -95l-32 -100q-27 -81 -27 -137q0 -38 7.5 -65.5t28 -55.5t64.5 -74q1 -2 17 -18h-500q81 44 127.5 83t87.5 99q89 139 139 287q10 24 37 117l4 12q-50 45 -151 55q55 88 84 172l61 -59q42 -34 55 -43l19 43l-12 10l-43 37q-15 13 -41 35l-9 6l17 22
q49 -31 100 -81l137 374l-106 115h461zM719 1044l-109 -290l11 -13l41 -45q31 -36 83 -112l11 -15q34 44 100 107zM674 1159l-158 -420q88 -93 131 -153l55 -78l35 43q-66 103 -162 194l127 338zM1264 874q20 -89 110 -247q-12 2 -26 2q-6 2 -80 8q-74 4 -80 4h-21l166 -442
l223 -199h-577l-21 27h531l-178 159l-178 471q30 9 77 9q51 0 103 -7l16 -2q-47 89 -65.5 132.5t-30.5 103.5zM837 1788q42 -21 67 -62.5t25 -87.5q0 -48 -23 -88.5t-61.5 -64t-83.5 -23.5q-83 0 -137 60l8 6q55 -47 117 -47q65 0 111.5 46.5t46.5 110.5q0 85 -80 142z
M700 1819q39 0 71.5 -19t52 -53t19.5 -72q0 -60 -41.5 -101.5t-101.5 -41.5q-59 0 -101 42t-42 101q0 58 41 101t102 43zM700 1739q-27 0 -46.5 -18.5t-19.5 -45.5q0 -28 19.5 -46.5t46.5 -18.5q28 0 47 18t19 47q0 28 -19 46t-47 18z" />
    <glyph glyph-name="ae" unicode="&#xe6;" horiz-adv-x="2062" 
d="M1901 1366q-117 -147 -172 -299q-7 8 -7 16q-34 85 -63 123.5t-71 53t-124 14.5h-284v-445h63v394q45 2 109 2q164 0 228.5 -20.5t100.5 -84.5q-6 4 -9 5t-5 3q-64 45 -120.5 56.5t-215.5 11.5q-35 0 -61 -2v-365h200l129 181v-459l-139 186h-280v-567h63v516h217l27 -27
h-217v-489q71 0 127 -2h28q121 0 198.5 22.5t122 73.5t62.5 135q50 -148 105 -233l39 -53l18 -31h-1145l168 145v226l-119 -148l-10 29l129 160v92l-168 -215q-47 54 -94 114q-49 63 -94 105l-98 -152q-32 -53 -51 -106t-19 -92q0 -38 9 -66t35 -60t97 -104l11 -10h-603
l-14 27h567l-55 55h-551q85 31 199 137q48 47 84.5 94.5t103.5 147.5q45 65 56 82l100 153q-52 30 -92 39l-31 6l-12 4l102 148l33 -37l67 -63l25 36l-45 50l-47 57l12 27l101 -105l243 373l-153 135h1190zM618 606q-19 23 -43 41l-88 -135q-100 -149 -100 -248
q0 -107 117 -164q-62 56 -62 125q0 120 99 264zM993 1124l-252 -374l144 -158l108 125v407zM993 1268l-358 -533l190 -209l41 45l-159 177l286 428v92zM1935 1321l11 -21q-45 -49 -83 -112t-77 -148l-4 -10l-15 17q35 86 76.5 153.5t91.5 120.5zM1671 977v-471l-26 14v469z
M2083 86l-51 -86h-1143l-12 27h1142l29 51l-4 6q-127 164 -158 297l31 -10l41 -95l65 -112z" />
    <glyph glyph-name="ae" unicode="&#x436;" horiz-adv-x="2062" 
d="M1901 1366q-117 -147 -172 -299q-7 8 -7 16q-34 85 -63 123.5t-71 53t-124 14.5h-284v-445h63v394q45 2 109 2q164 0 228.5 -20.5t100.5 -84.5q-6 4 -9 5t-5 3q-64 45 -120.5 56.5t-215.5 11.5q-35 0 -61 -2v-365h200l129 181v-459l-139 186h-280v-567h63v516h217l27 -27
h-217v-489q71 0 127 -2h28q121 0 198.5 22.5t122 73.5t62.5 135q50 -148 105 -233l39 -53l18 -31h-1145l168 145v226l-119 -148l-10 29l129 160v92l-168 -215q-47 54 -94 114q-49 63 -94 105l-98 -152q-32 -53 -51 -106t-19 -92q0 -38 9 -66t35 -60t97 -104l11 -10h-603
l-14 27h567l-55 55h-551q85 31 199 137q48 47 84.5 94.5t103.5 147.5q45 65 56 82l100 153q-52 30 -92 39l-31 6l-12 4l102 148l33 -37l67 -63l25 36l-45 50l-47 57l12 27l101 -105l243 373l-153 135h1190zM618 606q-19 23 -43 41l-88 -135q-100 -149 -100 -248
q0 -107 117 -164q-62 56 -62 125q0 120 99 264zM993 1124l-252 -374l144 -158l108 125v407zM993 1268l-358 -533l190 -209l41 45l-159 177l286 428v92zM1935 1321l11 -21q-45 -49 -83 -112t-77 -148l-4 -10l-15 17q35 86 76.5 153.5t91.5 120.5zM1671 977v-471l-26 14v469z
M2083 86l-51 -86h-1143l-12 27h1142l29 51l-4 6q-127 164 -158 297l31 -10l41 -95l65 -112z" />
    <glyph glyph-name="ccedilla" unicode="&#xe7;" horiz-adv-x="1212" 
d="M664 49l-21 -82q102 0 102 -125q0 -86 -53 -144t-135 -58q-99 0 -156 98l7 6l34 20q30 20 66 50q0 -44 16.5 -69.5t42.5 -25.5q30 0 51 38t21 91q0 68 -55 68q-18 0 -28 -6.5t-24 -24.5l-18 17q7 16 27 71l2 7q-61 9 -105.5 29t-101.5 61v8q54 -35 100 -51t113 -23
q8 29 10 39l2 6q-244 26 -379 202t-135 472q0 190 72.5 344t199.5 243t281 89q79 0 120 -9.5t136 -46.5q74 -28 119 -28q54 0 100 28l17 -8l-13 -20q-32 -56 -58.5 -106.5t-46.5 -93.5t-50 -114l-9 -22l-12 6q-17 101 -59.5 175.5t-107.5 114.5t-144 40q-44 0 -86.5 -16.5
t-81 -48t-62.5 -70.5q-32 -55 -50.5 -116.5t-28 -144t-9.5 -184.5q0 -137 25 -250.5t73 -193t117.5 -120t155.5 -40.5q94 0 162.5 41t109 121t52.5 199q3 40 30 40q41 0 41 -65q0 -47 -17 -116.5t-38 -108.5q-43 -86 -125.5 -135t-195.5 -58zM801 1161q-56 45 -90 59.5
t-82 14.5q-127 0 -193.5 -126.5t-66.5 -367.5q0 -223 61.5 -374t169.5 -195v-10q-59 13 -106.5 58t-83 123.5t-53 177.5t-17.5 220q0 127 19 225t55 162.5t88.5 98t122.5 33.5q55 0 92.5 -19t83.5 -67v-13zM750 -61q67 -52 67 -156q0 -52 -26.5 -99t-72 -75.5t-93.5 -28.5
q-87 0 -131 45v8q52 -32 108 -32q74 0 131.5 62.5t57.5 143.5q0 66 -50 125zM569 -141q6 32 45 32v-10q-18 -9 -32 -39zM1126 475q-8 -123 -32.5 -202t-77.5 -144q-51 -64 -104.5 -95t-145.5 -50l-10 -2l-27 24q72 5 143.5 44.5t120.5 101.5q51 61 72.5 131t30.5 182l2 22z
M1163 1286l-10 -18q-28 -47 -63.5 -112.5t-63 -122.5t-47.5 -105l-27 14l99 199l90 159zM573 -233l23 -13l-18 -12z" />
    <glyph glyph-name="ccedilla" unicode="&#x437;" horiz-adv-x="1212" 
d="M664 49l-21 -82q102 0 102 -125q0 -86 -53 -144t-135 -58q-99 0 -156 98l7 6l34 20q30 20 66 50q0 -44 16.5 -69.5t42.5 -25.5q30 0 51 38t21 91q0 68 -55 68q-18 0 -28 -6.5t-24 -24.5l-18 17q7 16 27 71l2 7q-61 9 -105.5 29t-101.5 61v8q54 -35 100 -51t113 -23
q8 29 10 39l2 6q-244 26 -379 202t-135 472q0 190 72.5 344t199.5 243t281 89q79 0 120 -9.5t136 -46.5q74 -28 119 -28q54 0 100 28l17 -8l-13 -20q-32 -56 -58.5 -106.5t-46.5 -93.5t-50 -114l-9 -22l-12 6q-17 101 -59.5 175.5t-107.5 114.5t-144 40q-44 0 -86.5 -16.5
t-81 -48t-62.5 -70.5q-32 -55 -50.5 -116.5t-28 -144t-9.5 -184.5q0 -137 25 -250.5t73 -193t117.5 -120t155.5 -40.5q94 0 162.5 41t109 121t52.5 199q3 40 30 40q41 0 41 -65q0 -47 -17 -116.5t-38 -108.5q-43 -86 -125.5 -135t-195.5 -58zM801 1161q-56 45 -90 59.5
t-82 14.5q-127 0 -193.5 -126.5t-66.5 -367.5q0 -223 61.5 -374t169.5 -195v-10q-59 13 -106.5 58t-83 123.5t-53 177.5t-17.5 220q0 127 19 225t55 162.5t88.5 98t122.5 33.5q55 0 92.5 -19t83.5 -67v-13zM750 -61q67 -52 67 -156q0 -52 -26.5 -99t-72 -75.5t-93.5 -28.5
q-87 0 -131 45v8q52 -32 108 -32q74 0 131.5 62.5t57.5 143.5q0 66 -50 125zM569 -141q6 32 45 32v-10q-18 -9 -32 -39zM1126 475q-8 -123 -32.5 -202t-77.5 -144q-51 -64 -104.5 -95t-145.5 -50l-10 -2l-27 24q72 5 143.5 44.5t120.5 101.5q51 61 72.5 131t30.5 182l2 22z
M1163 1286l-10 -18q-28 -47 -63.5 -112.5t-63 -122.5t-47.5 -105l-27 14l99 199l90 159zM573 -233l23 -13l-18 -12z" />
    <glyph glyph-name="egrave" unicode="&#xe8;" horiz-adv-x="1274" 
d="M1124 1366l-16 -20q-63 -76 -93.5 -129.5t-68.5 -157.5q-14 32 -14 33q-40 84 -76 123t-95 53t-173 14q-99 0 -180 -4v-461h63v408q68 6 145 6q87 0 139.5 -11t88 -39t67.5 -81q-10 6 -20 16q-53 41 -55 41q-36 27 -78 37q-47 8 -129 8q-35 0 -111 -4h-20v-381h182
l129 178v-430l-129 166h-272v-561h63v514h217l27 -27h-217v-487h14q143 0 236 16q53 12 99.5 45.5t74.5 81.5l53 90l12 23q16 -73 38 -125.5t58 -99.5t97 -105h-1121l152 115v446q-51 -5 -83 -16t-69 -35l-14 21q32 25 67 37t99 20v47q-6 1 -11 1.5t-10 0.5q-49 0 -99.5 -20
t-90.5 -56q25 86 73 122t138 38v428l-152 121h1065zM1174 1296l-9 -10q-81 -110 -108 -155.5t-53 -118.5l-19 20q39 88 76 149t98 136zM879 963v-443l-25 12v443zM1294 90l-53 -90h-1091l-17 27h1094l35 63q-77 71 -122 134.5t-81 150.5l33 -13q34 -80 69 -128t117 -128z
M563 1740l137 -192h-116l-230 192h209zM834 1480h-168l-29 25h139l-125 174l43 -8z" />
    <glyph glyph-name="egrave" unicode="&#x438;" horiz-adv-x="1274" 
d="M1124 1366l-16 -20q-63 -76 -93.5 -129.5t-68.5 -157.5q-14 32 -14 33q-40 84 -76 123t-95 53t-173 14q-99 0 -180 -4v-461h63v408q68 6 145 6q87 0 139.5 -11t88 -39t67.5 -81q-10 6 -20 16q-53 41 -55 41q-36 27 -78 37q-47 8 -129 8q-35 0 -111 -4h-20v-381h182
l129 178v-430l-129 166h-272v-561h63v514h217l27 -27h-217v-487h14q143 0 236 16q53 12 99.5 45.5t74.5 81.5l53 90l12 23q16 -73 38 -125.5t58 -99.5t97 -105h-1121l152 115v446q-51 -5 -83 -16t-69 -35l-14 21q32 25 67 37t99 20v47q-6 1 -11 1.5t-10 0.5q-49 0 -99.5 -20
t-90.5 -56q25 86 73 122t138 38v428l-152 121h1065zM1174 1296l-9 -10q-81 -110 -108 -155.5t-53 -118.5l-19 20q39 88 76 149t98 136zM879 963v-443l-25 12v443zM1294 90l-53 -90h-1091l-17 27h1094l35 63q-77 71 -122 134.5t-81 150.5l33 -13q34 -80 69 -128t117 -128z
M563 1740l137 -192h-116l-230 192h209zM834 1480h-168l-29 25h139l-125 174l43 -8z" />
    <glyph glyph-name="eacute" unicode="&#xe9;" horiz-adv-x="1300" 
d="M-88 1245q-145 84 -243 110.5t-267 26.5q-107 0 -196 -24t-154 -68t-101 -104.5t-36 -130.5q0 -114 89.5 -204t245.5 -130q-49 -132 -118.5 -256.5t-148.5 -226t-157 -164.5l15 -4q142 -48 293 -146l14 -8l4 31q20 118 35 186t32.5 132t49.5 165q35 108 63 174l4 10
q79 -37 185 -51l8 -2v-375l-176 -186h516l16 27h-475l144 153v404l-19 2q-67 8 -106 17t-86 28l22 57q71 -20 113 -24l131 -17v-446l-113 -119h441l-130 119v336q14 -3 32.5 -7t29.5 -8q12 -4 28 -9.5t23 -6.5l8 -2l9 20q-49 19 -68 23l-62 14v53q60 -2 148 -26l10 -4
q0 6 -0.5 8t-1.5 4q0 3 -18 53q0 -2 -15 45q0 4 -2 8q-25 -1 -40 -2t-29 -2q-10 0 -52 4l3 492q45 30 94 47zM-391 1270v-539h-8q-14 0 -47 6v492q-56 14 -132 14q-104 0 -165 -29t-99 -98q75 60 130 82.5t134 22.5q59 0 107 -13v-471h-10q-108 21 -178 48t-118.5 68.5
t-70.5 94t-22 117.5q0 66 40.5 123.5t110 90t152.5 32.5q102 0 176 -41zM-874 670q-22 -70 -62 -150.5t-90.5 -156.5t-106.5 -138q-94 -103 -217 -178q122 -32 224 -76t206 -110l9 -6l20 16q-90 59 -195.5 107t-211.5 77q108 73 185.5 158t158.5 223q36 62 55 101.5
t53 130.5l8 16q-79 32 -111.5 49t-68.5 47q-127 103 -127 267q0 52 18 96.5t62 109.5q-102 -88 -102 -245q0 -105 75.5 -192.5t217.5 -145.5z" />
    <glyph glyph-name="eacute" unicode="&#x439;" horiz-adv-x="1300" 
d="M-88 1245q-145 84 -243 110.5t-267 26.5q-107 0 -196 -24t-154 -68t-101 -104.5t-36 -130.5q0 -114 89.5 -204t245.5 -130q-49 -132 -118.5 -256.5t-148.5 -226t-157 -164.5l15 -4q142 -48 293 -146l14 -8l4 31q20 118 35 186t32.5 132t49.5 165q35 108 63 174l4 10
q79 -37 185 -51l8 -2v-375l-176 -186h516l16 27h-475l144 153v404l-19 2q-67 8 -106 17t-86 28l22 57q71 -20 113 -24l131 -17v-446l-113 -119h441l-130 119v336q14 -3 32.5 -7t29.5 -8q12 -4 28 -9.5t23 -6.5l8 -2l9 20q-49 19 -68 23l-62 14v53q60 -2 148 -26l10 -4
q0 6 -0.5 8t-1.5 4q0 3 -18 53q0 -2 -15 45q0 4 -2 8q-25 -1 -40 -2t-29 -2q-10 0 -52 4l3 492q45 30 94 47zM-391 1270v-539h-8q-14 0 -47 6v492q-56 14 -132 14q-104 0 -165 -29t-99 -98q75 60 130 82.5t134 22.5q59 0 107 -13v-471h-10q-108 21 -178 48t-118.5 68.5
t-70.5 94t-22 117.5q0 66 40.5 123.5t110 90t152.5 32.5q102 0 176 -41zM-874 670q-22 -70 -62 -150.5t-90.5 -156.5t-106.5 -138q-94 -103 -217 -178q122 -32 224 -76t206 -110l9 -6l20 16q-90 59 -195.5 107t-211.5 77q108 73 185.5 158t158.5 223q36 62 55 101.5
t53 130.5l8 16q-79 32 -111.5 49t-68.5 47q-127 103 -127 267q0 52 18 96.5t62 109.5q-102 -88 -102 -245q0 -105 75.5 -192.5t217.5 -145.5z" />
    <glyph glyph-name="ecircumflex" unicode="&#xea;" horiz-adv-x="1274" 
d="M1124 1366l-16 -20q-63 -76 -93.5 -129.5t-68.5 -157.5q-14 32 -14 33q-40 84 -76 123t-95 53t-173 14q-99 0 -180 -4v-461h63v408q68 6 145 6q87 0 139.5 -11t88 -39t67.5 -81q-10 6 -20 16q-53 41 -55 41q-36 27 -78 37q-47 8 -129 8q-35 0 -111 -4h-20v-381h182
l129 178v-430l-129 166h-272v-561h63v514h217l27 -27h-217v-487h14q143 0 236 16q53 12 99.5 45.5t74.5 81.5l53 90l12 23q16 -73 38 -125.5t58 -99.5t97 -105h-1121l152 115v446q-51 -5 -83 -16t-69 -35l-14 21q32 25 67 37t99 20v47q-6 1 -11 1.5t-10 0.5q-49 0 -99.5 -20
t-90.5 -56q25 86 73 122t138 38v428l-152 121h1065zM1174 1296l-9 -10q-81 -110 -108 -155.5t-53 -118.5l-19 20q39 88 76 149t98 136zM879 963v-443l-25 12v443zM1294 90l-53 -90h-1091l-17 27h1094l35 63q-77 71 -122 134.5t-81 150.5l33 -13q34 -80 69 -128t117 -128z
M578 1638l-119 -141h-88l-19 21h97l114 135l-24 30l-103 -116h-104l168 200h129l172 -200h-160zM938 1497h-233l-17 21h199l-174 202l39 -8z" />
    <glyph glyph-name="ecircumflex" unicode="&#x43a;" horiz-adv-x="1274" 
d="M1124 1366l-16 -20q-63 -76 -93.5 -129.5t-68.5 -157.5q-14 32 -14 33q-40 84 -76 123t-95 53t-173 14q-99 0 -180 -4v-461h63v408q68 6 145 6q87 0 139.5 -11t88 -39t67.5 -81q-10 6 -20 16q-53 41 -55 41q-36 27 -78 37q-47 8 -129 8q-35 0 -111 -4h-20v-381h182
l129 178v-430l-129 166h-272v-561h63v514h217l27 -27h-217v-487h14q143 0 236 16q53 12 99.5 45.5t74.5 81.5l53 90l12 23q16 -73 38 -125.5t58 -99.5t97 -105h-1121l152 115v446q-51 -5 -83 -16t-69 -35l-14 21q32 25 67 37t99 20v47q-6 1 -11 1.5t-10 0.5q-49 0 -99.5 -20
t-90.5 -56q25 86 73 122t138 38v428l-152 121h1065zM1174 1296l-9 -10q-81 -110 -108 -155.5t-53 -118.5l-19 20q39 88 76 149t98 136zM879 963v-443l-25 12v443zM1294 90l-53 -90h-1091l-17 27h1094l35 63q-77 71 -122 134.5t-81 150.5l33 -13q34 -80 69 -128t117 -128z
M578 1638l-119 -141h-88l-19 21h97l114 135l-24 30l-103 -116h-104l168 200h129l172 -200h-160zM938 1497h-233l-17 21h199l-174 202l39 -8z" />
    <glyph glyph-name="edieresis" unicode="&#xeb;" horiz-adv-x="1274" 
d="M1124 1366l-16 -20q-63 -76 -93.5 -129.5t-68.5 -157.5q-14 32 -14 33q-40 84 -76 123t-95 53t-173 14q-99 0 -180 -4v-461h63v408q68 6 145 6q87 0 139.5 -11t88 -39t67.5 -81q-10 6 -20 16q-53 41 -55 41q-36 27 -78 37q-47 8 -129 8q-35 0 -111 -4h-20v-381h182
l129 178v-430l-129 166h-272v-561h63v514h217l27 -27h-217v-487h14q143 0 236 16q53 12 99.5 45.5t74.5 81.5l53 90l12 23q16 -73 38 -125.5t58 -99.5t97 -105h-1121l152 115v446q-51 -5 -83 -16t-69 -35l-14 21q32 25 67 37t99 20v47q-6 1 -11 1.5t-10 0.5q-49 0 -99.5 -20
t-90.5 -56q25 86 73 122t138 38v428l-152 121h1065zM1174 1296l-9 -10q-81 -110 -108 -155.5t-53 -118.5l-19 20q39 88 76 149t98 136zM879 963v-443l-25 12v443zM1294 90l-53 -90h-1091l-17 27h1094l35 63q-77 71 -122 134.5t-81 150.5l33 -13q34 -80 69 -128t117 -128z
M715 1763q40 0 69 -28t29 -68q0 -38 -29 -66t-69 -28q-38 0 -67 28t-29 66q0 40 29 68t67 28zM840 1722q24 -10 39.5 -36t15.5 -62q0 -53 -37 -90t-88 -37q-59 0 -94 47v6q46 -32 82 -32q48 0 83.5 33.5t35.5 78.5q0 27 -7.5 46t-29.5 46zM494 1722q55 -25 55 -98
q0 -54 -35.5 -90.5t-87.5 -36.5q-59 0 -94 47v6q46 -32 80 -32q48 0 83.5 33.5t35.5 78.5t-37 92zM369 1763q40 0 68 -28t28 -68q0 -38 -28 -66t-68 -28t-69 28t-29 66q0 40 29 68t69 28z" />
    <glyph glyph-name="edieresis" unicode="&#x43b;" horiz-adv-x="1274" 
d="M1124 1366l-16 -20q-63 -76 -93.5 -129.5t-68.5 -157.5q-14 32 -14 33q-40 84 -76 123t-95 53t-173 14q-99 0 -180 -4v-461h63v408q68 6 145 6q87 0 139.5 -11t88 -39t67.5 -81q-10 6 -20 16q-53 41 -55 41q-36 27 -78 37q-47 8 -129 8q-35 0 -111 -4h-20v-381h182
l129 178v-430l-129 166h-272v-561h63v514h217l27 -27h-217v-487h14q143 0 236 16q53 12 99.5 45.5t74.5 81.5l53 90l12 23q16 -73 38 -125.5t58 -99.5t97 -105h-1121l152 115v446q-51 -5 -83 -16t-69 -35l-14 21q32 25 67 37t99 20v47q-6 1 -11 1.5t-10 0.5q-49 0 -99.5 -20
t-90.5 -56q25 86 73 122t138 38v428l-152 121h1065zM1174 1296l-9 -10q-81 -110 -108 -155.5t-53 -118.5l-19 20q39 88 76 149t98 136zM879 963v-443l-25 12v443zM1294 90l-53 -90h-1091l-17 27h1094l35 63q-77 71 -122 134.5t-81 150.5l33 -13q34 -80 69 -128t117 -128z
M715 1763q40 0 69 -28t29 -68q0 -38 -29 -66t-69 -28q-38 0 -67 28t-29 66q0 40 29 68t67 28zM840 1722q24 -10 39.5 -36t15.5 -62q0 -53 -37 -90t-88 -37q-59 0 -94 47v6q46 -32 82 -32q48 0 83.5 33.5t35.5 78.5q0 27 -7.5 46t-29.5 46zM494 1722q55 -25 55 -98
q0 -54 -35.5 -90.5t-87.5 -36.5q-59 0 -94 47v6q46 -32 80 -32q48 0 83.5 33.5t35.5 78.5t-37 92zM369 1763q40 0 68 -28t28 -68q0 -38 -28 -66t-68 -28t-69 28t-29 66q0 40 29 68t69 28z" />
    <glyph glyph-name="igrave" unicode="&#xec;" horiz-adv-x="627" 
d="M41 1366h475l-135 -137v-1041l127 -106h-467l139 115v1044zM561 1309l-102 -101v-1020l168 -188h-521l-24 27h485l-137 151v1039l113 112zM356 1757l137 -192h-116l-230 192h209zM627 1497h-168l-29 25h139l-125 174l43 -8z" />
    <glyph glyph-name="igrave" unicode="&#x43c;" horiz-adv-x="627" 
d="M41 1366h475l-135 -137v-1041l127 -106h-467l139 115v1044zM561 1309l-102 -101v-1020l168 -188h-521l-24 27h485l-137 151v1039l113 112zM356 1757l137 -192h-116l-230 192h209zM627 1497h-168l-29 25h139l-125 174l43 -8z" />
    <glyph glyph-name="iacute" unicode="&#xed;" horiz-adv-x="627" 
d="M41 1366h475l-135 -137v-1041l127 -106h-467l139 115v1044zM561 1309l-102 -101v-1020l168 -188h-521l-24 27h485l-137 151v1039l113 112zM486 1763l-244 -198h-107l148 198h203zM178 1481l-22 28h123l246 199l18 -25l-250 -202h-115z" />
    <glyph glyph-name="iacute" unicode="&#x43d;" horiz-adv-x="627" 
d="M41 1366h475l-135 -137v-1041l127 -106h-467l139 115v1044zM561 1309l-102 -101v-1020l168 -188h-521l-24 27h485l-137 151v1039l113 112zM486 1763l-244 -198h-107l148 198h203zM178 1481l-22 28h123l246 199l18 -25l-250 -202h-115z" />
    <glyph glyph-name="icircumflex" unicode="&#xee;" horiz-adv-x="627" 
d="M41 1366h475l-135 -137v-1041l127 -106h-467l139 115v1044zM561 1309l-102 -101v-1020l168 -188h-521l-24 27h485l-137 151v1039l113 112zM324 1638l-119 -141h-88l-19 21h97l114 135l-24 30l-103 -116h-104l168 200h129l172 -200h-160zM684 1497h-233l-17 21h199
l-174 202l39 -8z" />
    <glyph glyph-name="icircumflex" unicode="&#x43e;" horiz-adv-x="627" 
d="M41 1366h475l-135 -137v-1041l127 -106h-467l139 115v1044zM561 1309l-102 -101v-1020l168 -188h-521l-24 27h485l-137 151v1039l113 112zM324 1638l-119 -141h-88l-19 21h97l114 135l-24 30l-103 -116h-104l168 200h129l172 -200h-160zM684 1497h-233l-17 21h199
l-174 202l39 -8z" />
    <glyph glyph-name="idieresis" unicode="&#xef;" horiz-adv-x="627" 
d="M41 1366h475l-135 -137v-1041l127 -106h-467l139 115v1044zM561 1309l-102 -101v-1020l168 -188h-521l-24 27h485l-137 151v1039l113 112zM487 1763q40 0 69 -28t29 -68q0 -38 -29 -66t-69 -28q-38 0 -67 28t-29 66q0 40 29 68t67 28zM612 1722q24 -10 39.5 -36t15.5 -62
q0 -53 -37 -90t-88 -37q-59 0 -94 47v6q46 -32 82 -32q48 0 83.5 33.5t35.5 78.5q0 27 -7.5 46t-29.5 46zM266 1722q55 -25 55 -98q0 -54 -35.5 -90.5t-87.5 -36.5q-59 0 -94 47v6q46 -32 80 -32q48 0 83.5 33.5t35.5 78.5t-37 92zM141 1763q40 0 68 -28t28 -68
q0 -38 -28 -66t-68 -28t-69 28t-29 66q0 40 29 68t69 28z" />
    <glyph glyph-name="idieresis" unicode="&#x43f;" horiz-adv-x="627" 
d="M41 1366h475l-135 -137v-1041l127 -106h-467l139 115v1044zM561 1309l-102 -101v-1020l168 -188h-521l-24 27h485l-137 151v1039l113 112zM487 1763q40 0 69 -28t29 -68q0 -38 -29 -66t-69 -28q-38 0 -67 28t-29 66q0 40 29 68t67 28zM612 1722q24 -10 39.5 -36t15.5 -62
q0 -53 -37 -90t-88 -37q-59 0 -94 47v6q46 -32 82 -32q48 0 83.5 33.5t35.5 78.5q0 27 -7.5 46t-29.5 46zM266 1722q55 -25 55 -98q0 -54 -35.5 -90.5t-87.5 -36.5q-59 0 -94 47v6q46 -32 80 -32q48 0 83.5 33.5t35.5 78.5t-37 92zM141 1763q40 0 68 -28t28 -68
q0 -38 -28 -66t-68 -28t-69 28t-29 66q0 40 29 68t69 28z" />
    <glyph glyph-name="eth" unicode="&#xf0;" horiz-adv-x="1237" 
d="M70 1366h413q122 0 216.5 -21t162.5 -65t117 -113q35 -46 58 -95.5t36 -99t20 -116t7 -147.5q0 -115 -24.5 -214.5t-71.5 -176.5t-113 -128q-73 -57 -170 -82.5t-240 -25.5h-440l137 104v471h-78l-10 27h88v43h-125l-35 92h160v434zM375 1278v-459h55v395q35 9 98 9
q77 0 124 -16t96 -60q-108 47 -226 47q-37 0 -67 -4v-371h159l33 -92h-272v-567h55v524h283l-39 104l26 -12l48 -119h-293v-497q14 -2 28 -2q138 0 220 60t131 198q25 77 36 150t11 165q0 100 -12 177t-40 147q-35 86 -85 133.5t-130 69.5t-198 22q-21 0 -41 -2zM979 1237
q211 -139 211 -487q0 -155 -22 -262.5t-72 -200.5q-61 -110 -154 -172q-157 -115 -450 -115h-390l-14 27h397q229 0 381 75t225.5 229.5t73.5 389.5q0 142 -18 221t-70 168q-26 47 -98 127z" />
    <glyph glyph-name="eth" unicode="&#x440;" horiz-adv-x="1237" 
d="M70 1366h413q122 0 216.5 -21t162.5 -65t117 -113q35 -46 58 -95.5t36 -99t20 -116t7 -147.5q0 -115 -24.5 -214.5t-71.5 -176.5t-113 -128q-73 -57 -170 -82.5t-240 -25.5h-440l137 104v471h-78l-10 27h88v43h-125l-35 92h160v434zM375 1278v-459h55v395q35 9 98 9
q77 0 124 -16t96 -60q-108 47 -226 47q-37 0 -67 -4v-371h159l33 -92h-272v-567h55v524h283l-39 104l26 -12l48 -119h-293v-497q14 -2 28 -2q138 0 220 60t131 198q25 77 36 150t11 165q0 100 -12 177t-40 147q-35 86 -85 133.5t-130 69.5t-198 22q-21 0 -41 -2zM979 1237
q211 -139 211 -487q0 -155 -22 -262.5t-72 -200.5q-61 -110 -154 -172q-157 -115 -450 -115h-390l-14 27h397q229 0 381 75t225.5 229.5t73.5 389.5q0 142 -18 221t-70 168q-26 47 -98 127z" />
    <glyph glyph-name="ntilde" unicode="&#xf1;" horiz-adv-x="1229" 
d="M1268 1290l-19 -28q-53 -12 -80.5 -36.5t-39 -69.5t-11.5 -124v-1032h-215l-14 27h203v995q0 96 14.5 149.5t53 80.5t108.5 38zM233 872v381l-133 113h506l-143 -96l485 -944v120l-416 807l142 97l16 -19l-123 -84l381 -747v520q0 98 -6 148.5t-22 84t-51.5 60.5
t-90.5 53h455q-85 -44 -125.5 -84t-56 -97.5t-15.5 -156.5v-946h-170l-471 915v-587q0 -75 11 -129t33 -91.5t59 -72.5l6 -6q-50 17 -79.5 52.5t-43.5 96.5t-14 146v641l-54 106v-578q0 -143 5 -212.5t18 -108.5t43 -78q32 -37 56 -51t83 -33l88 -92h-543l-14 27h500l-51 55
h-467q120 43 155 111q27 49 37 101t10 159v419zM918 1763q2 -12 2 -26q0 -74 -45.5 -124t-110.5 -50q-33 0 -77 13.5t-109 45.5q-67 33 -94 33q-31 0 -51.5 -21t-24.5 -57h-72v8q0 79 54 137t129 58q45 0 74.5 -11.5t113.5 -62.5q51 -29 76 -29q27 0 45 20t18 54v12h72z
M975 1735l21 -19v-8q0 -85 -54.5 -146t-130.5 -61q-51 0 -112 31l12 12q59 -20 96 -20q74 0 116 50.5t50 147.5zM490 1608v-31q-21 -32 -29 -74h-80l-14 23h78q12 57 45 82z" />
    <glyph glyph-name="ntilde" unicode="&#x441;" horiz-adv-x="1229" 
d="M1268 1290l-19 -28q-53 -12 -80.5 -36.5t-39 -69.5t-11.5 -124v-1032h-215l-14 27h203v995q0 96 14.5 149.5t53 80.5t108.5 38zM233 872v381l-133 113h506l-143 -96l485 -944v120l-416 807l142 97l16 -19l-123 -84l381 -747v520q0 98 -6 148.5t-22 84t-51.5 60.5
t-90.5 53h455q-85 -44 -125.5 -84t-56 -97.5t-15.5 -156.5v-946h-170l-471 915v-587q0 -75 11 -129t33 -91.5t59 -72.5l6 -6q-50 17 -79.5 52.5t-43.5 96.5t-14 146v641l-54 106v-578q0 -143 5 -212.5t18 -108.5t43 -78q32 -37 56 -51t83 -33l88 -92h-543l-14 27h500l-51 55
h-467q120 43 155 111q27 49 37 101t10 159v419zM918 1763q2 -12 2 -26q0 -74 -45.5 -124t-110.5 -50q-33 0 -77 13.5t-109 45.5q-67 33 -94 33q-31 0 -51.5 -21t-24.5 -57h-72v8q0 79 54 137t129 58q45 0 74.5 -11.5t113.5 -62.5q51 -29 76 -29q27 0 45 20t18 54v12h72z
M975 1735l21 -19v-8q0 -85 -54.5 -146t-130.5 -61q-51 0 -112 31l12 12q59 -20 96 -20q74 0 116 50.5t50 147.5zM490 1608v-31q-21 -32 -29 -74h-80l-14 23h78q12 57 45 82z" />
    <glyph glyph-name="ograve" unicode="&#xf2;" horiz-adv-x="1278" 
d="M823 1157q-68 39 -108 52.5t-90 13.5q-136 0 -204.5 -134t-68.5 -401q0 -190 42.5 -320t125.5 -194l-8 -10q-54 39 -90.5 86t-58.5 107t-33 142t-11 193q0 277 76.5 416t227.5 139q64 0 117.5 -24t82.5 -66zM1151 715q0 -153 -36.5 -275.5t-109 -212t-173 -135
t-224.5 -45.5q-166 0 -298.5 86t-205.5 239.5t-73 348.5q0 153 39.5 279t115 215.5t180 136.5t236.5 47q122 0 223.5 -48.5t174.5 -139t112 -217.5t39 -279zM924 743q0 262 -64 406q-35 74 -105.5 118t-152.5 44q-348 0 -348 -613q0 -565 342 -565q172 0 258 178
q39 87 54.5 181.5t15.5 250.5zM930 1346q74 -36 134 -98.5t100.5 -146t62.5 -187t22 -226.5q0 -156 -44 -289t-126.5 -230.5t-195 -149.5t-244.5 -52q-172 0 -330 117v6q61 -43 146.5 -67.5t175.5 -24.5q127 0 236.5 51.5t188 142.5t122 218t43.5 278q0 112 -20 213
t-56 182.5t-92.5 147t-122.5 104.5v11zM598 1740l137 -192h-116l-230 192h209zM869 1480h-168l-29 25h139l-125 174l43 -8z" />
    <glyph glyph-name="ograve" unicode="&#x442;" horiz-adv-x="1278" 
d="M823 1157q-68 39 -108 52.5t-90 13.5q-136 0 -204.5 -134t-68.5 -401q0 -190 42.5 -320t125.5 -194l-8 -10q-54 39 -90.5 86t-58.5 107t-33 142t-11 193q0 277 76.5 416t227.5 139q64 0 117.5 -24t82.5 -66zM1151 715q0 -153 -36.5 -275.5t-109 -212t-173 -135
t-224.5 -45.5q-166 0 -298.5 86t-205.5 239.5t-73 348.5q0 153 39.5 279t115 215.5t180 136.5t236.5 47q122 0 223.5 -48.5t174.5 -139t112 -217.5t39 -279zM924 743q0 262 -64 406q-35 74 -105.5 118t-152.5 44q-348 0 -348 -613q0 -565 342 -565q172 0 258 178
q39 87 54.5 181.5t15.5 250.5zM930 1346q74 -36 134 -98.5t100.5 -146t62.5 -187t22 -226.5q0 -156 -44 -289t-126.5 -230.5t-195 -149.5t-244.5 -52q-172 0 -330 117v6q61 -43 146.5 -67.5t175.5 -24.5q127 0 236.5 51.5t188 142.5t122 218t43.5 278q0 112 -20 213
t-56 182.5t-92.5 147t-122.5 104.5v11zM598 1740l137 -192h-116l-230 192h209zM869 1480h-168l-29 25h139l-125 174l43 -8z" />
    <glyph glyph-name="oacute" unicode="&#xf3;" horiz-adv-x="1278" 
d="M823 1157q-68 39 -108 52.5t-90 13.5q-136 0 -204.5 -134t-68.5 -401q0 -190 42.5 -320t125.5 -194l-8 -10q-54 39 -90.5 86t-58.5 107t-33 142t-11 193q0 277 76.5 416t227.5 139q64 0 117.5 -24t82.5 -66zM1151 715q0 -153 -36.5 -275.5t-109 -212t-173 -135
t-224.5 -45.5q-166 0 -298.5 86t-205.5 239.5t-73 348.5q0 153 39.5 279t115 215.5t180 136.5t236.5 47q122 0 223.5 -48.5t174.5 -139t112 -217.5t39 -279zM924 743q0 262 -64 406q-35 74 -105.5 118t-152.5 44q-348 0 -348 -613q0 -565 342 -565q172 0 258 178
q39 87 54.5 181.5t15.5 250.5zM930 1346q74 -36 134 -98.5t100.5 -146t62.5 -187t22 -226.5q0 -156 -44 -289t-126.5 -230.5t-195 -149.5t-244.5 -52q-172 0 -330 117v6q61 -43 146.5 -67.5t175.5 -24.5q127 0 236.5 51.5t188 142.5t122 218t43.5 278q0 112 -20 213
t-56 182.5t-92.5 147t-122.5 104.5v11zM809 1763l-244 -198h-107l148 198h203zM501 1481l-22 28h123l246 199l18 -25l-250 -202h-115z" />
    <glyph glyph-name="oacute" unicode="&#x443;" horiz-adv-x="1278" 
d="M823 1157q-68 39 -108 52.5t-90 13.5q-136 0 -204.5 -134t-68.5 -401q0 -190 42.5 -320t125.5 -194l-8 -10q-54 39 -90.5 86t-58.5 107t-33 142t-11 193q0 277 76.5 416t227.5 139q64 0 117.5 -24t82.5 -66zM1151 715q0 -153 -36.5 -275.5t-109 -212t-173 -135
t-224.5 -45.5q-166 0 -298.5 86t-205.5 239.5t-73 348.5q0 153 39.5 279t115 215.5t180 136.5t236.5 47q122 0 223.5 -48.5t174.5 -139t112 -217.5t39 -279zM924 743q0 262 -64 406q-35 74 -105.5 118t-152.5 44q-348 0 -348 -613q0 -565 342 -565q172 0 258 178
q39 87 54.5 181.5t15.5 250.5zM930 1346q74 -36 134 -98.5t100.5 -146t62.5 -187t22 -226.5q0 -156 -44 -289t-126.5 -230.5t-195 -149.5t-244.5 -52q-172 0 -330 117v6q61 -43 146.5 -67.5t175.5 -24.5q127 0 236.5 51.5t188 142.5t122 218t43.5 278q0 112 -20 213
t-56 182.5t-92.5 147t-122.5 104.5v11zM809 1763l-244 -198h-107l148 198h203zM501 1481l-22 28h123l246 199l18 -25l-250 -202h-115z" />
    <glyph glyph-name="ocircumflex" unicode="&#xf4;" horiz-adv-x="1278" 
d="M823 1157q-68 39 -108 52.5t-90 13.5q-136 0 -204.5 -134t-68.5 -401q0 -190 42.5 -320t125.5 -194l-8 -10q-54 39 -90.5 86t-58.5 107t-33 142t-11 193q0 277 76.5 416t227.5 139q64 0 117.5 -24t82.5 -66zM1151 715q0 -153 -36.5 -275.5t-109 -212t-173 -135
t-224.5 -45.5q-166 0 -298.5 86t-205.5 239.5t-73 348.5q0 153 39.5 279t115 215.5t180 136.5t236.5 47q122 0 223.5 -48.5t174.5 -139t112 -217.5t39 -279zM924 743q0 262 -64 406q-35 74 -105.5 118t-152.5 44q-348 0 -348 -613q0 -565 342 -565q172 0 258 178
q39 87 54.5 181.5t15.5 250.5zM930 1346q74 -36 134 -98.5t100.5 -146t62.5 -187t22 -226.5q0 -156 -44 -289t-126.5 -230.5t-195 -149.5t-244.5 -52q-172 0 -330 117v6q61 -43 146.5 -67.5t175.5 -24.5q127 0 236.5 51.5t188 142.5t122 218t43.5 278q0 112 -20 213
t-56 182.5t-92.5 147t-122.5 104.5v11zM621 1638l-119 -141h-88l-19 21h97l114 135l-24 30l-103 -116h-104l168 200h129l172 -200h-160zM981 1497h-233l-17 21h199l-174 202l39 -8z" />
    <glyph glyph-name="ocircumflex" unicode="&#x444;" horiz-adv-x="1278" 
d="M823 1157q-68 39 -108 52.5t-90 13.5q-136 0 -204.5 -134t-68.5 -401q0 -190 42.5 -320t125.5 -194l-8 -10q-54 39 -90.5 86t-58.5 107t-33 142t-11 193q0 277 76.5 416t227.5 139q64 0 117.5 -24t82.5 -66zM1151 715q0 -153 -36.5 -275.5t-109 -212t-173 -135
t-224.5 -45.5q-166 0 -298.5 86t-205.5 239.5t-73 348.5q0 153 39.5 279t115 215.5t180 136.5t236.5 47q122 0 223.5 -48.5t174.5 -139t112 -217.5t39 -279zM924 743q0 262 -64 406q-35 74 -105.5 118t-152.5 44q-348 0 -348 -613q0 -565 342 -565q172 0 258 178
q39 87 54.5 181.5t15.5 250.5zM930 1346q74 -36 134 -98.5t100.5 -146t62.5 -187t22 -226.5q0 -156 -44 -289t-126.5 -230.5t-195 -149.5t-244.5 -52q-172 0 -330 117v6q61 -43 146.5 -67.5t175.5 -24.5q127 0 236.5 51.5t188 142.5t122 218t43.5 278q0 112 -20 213
t-56 182.5t-92.5 147t-122.5 104.5v11zM621 1638l-119 -141h-88l-19 21h97l114 135l-24 30l-103 -116h-104l168 200h129l172 -200h-160zM981 1497h-233l-17 21h199l-174 202l39 -8z" />
    <glyph glyph-name="otilde" unicode="&#xf5;" horiz-adv-x="1278" 
d="M823 1157q-68 39 -108 52.5t-90 13.5q-136 0 -204.5 -134t-68.5 -401q0 -190 42.5 -320t125.5 -194l-8 -10q-54 39 -90.5 86t-58.5 107t-33 142t-11 193q0 277 76.5 416t227.5 139q64 0 117.5 -24t82.5 -66zM1151 715q0 -153 -36.5 -275.5t-109 -212t-173 -135
t-224.5 -45.5q-166 0 -298.5 86t-205.5 239.5t-73 348.5q0 153 39.5 279t115 215.5t180 136.5t236.5 47q122 0 223.5 -48.5t174.5 -139t112 -217.5t39 -279zM924 743q0 262 -64 406q-35 74 -105.5 118t-152.5 44q-348 0 -348 -613q0 -565 342 -565q172 0 258 178
q39 87 54.5 181.5t15.5 250.5zM930 1346q74 -36 134 -98.5t100.5 -146t62.5 -187t22 -226.5q0 -156 -44 -289t-126.5 -230.5t-195 -149.5t-244.5 -52q-172 0 -330 117v6q61 -43 146.5 -67.5t175.5 -24.5q127 0 236.5 51.5t188 142.5t122 218t43.5 278q0 112 -20 213
t-56 182.5t-92.5 147t-122.5 104.5v11zM901 1763q2 -12 2 -26q0 -74 -45.5 -124t-110.5 -50q-33 0 -77 13.5t-109 45.5q-67 33 -94 33q-31 0 -51.5 -21t-24.5 -57h-72v8q0 79 54 137t129 58q45 0 74.5 -11.5t113.5 -62.5q51 -29 76 -29q27 0 45 20t18 54v12h72zM958 1735
l21 -19v-8q0 -85 -54.5 -146t-130.5 -61q-51 0 -112 31l12 12q59 -20 96 -20q74 0 116 50.5t50 147.5zM473 1608v-31q-21 -32 -29 -74h-80l-14 23h78q12 57 45 82z" />
    <glyph glyph-name="otilde" unicode="&#x445;" horiz-adv-x="1278" 
d="M823 1157q-68 39 -108 52.5t-90 13.5q-136 0 -204.5 -134t-68.5 -401q0 -190 42.5 -320t125.5 -194l-8 -10q-54 39 -90.5 86t-58.5 107t-33 142t-11 193q0 277 76.5 416t227.5 139q64 0 117.5 -24t82.5 -66zM1151 715q0 -153 -36.5 -275.5t-109 -212t-173 -135
t-224.5 -45.5q-166 0 -298.5 86t-205.5 239.5t-73 348.5q0 153 39.5 279t115 215.5t180 136.5t236.5 47q122 0 223.5 -48.5t174.5 -139t112 -217.5t39 -279zM924 743q0 262 -64 406q-35 74 -105.5 118t-152.5 44q-348 0 -348 -613q0 -565 342 -565q172 0 258 178
q39 87 54.5 181.5t15.5 250.5zM930 1346q74 -36 134 -98.5t100.5 -146t62.5 -187t22 -226.5q0 -156 -44 -289t-126.5 -230.5t-195 -149.5t-244.5 -52q-172 0 -330 117v6q61 -43 146.5 -67.5t175.5 -24.5q127 0 236.5 51.5t188 142.5t122 218t43.5 278q0 112 -20 213
t-56 182.5t-92.5 147t-122.5 104.5v11zM901 1763q2 -12 2 -26q0 -74 -45.5 -124t-110.5 -50q-33 0 -77 13.5t-109 45.5q-67 33 -94 33q-31 0 -51.5 -21t-24.5 -57h-72v8q0 79 54 137t129 58q45 0 74.5 -11.5t113.5 -62.5q51 -29 76 -29q27 0 45 20t18 54v12h72zM958 1735
l21 -19v-8q0 -85 -54.5 -146t-130.5 -61q-51 0 -112 31l12 12q59 -20 96 -20q74 0 116 50.5t50 147.5zM473 1608v-31q-21 -32 -29 -74h-80l-14 23h78q12 57 45 82z" />
    <glyph glyph-name="odieresis" unicode="&#xf6;" horiz-adv-x="1278" 
d="M823 1157q-68 39 -108 52.5t-90 13.5q-136 0 -204.5 -134t-68.5 -401q0 -190 42.5 -320t125.5 -194l-8 -10q-54 39 -90.5 86t-58.5 107t-33 142t-11 193q0 277 76.5 416t227.5 139q64 0 117.5 -24t82.5 -66zM1151 715q0 -153 -36.5 -275.5t-109 -212t-173 -135
t-224.5 -45.5q-166 0 -298.5 86t-205.5 239.5t-73 348.5q0 153 39.5 279t115 215.5t180 136.5t236.5 47q122 0 223.5 -48.5t174.5 -139t112 -217.5t39 -279zM924 743q0 262 -64 406q-35 74 -105.5 118t-152.5 44q-348 0 -348 -613q0 -565 342 -565q172 0 258 178
q39 87 54.5 181.5t15.5 250.5zM930 1346q74 -36 134 -98.5t100.5 -146t62.5 -187t22 -226.5q0 -156 -44 -289t-126.5 -230.5t-195 -149.5t-244.5 -52q-172 0 -330 117v6q61 -43 146.5 -67.5t175.5 -24.5q127 0 236.5 51.5t188 142.5t122 218t43.5 278q0 112 -20 213
t-56 182.5t-92.5 147t-122.5 104.5v11zM766 1763q40 0 69 -28t29 -68q0 -38 -29 -66t-69 -28q-38 0 -67 28t-29 66q0 40 29 68t67 28zM891 1722q24 -10 39.5 -36t15.5 -62q0 -53 -37 -90t-88 -37q-59 0 -94 47v6q46 -32 82 -32q48 0 83.5 33.5t35.5 78.5q0 27 -7.5 46
t-29.5 46zM545 1722q55 -25 55 -98q0 -54 -35.5 -90.5t-87.5 -36.5q-59 0 -94 47v6q46 -32 80 -32q48 0 83.5 33.5t35.5 78.5t-37 92zM420 1763q40 0 68 -28t28 -68q0 -38 -28 -66t-68 -28t-69 28t-29 66q0 40 29 68t69 28z" />
    <glyph glyph-name="odieresis" unicode="&#x446;" horiz-adv-x="1278" 
d="M823 1157q-68 39 -108 52.5t-90 13.5q-136 0 -204.5 -134t-68.5 -401q0 -190 42.5 -320t125.5 -194l-8 -10q-54 39 -90.5 86t-58.5 107t-33 142t-11 193q0 277 76.5 416t227.5 139q64 0 117.5 -24t82.5 -66zM1151 715q0 -153 -36.5 -275.5t-109 -212t-173 -135
t-224.5 -45.5q-166 0 -298.5 86t-205.5 239.5t-73 348.5q0 153 39.5 279t115 215.5t180 136.5t236.5 47q122 0 223.5 -48.5t174.5 -139t112 -217.5t39 -279zM924 743q0 262 -64 406q-35 74 -105.5 118t-152.5 44q-348 0 -348 -613q0 -565 342 -565q172 0 258 178
q39 87 54.5 181.5t15.5 250.5zM930 1346q74 -36 134 -98.5t100.5 -146t62.5 -187t22 -226.5q0 -156 -44 -289t-126.5 -230.5t-195 -149.5t-244.5 -52q-172 0 -330 117v6q61 -43 146.5 -67.5t175.5 -24.5q127 0 236.5 51.5t188 142.5t122 218t43.5 278q0 112 -20 213
t-56 182.5t-92.5 147t-122.5 104.5v11zM766 1763q40 0 69 -28t29 -68q0 -38 -29 -66t-69 -28q-38 0 -67 28t-29 66q0 40 29 68t67 28zM891 1722q24 -10 39.5 -36t15.5 -62q0 -53 -37 -90t-88 -37q-59 0 -94 47v6q46 -32 82 -32q48 0 83.5 33.5t35.5 78.5q0 27 -7.5 46
t-29.5 46zM545 1722q55 -25 55 -98q0 -54 -35.5 -90.5t-87.5 -36.5q-59 0 -94 47v6q46 -32 80 -32q48 0 83.5 33.5t35.5 78.5t-37 92zM420 1763q40 0 68 -28t28 -68q0 -38 -28 -66t-68 -28t-69 28t-29 66q0 40 29 68t69 28z" />
    <glyph glyph-name="divide" unicode="&#xf7;" horiz-adv-x="1202" 
d="M969 795v-125h-815v125h815zM1026 739l23 -22v-129h-844l-19 26h840v125zM557 1139q43 0 74 -31t31 -74q0 -42 -31 -73t-74 -31q-42 0 -73 31t-31 73q0 43 31 74t73 31zM688 1100q28 -21 39.5 -43.5t11.5 -59.5q0 -54 -43.5 -96.5t-97.5 -42.5q-27 0 -44 4.5t-31 15
t-29 31.5l4 6q33 -18 52 -24t42 -6q51 0 86 35t35 88q0 41 -33 86zM557 532q43 0 74 -30t31 -74q0 -43 -30.5 -72.5t-74.5 -29.5q-43 0 -73.5 29.5t-30.5 72.5q0 44 31 74t73 30zM688 494q28 -21 39.5 -43.5t11.5 -59.5q0 -56 -42.5 -97.5t-98.5 -41.5q-27 0 -44 4.5t-31 15
t-29 31.5l4 6q33 -18 52 -24t42 -6q51 0 86 35t35 87q0 42 -33 86z" />
    <glyph glyph-name="divide" unicode="&#x447;" horiz-adv-x="1202" 
d="M969 795v-125h-815v125h815zM1026 739l23 -22v-129h-844l-19 26h840v125zM557 1139q43 0 74 -31t31 -74q0 -42 -31 -73t-74 -31q-42 0 -73 31t-31 73q0 43 31 74t73 31zM688 1100q28 -21 39.5 -43.5t11.5 -59.5q0 -54 -43.5 -96.5t-97.5 -42.5q-27 0 -44 4.5t-31 15
t-29 31.5l4 6q33 -18 52 -24t42 -6q51 0 86 35t35 88q0 41 -33 86zM557 532q43 0 74 -30t31 -74q0 -43 -30.5 -72.5t-74.5 -29.5q-43 0 -73.5 29.5t-30.5 72.5q0 44 31 74t73 30zM688 494q28 -21 39.5 -43.5t11.5 -59.5q0 -56 -42.5 -97.5t-98.5 -41.5q-27 0 -44 4.5t-31 15
t-29 31.5l4 6q33 -18 52 -24t42 -6q51 0 86 35t35 87q0 42 -33 86z" />
    <glyph glyph-name="oslash" unicode="&#xf8;" horiz-adv-x="1280" 
d="M1016 1376l-74 -129q59 -50 103.5 -137t69 -198t24.5 -228q0 -182 -66 -322.5t-185.5 -218t-271.5 -77.5q-183 0 -317 102l-63 -105h-97l97 156q-91 89 -139 220.5t-48 287.5q0 148 39.5 269.5t114 207t179.5 130t234 44.5q38 0 88.5 -10t94 -27.5t78.5 -40.5l45 76h94z
M893 1006l-440 -736q29 -45 75 -84l-10 -10q-65 44 -94 94l461 779q-3 12 -25 67l-500 -846q87 -120 244 -120q155 0 234.5 143t79.5 422q0 146 -25 291zM788 1157q-57 49 -153 49q-51 0 -101.5 -23.5t-76.5 -58.5q-45 -61 -71 -176t-26 -260q0 -128 19 -225zM815 1196
q-33 43 -93.5 70.5t-121.5 27.5q-164 0 -248 -148.5t-84 -440.5q0 -106 14 -204t35 -145l41 70l-4 14q-10 59 -16 127.5t-6 118.5q0 148 27 266t73 187q30 41 80 67q51 25 113 25q93 0 174 -62zM1069 1358l21 -23l-54 -88q199 -196 199 -555q0 -154 -43.5 -282.5t-123 -223
t-190 -146.5t-241.5 -52q-81 0 -150.5 22.5t-144.5 73.5l-63 -109h-191l18 29h158l60 102q63 -35 114 -56t95 -28.5t104 -7.5q160 0 292 88t205.5 242.5t73.5 343.5q0 181 -53 327t-149 232z" />
    <glyph glyph-name="oslash" unicode="&#x448;" horiz-adv-x="1280" 
d="M1016 1376l-74 -129q59 -50 103.5 -137t69 -198t24.5 -228q0 -182 -66 -322.5t-185.5 -218t-271.5 -77.5q-183 0 -317 102l-63 -105h-97l97 156q-91 89 -139 220.5t-48 287.5q0 148 39.5 269.5t114 207t179.5 130t234 44.5q38 0 88.5 -10t94 -27.5t78.5 -40.5l45 76h94z
M893 1006l-440 -736q29 -45 75 -84l-10 -10q-65 44 -94 94l461 779q-3 12 -25 67l-500 -846q87 -120 244 -120q155 0 234.5 143t79.5 422q0 146 -25 291zM788 1157q-57 49 -153 49q-51 0 -101.5 -23.5t-76.5 -58.5q-45 -61 -71 -176t-26 -260q0 -128 19 -225zM815 1196
q-33 43 -93.5 70.5t-121.5 27.5q-164 0 -248 -148.5t-84 -440.5q0 -106 14 -204t35 -145l41 70l-4 14q-10 59 -16 127.5t-6 118.5q0 148 27 266t73 187q30 41 80 67q51 25 113 25q93 0 174 -62zM1069 1358l21 -23l-54 -88q199 -196 199 -555q0 -154 -43.5 -282.5t-123 -223
t-190 -146.5t-241.5 -52q-81 0 -150.5 22.5t-144.5 73.5l-63 -109h-191l18 29h158l60 102q63 -35 114 -56t95 -28.5t104 -7.5q160 0 292 88t205.5 242.5t73.5 343.5q0 181 -53 327t-149 232z" />
    <glyph glyph-name="ugrave" unicode="&#xf9;" horiz-adv-x="1243" 
d="M1188 1366l-178 -143v-648q0 -157 -8 -227t-31 -121q-76 -164 -353 -164q-148 0 -248.5 43t-144.5 125q-32 60 -44.5 138t-12.5 211v663l-135 123h473l-137 -133v-809q0 -149 62 -210.5t212 -61.5q89 0 151 31.5t85 86.5q39 106 39 305v648l-156 143h426zM1223 1296
l-138 -110v-623q0 -260 -26 -348q-36 -113 -142.5 -175.5t-261.5 -62.5q-115 0 -212.5 32t-157.5 91l8 -4l35 -20q58 -32 138 -52t163 -20q333 0 399 219q31 103 31 332v641l147 123zM547 1313l-98 -101v-811q0 -72 23.5 -116t92.5 -103l2 -10q-84 35 -115.5 99.5
t-31.5 201.5v750l112 110zM633 1740l137 -192h-116l-230 192h209zM904 1480h-168l-29 25h139l-125 174l43 -8z" />
    </font>
</defs>
</svg>
